<svg width="41" height="41" viewBox="0 0 41 41" fill="none" xmlns="http://www.w3.org/2000/svg">
<path d="M38.997 33.7474C38.997 34.9879 37.9876 35.9972 36.7472 35.9972H5.9995C4.75908 35.9972 3.74974 34.9879 3.74974 33.7474V30.7477C4.99016 30.7477 5.9995 29.7381 5.9995 28.4979V23.9982C5.9995 22.7578 4.99016 21.7485 3.74974 21.7485V15.7487C4.99016 15.7487 5.9995 14.7394 5.9995 13.499V8.99925C5.9995 7.75883 4.99016 6.74949 3.74974 6.74949V3.74974C3.74974 2.50932 4.75908 1.49998 5.9995 1.49998H36.7472C37.9876 1.49998 38.997 2.50932 38.997 3.74974V33.7474ZM16.9758 15.787C17.122 15.9333 17.314 16.0068 17.5059 16.0068C17.6979 16.0068 17.8892 15.9333 18.0361 15.787C18.3286 15.4939 18.3286 15.0192 18.0361 14.7266L16.9758 13.6663C16.6824 13.3729 16.2077 13.3729 15.9154 13.6663C15.622 13.9588 15.622 14.4335 15.9154 14.7266L16.9758 15.787ZM26.5203 23.2108C26.2278 22.9183 25.7531 22.9183 25.4599 23.2108C25.1674 23.5033 25.1674 23.9787 25.4599 24.2712L26.5203 25.3324C26.6672 25.4793 26.8585 25.552 27.0505 25.552C27.2424 25.552 27.4344 25.4793 27.5806 25.3324C27.8738 25.0405 27.8738 24.5652 27.5806 24.272L26.5203 23.2108ZM16.9758 23.21L15.9154 24.2703C15.622 24.5637 15.622 25.0384 15.9154 25.3309C16.0614 25.4778 16.2536 25.5505 16.4456 25.5505C16.6375 25.5505 16.8287 25.4778 16.9758 25.3309L18.0361 24.2703C18.3286 23.978 18.3286 23.5033 18.0361 23.21C17.743 22.9174 17.2683 22.9174 16.9758 23.21ZM25.9901 16.0053C26.1821 16.0053 26.374 15.9318 26.5203 15.7855L27.5815 14.7252C27.8746 14.4326 27.8746 13.9571 27.5815 13.6648C27.289 13.3714 26.8143 13.3714 26.5209 13.6648L25.4599 14.7252C25.1674 15.0168 25.1674 15.4924 25.4599 15.7855C25.6068 15.9318 25.7981 16.0053 25.9901 16.0053ZM16.4987 19.4985C16.4987 19.0837 16.1635 18.7485 15.7487 18.7485H14.249C13.8342 18.7485 13.499 19.0837 13.499 19.4985C13.499 19.9132 13.8342 20.2485 14.249 20.2485H15.7487C16.1635 20.2485 16.4987 19.9132 16.4987 19.4985ZM26.998 19.4985C26.998 19.9132 27.3332 20.2485 27.7479 20.2485H29.2477C29.6625 20.2485 29.9977 19.9132 29.9977 19.4985C29.9977 19.0837 29.6625 18.7485 29.2477 18.7485H27.7479C27.3332 18.7485 26.998 19.0837 26.998 19.4985ZM21.7485 24.7482C21.3337 24.7482 20.9985 25.0834 20.9985 25.498V26.998C20.9985 27.4127 21.3337 27.7479 21.7485 27.7479C22.163 27.7479 22.4982 27.4127 22.4982 26.998V25.498C22.4982 25.0834 22.163 24.7482 21.7485 24.7482ZM34.4974 38.997H29.9977C29.583 38.997 29.2477 39.3322 29.2477 39.7469C29.2477 40.1617 29.583 40.4969 29.9977 40.4969H34.4974C34.9122 40.4969 35.2474 40.1617 35.2474 39.7469C35.2474 39.3322 34.9122 38.997 34.4974 38.997ZM12.749 38.997H8.24947C7.83472 38.997 7.49948 39.3322 7.49948 39.7469C7.49948 40.1617 7.83472 40.4969 8.24947 40.4969H12.749C13.1637 40.4969 13.499 40.1617 13.499 39.7469C13.499 39.3322 13.1637 38.997 12.749 38.997ZM21.7485 21.7485C20.508 21.7485 19.4985 20.7389 19.4985 19.4985C19.4985 18.2581 20.508 17.2487 21.7485 17.2487C22.9889 17.2487 23.9982 18.2581 23.9982 19.4985C23.9982 20.7389 22.9889 21.7485 21.7485 21.7485ZM22.4982 15.8253V11.999C22.4982 11.5845 22.163 11.2492 21.7485 11.2492C21.3337 11.2492 20.9985 11.5845 20.9985 11.999V15.8253C19.2893 16.1726 17.9987 17.6881 17.9987 19.4985C17.9987 21.5661 19.6807 23.2482 21.7485 23.2482C23.816 23.2482 25.498 21.5661 25.498 19.4985C25.498 17.6881 24.2074 16.1726 22.4982 15.8253ZM21.7485 29.2477C16.3727 29.2477 11.999 24.874 11.999 19.4985C11.999 14.1229 16.3727 9.74924 21.7485 9.74924C27.124 9.74924 31.4977 14.1229 31.4977 19.4985C31.4977 24.874 27.124 29.2477 21.7485 29.2477ZM21.7485 8.24947C15.5455 8.24947 10.4992 13.2957 10.4992 19.4985C10.4992 25.7012 15.5455 30.7477 21.7485 30.7477C27.9512 30.7477 32.9975 25.7012 32.9975 19.4985C32.9975 13.2957 27.9512 8.24947 21.7485 8.24947ZM1.49998 28.4979V23.9982C1.49998 23.5843 1.83586 23.2482 2.24976 23.2482H3.74974C4.16364 23.2482 4.49973 23.5843 4.49973 23.9982V28.4979C4.49973 28.9118 4.16364 29.2477 3.74974 29.2477H2.24976C1.83586 29.2477 1.49998 28.9118 1.49998 28.4979ZM1.49998 13.499V8.99925C1.49998 8.58535 1.83586 8.24947 2.24976 8.24947H3.74974C4.16364 8.24947 4.49973 8.58535 4.49973 8.99925V13.499C4.49973 13.9129 4.16364 14.249 3.74974 14.249H2.24976C1.83586 14.249 1.49998 13.9129 1.49998 13.499ZM36.7472 0H5.9995C3.93192 0 2.24976 1.68216 2.24976 3.74974V6.74949C1.00934 6.74949 0 7.75883 0 8.99925V13.499C0 14.7394 1.00934 15.7487 2.24976 15.7487V21.7485C1.00934 21.7485 0 22.7578 0 23.9982V28.4979C0 29.7381 1.00934 30.7477 2.24976 30.7477V33.7474C2.24976 35.815 3.93192 37.4972 5.9995 37.4972H36.7472C38.8148 37.4972 40.4969 35.815 40.4969 33.7474V3.74974C40.4969 1.68216 38.8148 0 36.7472 0Z" fill="#1253C0"/>
</svg>
