<svg width="43" height="39" viewBox="0 0 43 39" fill="none" xmlns="http://www.w3.org/2000/svg">
<path d="M19.8724 31.7964V14.6614C19.8724 14.2468 20.2083 13.911 20.6228 13.911C21.0371 13.911 21.3732 14.2468 21.3732 14.6614V31.7964H25.5911C26.6157 31.7964 27.5483 32.2162 28.2241 32.8918L28.2269 32.8946C28.9025 33.5704 29.3223 34.503 29.3223 35.5276V37.5148C29.3223 37.9294 28.9862 38.2653 28.5719 38.2653H12.6739C12.2594 38.2653 11.9233 37.9294 11.9233 37.5148V35.5276C11.9233 34.503 12.3432 33.5704 13.0188 32.8946L13.0217 32.8918C13.6975 32.2162 14.6299 31.7964 15.6546 31.7964H19.8724ZM27.8215 36.7644V35.5276C27.8215 34.9139 27.5707 34.3556 27.1672 33.9513C26.7631 33.548 26.2046 33.2972 25.5911 33.2972H20.6228H15.6546C15.041 33.2972 14.4828 33.548 14.0785 33.9513C13.675 34.3556 13.4244 34.9139 13.4244 35.5276V36.7644H27.8215ZM35.5274 8.45631C35.2925 8.45631 35.0055 8.48841 34.6783 8.52477C33.2022 8.68909 31.0132 8.93292 28.2084 7.36619C26.7095 6.52904 25.3794 5.99652 24.1997 5.94189C23.1028 5.89108 22.1005 6.2699 21.1592 7.23418C20.8713 7.53031 20.3973 7.5369 20.1009 7.24906L20.0863 7.23418C19.1452 6.2699 18.1426 5.89108 17.0459 5.94189C15.8663 5.99652 14.5362 6.52904 13.0372 7.36619C10.232 8.93271 8.04305 8.68909 6.56709 8.52477C6.24014 8.48841 5.95337 8.45631 5.71846 8.45631C5.05882 8.45631 4.44956 8.62999 4.04629 9.03326C3.70361 9.37595 3.48805 9.91208 3.48805 10.6867C3.48805 10.8708 3.74081 11.1784 4.16215 11.4601C4.56521 11.7277 5.10134 11.9235 5.71846 11.9235C6.60174 11.9235 7.19825 11.755 8.50181 11.3863L9.69375 11.0539C11.1098 10.6589 13.6992 9.93631 15.6546 9.93631C16.8835 9.93631 17.7387 10.5035 18.5876 11.0662C19.2362 11.496 19.8811 11.9235 20.6228 11.9235C21.3649 11.9235 22.0095 11.496 22.6581 11.0662C23.5071 10.5035 24.3621 9.93631 25.5911 9.93631C27.5451 9.93631 30.1318 10.6578 31.5489 11.053L32.7453 11.3868C34.0478 11.755 34.6441 11.9235 35.5274 11.9235C36.1445 11.9235 36.6804 11.7277 37.0831 11.4595L37.1069 11.4444C37.5144 11.1674 37.7576 10.8674 37.7576 10.6867C37.7576 9.91123 37.5427 9.37467 37.2008 9.03156C36.7974 8.62957 36.1877 8.45631 35.5274 8.45631ZM34.5142 7.03541C34.8971 6.9929 35.2325 6.95548 35.5274 6.95548C36.5595 6.95548 37.5467 7.2616 38.2578 7.97226L38.2606 7.97503C38.8734 8.5879 39.2586 9.47501 39.2586 10.6867C39.2586 11.3179 38.7665 12.1236 37.9442 12.6839L37.9096 12.7082C37.5384 12.9556 37.0956 13.1629 36.5994 13.2898L41.1776 24.1972C41.2216 24.2924 41.2459 24.3985 41.2459 24.5101V24.8409H41.4893C41.9038 24.8409 42.2397 25.1768 42.2397 25.5913V26.5849H42.2373C42.2373 26.6746 42.2212 26.766 42.187 26.8547C41.6385 28.2777 40.6761 29.3804 39.4517 30.1338C38.1945 30.9071 36.6647 31.3098 35.0304 31.3098C33.3963 31.3098 31.8663 30.9071 30.6093 30.1338C29.4023 29.391 28.4501 28.309 27.8982 26.9159C27.8489 26.816 27.8215 26.7037 27.8215 26.5849V25.5913C27.8215 25.1768 28.1574 24.8409 28.5719 24.8409H28.8149V24.5101H28.8172C28.8172 24.4317 28.8296 24.3515 28.8559 24.2727L32.6677 12.9216L32.3408 12.8293L31.1501 12.4956C29.8074 12.1208 27.3564 11.4374 25.5911 11.4374C24.8081 11.4374 24.1438 11.8778 23.4846 12.3149C22.6453 12.8714 21.8109 13.4244 20.6228 13.4244C19.4347 13.4244 18.6005 12.8714 17.761 12.3149C17.1016 11.8778 16.4373 11.4374 15.6546 11.4374C13.8884 11.4374 11.4344 12.1219 10.0923 12.4962L8.90635 12.8289L8.61851 12.9101L13.3561 24.1972C13.3999 24.2924 13.4244 24.3985 13.4244 24.5101V24.8409H13.6676C14.0821 24.8409 14.418 25.1768 14.418 25.5913V26.5849H14.4156C14.4156 26.6746 14.3995 26.766 14.3653 26.8547C13.817 28.2777 12.8546 29.3804 11.63 30.1338C10.373 30.9071 8.843 31.3098 7.20888 31.3098C5.57455 31.3098 4.0448 30.9071 2.78759 30.1338C1.58097 29.391 0.628606 28.309 0.0767422 26.9159C0.0276357 26.816 0 26.7037 0 26.5849V25.5913C0 25.1768 0.33588 24.8409 0.750416 24.8409H0.993397V24.5101H0.995523C0.995523 24.4317 1.00785 24.3515 1.03443 24.2727L4.71678 13.3072C4.19191 13.1822 3.72466 12.9671 3.33605 12.7082L3.33308 12.7052C2.49189 12.1442 1.98722 11.3258 1.98722 10.6867C1.98722 9.47288 2.37242 8.58514 2.98529 7.97226C3.69596 7.2616 4.68468 6.95548 5.71846 6.95548C6.01332 6.95548 6.34877 6.9929 6.73121 7.03541C8.01733 7.17869 9.92462 7.39106 12.3104 6.0586C13.9988 5.11558 15.5374 4.51376 16.9813 4.44701C18.2957 4.386 19.5008 4.75653 20.6228 5.69296C21.7446 4.75653 22.9498 4.386 24.2641 4.44701C25.7084 4.51376 27.2469 5.11558 28.9352 6.0586C31.3206 7.39106 33.2281 7.17869 34.5142 7.03541ZM35.0223 13.4091C34.7128 13.3893 34.4254 13.35 34.1222 13.2904L30.3159 24.6258V24.8409H39.745V24.6606L35.0223 13.4091ZM7.14872 13.2853C6.84855 13.3455 6.56518 13.3852 6.26183 13.4065L2.49423 24.6258V24.8409H11.9233V24.6606L7.14872 13.2853ZM19.3862 2.73785C19.3862 3.15238 19.0501 3.48826 18.6358 3.48826C18.2213 3.48826 17.8854 3.15238 17.8854 2.73785C17.8854 1.98382 18.1919 1.30037 18.687 0.804837V0.802073C19.1824 0.306756 19.8669 0 20.6228 0C21.3783 0 22.0635 0.306756 22.5586 0.802073C23.0539 1.29718 23.3607 1.98212 23.3607 2.73785C23.3607 3.15238 23.0246 3.48826 22.61 3.48826C22.1957 3.48826 21.8596 3.15238 21.8596 2.73785C21.8596 2.39602 21.7212 2.0865 21.4976 1.86307C21.2742 1.63944 20.9644 1.50104 20.6228 1.50104C20.281 1.50104 19.9715 1.63944 19.748 1.86307C19.5242 2.08501 19.3862 2.39495 19.3862 2.73785ZM29.3223 26.3417V26.4467C29.7534 27.4824 30.4794 28.2924 31.395 28.8557C32.4137 29.4826 33.672 29.8089 35.0304 29.8089C36.389 29.8089 37.6473 29.4826 38.666 28.8557C39.5816 28.2924 40.3075 27.4827 40.7389 26.4467V26.3417H40.4954H29.5655H29.3223ZM1.50083 26.3417V26.4467C1.93195 27.4824 2.6577 28.2922 3.5733 28.8557C4.59199 29.4826 5.85027 29.8089 7.20888 29.8089C8.56749 29.8089 9.82556 29.4826 10.8445 28.8557C11.7598 28.2924 12.486 27.4827 12.9171 26.4467V26.3417H12.6739H1.74381H1.50083Z" fill="#1253C0"/>
</svg>
