<svg width="39" height="40" viewBox="0 0 39 40" fill="none" xmlns="http://www.w3.org/2000/svg">
<path d="M25.8606 12.8627C25.8606 12.7787 25.8746 12.6979 25.9002 12.6221C24.2079 12.8171 22.0596 12.9316 19.699 12.9471H19.6957V12.9503L19.6944 12.9471H18.6289V12.9503L18.5475 12.9467C16.2182 12.9293 14.0989 12.8153 12.4258 12.6225C12.4513 12.6981 12.4652 12.7789 12.4652 12.8627C12.4711 15.5963 13.2607 18.0613 14.5334 19.8362C15.7406 21.5198 17.3785 22.5607 19.1616 22.5607C20.9453 22.5607 22.5834 21.52 23.7908 19.8366C25.0639 18.0615 25.8542 15.5963 25.8606 12.8627ZM21.5679 1.87824V6.2664C21.5679 6.70131 21.1985 7.0539 20.7429 7.0539C20.2873 7.0539 19.9179 6.70131 19.9179 6.2664V1.59915C19.6634 1.57899 19.4075 1.5687 19.1519 1.5687C18.9031 1.5687 18.6545 1.57815 18.407 1.59705V6.2664C18.407 6.70131 18.0376 7.0539 17.582 7.0539C17.1263 7.0539 16.757 6.70131 16.757 6.2664V1.8711C16.5178 1.93368 16.2822 2.00592 16.0516 2.08782C13.6103 2.95491 11.7038 4.9392 11.7038 8.04531V9.18414H11.7009L11.7005 9.20871C11.6864 9.64173 11.3067 9.98193 10.853 9.96849L10.6865 9.96702C10.3057 9.975 10.0135 10.058 9.8285 10.1963C9.7251 10.2736 9.65756 10.3778 9.63314 10.5008C9.85666 10.6323 10.6876 10.7976 11.9368 10.9731C13.6519 11.2148 15.9753 11.3585 18.5596 11.378L18.6276 11.3753L18.6289 11.3784H19.6922L19.6944 11.3753L19.6957 11.3784C22.3069 11.3612 24.6563 11.2169 26.3866 10.9731C27.6364 10.7972 28.4678 10.6323 28.6909 10.5006C28.6667 10.378 28.5991 10.274 28.4953 10.1966C28.31 10.0582 28.0183 9.975 27.6377 9.96702L27.5367 9.96681L27.4448 9.97164C26.9892 9.97164 26.6198 9.61905 26.6198 9.18414V8.04531C26.6198 4.94676 24.7038 2.95953 22.2537 2.08971C22.0293 2.01012 21.8005 1.93977 21.5679 1.87824ZM8.22448 26.3697C8.129 26.4174 8.02802 26.4453 7.92682 26.455L8.3677 38.1379H29.8263L30.2687 26.4323C30.2113 26.4178 30.155 26.397 30.1002 26.3697L27.3108 24.9747L26.8008 33.6374C26.8008 34.0723 26.4315 34.4249 25.9758 34.4249H12.3488C11.9148 34.4232 11.5511 34.099 11.5271 33.6804L11.0141 24.9745L8.22448 26.3697ZM7.15968 25.241C7.23382 25.1341 7.33656 25.0429 7.46416 24.9795L11.3839 23.0191C11.7861 22.8188 12.2824 22.9675 12.4923 23.3514C12.5484 23.4539 12.5783 23.5628 12.5844 23.6712L13.1267 32.8499H25.1979L25.7391 23.6712C25.764 23.2382 26.1523 22.9062 26.6059 22.9299C26.7452 22.9373 26.8743 22.9774 26.9859 23.0416L30.8605 24.9795C30.9872 25.0427 31.0895 25.133 31.1634 25.2391C31.2598 25.2454 31.3515 25.2672 31.4356 25.3023L33.8127 26.234C34.5693 26.5318 35.264 26.8661 35.816 27.33C36.4428 27.8569 36.8773 28.527 37.006 29.4441L38.3148 38.824C38.3733 39.2536 38.0558 39.6478 37.6057 39.7037C37.5701 39.7081 37.5346 39.7102 37.4994 39.7104V39.7129H30.6216C30.5763 39.7129 30.5318 39.7093 30.4885 39.7026C30.4451 39.7093 30.4007 39.7129 30.3554 39.7129H7.96818C7.89822 39.7129 7.83046 39.7047 7.76578 39.6889C7.71342 39.7007 7.6593 39.7079 7.60364 39.7097L7.5746 39.7102V39.7129H0.825C0.36938 39.7129 0 39.3603 0 38.9254C0 38.8672 0.00659989 38.8105 0.0191399 38.7559L1.31912 29.4441C1.37896 29.0136 1.50524 28.5961 1.68828 28.2129C1.87418 27.824 2.11816 27.4712 2.41142 27.1751C2.871 26.7112 3.38162 26.5696 3.93118 26.4172C4.13842 26.3598 4.35446 26.2998 4.5397 26.2231L6.76346 25.3023C6.89282 25.2491 7.02856 25.23 7.15968 25.241ZM6.31048 27.1988L5.19046 27.6625C4.90204 27.7819 4.64024 27.8544 4.38878 27.9241C4.06406 28.0142 3.762 28.0982 3.60998 28.2515C3.43794 28.4252 3.29384 28.6341 3.1834 28.8651C3.06878 29.1054 2.9887 29.3727 2.94932 29.6533L1.7644 38.1379H6.72232L6.31048 27.1988ZM33.1467 27.6688L31.8864 27.1753L31.4739 38.1379H36.56L35.3753 29.6533C35.3063 29.1614 35.0693 28.7988 34.727 28.5111C34.3295 28.1768 33.7883 27.9201 33.1888 27.6841L33.1467 27.6688ZM27.3548 12.4121C27.4487 12.5395 27.504 12.6951 27.504 12.8627C27.4969 15.9239 26.5982 18.7036 25.1504 20.7224C23.6375 22.8318 21.5222 24.1357 19.1616 24.1357C16.8014 24.1357 14.6863 22.8314 13.1738 20.722C11.7264 18.7032 10.8284 15.9237 10.8218 12.8627C10.8218 12.6951 10.8766 12.5399 10.9705 12.4125C9.44174 12.1325 8.41038 11.7073 8.10524 11.1483C8.0652 11.0781 8.03418 11.0019 8.01196 10.9202C7.98798 10.8324 7.97478 10.7459 7.97478 10.6646L7.97984 10.5309C8.0036 9.88848 8.29972 9.34626 8.81694 8.95986C9.14694 8.71311 9.56516 8.53881 10.0538 8.4546V8.04531C10.0538 4.17333 12.432 1.69932 15.4779 0.617401C16.6382 0.205171 17.8963 -0.000419358 19.1519 6.42201e-07C20.4076 0.000420642 21.6663 0.207271 22.8274 0.619291C25.8815 1.70352 28.2698 4.18131 28.2698 8.04531V8.45439C28.7584 8.5386 29.1766 8.71332 29.5068 8.96007C30.023 9.34563 30.3191 9.88743 30.3433 10.5304L30.3446 10.6105L30.3466 10.6646C30.3486 10.744 30.3351 10.8287 30.3114 10.9173L30.3098 10.9229C30.2907 10.9987 30.2606 11.0727 30.2227 11.1428C30.2053 11.1749 30.186 11.2056 30.1646 11.2346C29.8045 11.7512 28.8031 12.1466 27.3548 12.4121Z" fill="#1253C0"/>
</svg>
