<svg width="38" height="41" viewBox="0 0 38 41" fill="none" xmlns="http://www.w3.org/2000/svg">
<path d="M36.5012 35.1769C36.0078 33.554 33.3469 32.1943 30.7741 30.8797C30.0959 30.5326 29.4414 30.1988 28.8736 29.8808C28.5137 29.6776 28.0562 29.8066 27.8536 30.168C27.6504 30.5296 27.7794 30.9862 28.141 31.1888C28.7229 31.5149 29.3948 31.8584 30.0915 32.2147C32.0608 33.2217 34.7585 34.6003 35.0659 35.6135C35.7064 37.7215 35.7393 38.0244 35.7393 38.5914C35.7393 38.7969 35.7004 38.8892 35.6771 38.9123C35.5287 39.0556 34.8116 39.0301 34.3355 39.0135C34.1029 39.0055 33.8614 38.9972 33.6184 38.9972H3.6207C3.43937 38.9972 3.25846 39.0001 3.08159 39.004C2.52654 39.0129 1.76316 39.028 1.58012 38.8486C1.53676 38.8052 1.50891 38.7032 1.50211 38.5637C1.56291 38.2846 1.78484 37.2925 2.22744 35.5848C2.56629 34.2732 5.90214 32.3767 12.1072 29.9588C12.2594 29.9086 13.6167 29.4346 14.3682 28.432C14.6172 28.1013 14.5498 27.631 14.2181 27.3827C13.8861 27.1347 13.4173 27.2012 13.1682 27.5328C12.7694 28.0645 11.9233 28.438 11.5979 28.549C6.5943 30.4973 1.39497 32.8123 0.77465 35.2085C0.238517 37.2806 0.0255098 38.2959 0.015731 38.338C0.00595226 38.3881 0 38.4406 0 38.4916C0 39.0939 0.178569 39.5745 0.529543 39.9189C1.16091 40.5399 2.1052 40.5195 3.10923 40.5037C3.27738 40.5001 3.4483 40.4969 3.6207 40.4969H33.6184C33.8435 40.4969 34.067 40.5052 34.2829 40.5129C34.4983 40.5203 34.7111 40.5278 34.9181 40.5278C35.6156 40.5278 36.2508 40.4429 36.7187 39.9908C37.0637 39.6579 37.2393 39.1868 37.2393 38.5914C37.2393 37.8054 37.1664 37.3675 36.5012 35.1769ZM4.96167 14.4852C5.22038 13.9535 6.09027 13.499 6.6213 13.499L8.84789 13.5037C8.87106 13.6603 8.87106 13.9356 8.87042 14.1321V20.3648C8.87106 20.5635 8.87106 20.8433 8.84789 20.9985H6.6213C6.09112 20.9985 5.22039 20.544 4.9706 20.0319C4.16895 18.2634 4.16895 16.2341 4.96167 14.4852ZM18.6197 1.49998C24.2869 1.49998 28.9074 6.17743 29.1008 11.9992H28.3681C28.0232 11.9992 27.7314 12.087 27.4937 12.2535C26.8766 9.0879 24.9417 4.2508 18.8656 4.2508C12.7828 4.2508 10.6988 9.27157 9.98776 12.4762C9.96459 12.4492 9.94503 12.4199 9.91888 12.3938C9.65783 12.1319 9.30537 11.9992 8.87106 11.9992H8.1385C8.33195 6.17743 12.9522 1.49998 18.6197 1.49998ZM32.2685 14.4658C33.0704 16.2341 33.0704 18.2634 32.2777 20.0123C32.0189 20.544 31.1488 20.9985 30.618 20.9985L28.3914 20.994C28.3681 20.8373 28.3681 20.5614 28.3689 20.3648V14.1335C28.3681 13.9348 28.3681 13.6544 28.3921 13.499H30.618C31.1488 13.499 32.0189 13.9535 32.2685 14.4658ZM26.2622 18.7914C26.1559 18.9857 25.9608 19.108 25.8859 19.1184C25.6128 19.1566 25.3825 19.3418 25.2867 19.6014C24.8998 20.6505 24.4272 21.3892 23.9278 22.1715C23.7763 22.4083 23.6232 22.6483 23.4689 22.9004C23.0144 23.6472 22.6011 24.1513 22.1481 24.5014C20.2096 26.1079 18.8386 25.9159 18.7929 25.9085C18.7464 25.8993 18.6992 25.8949 18.6511 25.8949C16.9375 25.8949 15.301 24.572 15.236 24.5218C14.7245 24.167 14.2662 23.6406 13.7945 22.8666C13.6491 22.629 13.5049 22.4024 13.3634 22.1796C12.8427 21.3622 12.3936 20.6566 12.012 19.5961C11.9129 19.321 11.6234 19.1258 11.3323 19.1012C11.2605 19.0944 11.0609 18.976 10.9552 18.7817C10.8315 18.5559 10.6081 18.4322 10.3702 18.4081V15.749C10.371 15.749 10.3717 15.749 10.3725 15.749C10.7781 15.749 11.0917 15.5217 11.1006 15.1138C11.1015 15.0897 11.1472 12.7934 12.1693 10.4182C13.4877 7.35322 15.6852 5.79797 18.7823 5.79797C26.2616 5.79797 26.2847 14.5821 26.2856 14.9562C26.2862 15.3701 26.8689 15.7024 26.8689 15.7024V18.4164C26.623 18.4337 26.3891 18.5589 26.2622 18.7914ZM24.3673 30.669L20.7187 31.5368C20.3212 31.6282 19.9081 31.3695 19.8159 30.9803C19.7198 30.5776 19.9696 30.1727 20.3716 30.0766L24.0199 29.2097C24.0762 29.1969 24.1347 29.1895 24.1917 29.1895C24.536 29.1895 24.8434 29.4316 24.9229 29.7654C25.0188 30.168 24.7692 30.573 24.3673 30.669ZM6.6213 22.4984H8.87106C9.30537 22.4984 9.65783 22.3656 9.91952 22.1039C10.3732 21.6488 10.3717 20.9948 10.3702 20.3618V20.2876C10.4909 20.3662 10.6161 20.4368 10.746 20.4863C11.151 21.4972 11.6121 22.2225 12.0981 22.985C12.2345 23.2004 12.3742 23.4193 12.5137 23.6481C13.0985 24.6073 13.6918 25.2754 14.3315 25.7163C14.4139 25.7848 16.3571 27.3664 18.5918 27.394C18.6743 27.4061 18.8072 27.4189 18.9834 27.4189C19.7281 27.4189 21.2504 27.1923 23.0847 25.6721C23.6674 25.2223 24.197 24.5892 24.7497 23.681C24.8981 23.4389 25.0452 23.2072 25.1914 22.9799C25.6608 22.2448 26.1438 21.4874 26.5592 20.4659C26.6657 20.4187 26.7692 20.3588 26.8689 20.2914V20.3611C26.8674 20.994 26.8659 21.6479 27.3204 22.1039C27.4074 22.1908 27.5079 22.2584 27.6153 22.3169C27.5643 24.0815 27.124 27.505 25.4712 28.0938C25.1045 27.8402 24.6657 27.6895 24.1917 27.6895C24.0178 27.6895 23.843 27.7097 23.6727 27.7509L20.025 28.6178C18.8184 28.9052 18.0699 30.1208 18.3565 31.3274C18.5986 32.3459 19.4993 33.0568 20.5469 33.0568C20.7217 33.0568 20.8964 33.0359 21.0661 32.9953L24.7138 32.1276C25.9204 31.8404 26.6689 30.6255 26.3823 29.4188C26.3764 29.3942 26.3657 29.3723 26.3591 29.3485C28.6763 28.1553 29.0581 24.2263 29.1121 22.4984H30.618C31.6401 22.4984 33.0927 21.7635 33.635 20.6505C34.6152 18.4891 34.6152 16.0098 33.6261 13.8276C33.0921 12.7335 31.6395 11.9992 30.618 11.9992H30.6008C30.4057 5.35091 25.1134 0 18.6197 0C12.1259 0 6.83346 5.35091 6.63852 11.9992H6.6213C5.59921 11.9992 4.14642 12.7341 3.60497 13.847C2.62475 16.0083 2.62475 18.4876 3.61411 20.6709C4.14727 21.7642 5.59984 22.4984 6.6213 22.4984Z" fill="#1253C0"/>
</svg>
