<svg width="41" height="41" viewBox="0 0 41 41" fill="none" xmlns="http://www.w3.org/2000/svg">
<path d="M36.7472 38.997H3.74974C2.50932 38.997 1.49977 37.9876 1.49977 36.7472V14.9987H38.997V36.7472C38.997 37.9876 37.9876 38.997 36.7472 38.997ZM22.2548 32.8474H23.7257H26.4912C26.9051 32.8474 27.2412 32.5115 27.2412 32.0976C27.2412 31.6835 26.9051 31.3476 26.4912 31.3476H23.7257H22.2548H14.0054C13.5915 31.3476 13.2554 31.6835 13.2554 32.0976C13.2554 32.5115 13.5915 32.8474 14.0054 32.8474H22.2548ZM22.2548 27.7148H23.7257H26.4912C26.9051 27.7148 27.2412 27.3789 27.2412 26.965C27.2412 26.5509 26.9051 26.215 26.4912 26.215H23.7257H22.2548H14.0054C13.5915 26.215 13.2554 26.5509 13.2554 26.965C13.2554 27.3789 13.5915 27.7148 14.0054 27.7148H22.2548ZM22.2548 22.5824H23.7257H26.4912C26.9051 22.5824 27.2412 22.2465 27.2412 21.8326C27.2412 21.4185 26.9051 21.0826 26.4912 21.0826H23.7257H22.2548H14.0054C13.5915 21.0826 13.2554 21.4185 13.2554 21.8326C13.2554 22.2465 13.5915 22.5824 14.0054 22.5824H22.2548ZM3.74974 5.24951H8.99925V6.74949C8.99925 7.98991 10.0088 8.99925 11.2492 8.99925H13.499C13.9129 8.99925 14.249 8.66337 14.249 8.24926C14.249 7.83536 13.9129 7.49948 13.499 7.49948H11.2492C10.836 7.49948 10.4992 7.16275 10.4992 6.74949V2.24976C10.4992 1.8365 10.836 1.49977 11.2492 1.49977H11.999C12.4123 1.49977 12.749 1.8365 12.749 2.24976V3.74974C12.3351 3.74974 11.999 4.08562 11.999 4.49973C11.999 4.91363 12.3351 5.24951 12.749 5.24951H26.248V6.74949C26.248 7.98991 27.2575 8.99925 28.4977 8.99925H30.7477C31.1616 8.99925 31.4977 8.66337 31.4977 8.24926C31.4977 7.83536 31.1616 7.49948 30.7477 7.49948H28.4977C28.0847 7.49948 27.7479 7.16275 27.7479 6.74949V2.24976C27.7479 1.8365 28.0847 1.49977 28.4977 1.49977H29.2477C29.661 1.49977 29.9977 1.8365 29.9977 2.24976V3.74974C29.5838 3.74974 29.2477 4.08562 29.2477 4.49973C29.2477 4.91363 29.5838 5.24951 29.9977 5.24951H36.7472C37.9876 5.24951 38.997 6.25906 38.997 7.49948V13.499H1.49977V7.49948C1.49977 6.25906 2.50932 5.24951 3.74974 5.24951ZM36.7472 3.74974H31.4977V2.24976C31.4977 1.00934 30.4881 0 29.2477 0H28.4977C27.2575 0 26.248 1.00934 26.248 2.24976V3.74974H14.249V2.24976C14.249 1.00934 13.2394 0 11.999 0H11.2492C10.0088 0 8.99925 1.00934 8.99925 2.24976V3.74974H3.74974C1.68216 3.74974 0 5.4319 0 7.49948V36.7472C0 38.8148 1.68216 40.4969 3.74974 40.4969H36.7472C38.8148 40.4969 40.4969 38.8148 40.4969 36.7472V7.49948C40.4969 5.4319 38.8148 3.74974 36.7472 3.74974Z" fill="#1253C0"/>
</svg>
