<svg width="40" height="39" viewBox="0 0 40 39" fill="none" xmlns="http://www.w3.org/2000/svg">
<path d="M37.724 2.72148L3.64649 36.8752H37.724V33.1888H34.4249C33.9856 33.1888 33.6294 32.8319 33.6294 32.3916C33.6294 31.9513 33.9856 31.5944 34.4249 31.5944H37.724V27.8443H35.9811C35.5463 27.8443 35.1938 27.4873 35.1938 27.0473C35.1938 26.6072 35.5463 26.2503 35.9811 26.2503H37.724V22.5012H34.4249C33.9856 22.5012 33.6294 22.1443 33.6294 21.704C33.6294 21.2638 33.9856 20.9068 34.4249 20.9068H37.724V17.1579H35.9811C35.5463 17.1579 35.1938 16.801 35.1938 16.361C35.1938 15.9209 35.5463 15.564 35.9811 15.564H37.724V11.8147H34.4249C33.9856 11.8147 33.6294 11.4578 33.6294 11.0175C33.6294 10.5772 33.9856 10.2203 34.4249 10.2203H37.724V2.72148ZM21.0843 4.56797L23.5546 7.04349L25.3679 5.22612L22.8977 2.75039L21.0843 4.56797ZM24.2747 8.57621C24.2393 8.64084 24.1941 8.70185 24.1394 8.75669C24.0847 8.81154 24.0238 8.85661 23.9593 8.89211L8.39926 24.4874L8.39693 24.485C8.31018 24.5724 8.20158 24.6406 8.07622 24.6804L2.87504 26.3353C2.70811 26.4046 2.517 26.4178 2.3314 26.3591C1.91291 26.2269 1.68065 25.779 1.81258 25.3596L3.47723 20.1026C3.51307 19.9764 3.58053 19.8569 3.67979 19.7574L22.3354 1.05972C22.6459 0.748502 23.1495 0.748502 23.46 1.05972L27.0549 4.66257C27.3654 4.97379 27.3654 5.47846 27.0549 5.78968L24.2747 8.57621ZM22.43 8.1706L19.9597 5.69508L4.94101 20.7476L3.79136 24.3783L7.40658 23.228L22.43 8.1706ZM29.4019 21.8837L22.766 28.5347H29.4019V21.8837ZM20.2836 28.7683L29.6261 19.4047C29.7707 19.2551 29.9731 19.1622 30.1973 19.1622C30.6366 19.1622 30.9927 19.5191 30.9927 19.9594V29.3319C30.9927 29.7722 30.6366 30.1291 30.1973 30.1291H20.8459C20.6425 30.1289 20.4389 30.0511 20.2836 29.8955C19.9731 29.5842 19.9731 29.0796 20.2836 28.7683ZM1.16416 37.1088L37.9482 0.242556C38.0929 0.0928984 38.2952 0 38.5195 0C38.9587 0 39.3149 0.356926 39.3149 0.797184V37.6724C39.3149 38.1126 38.9587 38.4695 38.5195 38.4695H1.72646C1.52305 38.4693 1.31942 38.3915 1.16416 38.2359C0.853627 37.9247 0.853627 37.42 1.16416 37.1088Z" fill="#1253C0"/>
</svg>
