<svg width="44" height="48" viewBox="0 0 44 48" fill="none" xmlns="http://www.w3.org/2000/svg">
<path d="M29.6132 15.6743C29.6132 15.5743 29.6292 15.478 29.6582 15.3878C27.7352 15.62 25.294 15.7563 22.6115 15.7748H22.6077V15.7785L22.6062 15.7748H21.3955V15.7785L21.303 15.7743C18.656 15.7535 16.2477 15.6178 14.3465 15.3883C14.3755 15.4783 14.3912 15.5745 14.3912 15.6743C14.398 18.9285 15.2952 21.863 16.7415 23.976C18.1132 25.9803 19.9745 27.2195 22.0007 27.2195C24.0278 27.2195 25.8892 25.9805 27.2612 23.9765C28.708 21.8633 29.606 18.9285 29.6132 15.6743ZM24.7352 2.59751V7.82151C24.7352 8.33926 24.3155 8.75901 23.7977 8.75901C23.28 8.75901 22.8602 8.33926 22.8602 7.82151V2.26526C22.571 2.24126 22.2802 2.22901 21.9897 2.22901C21.707 2.22901 21.4245 2.24026 21.1432 2.26276V7.82151C21.1432 8.33926 20.7235 8.75901 20.2057 8.75901C19.688 8.75901 19.2682 8.33926 19.2682 7.82151V2.58901C18.9965 2.66351 18.7287 2.74951 18.4667 2.84701C15.6925 3.87926 13.526 6.24151 13.526 9.93926V11.295H13.5227L13.5222 11.3243C13.5062 11.8398 13.0747 12.2448 12.5592 12.2288L12.37 12.227C11.9372 12.2365 11.6052 12.3353 11.395 12.5C11.2775 12.592 11.2007 12.716 11.173 12.8625C11.427 13.019 12.3712 13.2158 13.7907 13.4248C15.7397 13.7125 18.38 13.8835 21.3167 13.9068L21.394 13.9035L21.3955 13.9073H22.6038L22.6062 13.9035L22.6077 13.9073C25.575 13.8868 28.2447 13.715 30.211 13.4248C31.6312 13.2153 32.576 13.019 32.8295 12.8623C32.802 12.7163 32.7252 12.5925 32.6072 12.5003C32.3967 12.3355 32.0652 12.2365 31.6327 12.227L31.518 12.2268L31.4135 12.2325C30.8957 12.2325 30.476 11.8128 30.476 11.295V9.93926C30.476 6.25051 28.2987 3.88476 25.5145 2.84926C25.2595 2.75451 24.9995 2.67076 24.7352 2.59751ZM9.57225 31.754C9.46375 31.8108 9.349 31.844 9.234 31.8555L9.735 45.7638H34.1197L34.6225 31.8285C34.5572 31.8113 34.4932 31.7865 34.431 31.754L31.2612 30.0933L30.6817 40.406C30.6817 40.9238 30.262 41.3435 29.7442 41.3435H14.259C13.7657 41.3415 13.3525 40.9555 13.3252 40.4573L12.7422 30.093L9.57225 31.754ZM8.36225 30.4103C8.4465 30.283 8.56325 30.1745 8.70825 30.099L13.1625 27.7653C13.6195 27.5268 14.1835 27.7038 14.422 28.1608C14.4857 28.2828 14.5197 28.4125 14.5267 28.5415L15.143 39.4685H28.8602L29.4752 28.5415C29.5035 28.026 29.9447 27.6308 30.4602 27.659C30.6185 27.6678 30.7652 27.7155 30.892 27.792L35.295 30.099C35.439 30.1743 35.5552 30.2818 35.6392 30.408C35.7487 30.4155 35.853 30.4415 35.9485 30.4833L38.6497 31.5925C39.5095 31.947 40.299 32.345 40.9262 32.8973C41.6385 33.5245 42.1322 34.3223 42.2785 35.414L43.7657 46.5805C43.8322 47.092 43.4715 47.5613 42.96 47.6278C42.9195 47.633 42.8792 47.6355 42.8392 47.6358V47.6388H35.0235C34.972 47.6388 34.9215 47.6345 34.8722 47.6265C34.823 47.6345 34.7725 47.6388 34.721 47.6388H9.281C9.2015 47.6388 9.1245 47.629 9.051 47.6103C8.9915 47.6243 8.93 47.6328 8.86675 47.635L8.83375 47.6355V47.6388H1.16375C0.646 47.6388 0.22625 47.219 0.22625 46.7013C0.22625 46.632 0.23375 46.5645 0.248 46.4995L1.72525 35.414C1.79325 34.9015 1.93675 34.4045 2.14475 33.9483C2.356 33.4853 2.63325 33.0653 2.9665 32.7128C3.48875 32.1605 4.069 31.992 4.6935 31.8105C4.929 31.7423 5.1745 31.6708 5.385 31.5795L7.912 30.4833C8.059 30.42 8.21325 30.3973 8.36225 30.4103ZM7.39725 32.741L6.1245 33.293C5.79675 33.4353 5.49925 33.5215 5.2135 33.6045C4.8445 33.7118 4.50125 33.8118 4.3285 33.9943C4.133 34.201 3.96925 34.4498 3.84375 34.7248C3.7135 35.0108 3.6225 35.329 3.57775 35.663L2.23125 45.7638H7.86525L7.39725 32.741ZM37.893 33.3005L36.4607 32.713L35.992 45.7638H41.7717L40.4255 35.663C40.347 35.0775 40.0777 34.6458 39.6887 34.3033C39.237 33.9053 38.622 33.5998 37.9407 33.3188L37.893 33.3005ZM31.3112 15.1378C31.418 15.2895 31.4807 15.4748 31.4807 15.6743C31.4727 19.3185 30.4515 22.6278 28.8062 25.031C27.087 27.5423 24.6832 29.0945 22.0007 29.0945C19.3188 29.0945 16.9152 27.5418 15.1965 25.0305C13.5517 22.6273 12.5312 19.3183 12.5237 15.6743C12.5237 15.4748 12.586 15.29 12.6927 15.1383C10.9555 14.805 9.7835 14.2988 9.43675 13.6333C9.39125 13.5498 9.356 13.459 9.33075 13.3618C9.3035 13.2573 9.2885 13.1543 9.2885 13.0575L9.29425 12.8983C9.32125 12.1335 9.65775 11.488 10.2455 11.028C10.6205 10.7343 11.0957 10.5268 11.651 10.4265V9.93926C11.651 5.32976 14.3535 2.38451 17.8147 1.09651C19.1332 0.605762 20.563 0.361012 21.9897 0.361512C23.4167 0.362012 24.847 0.608262 26.1665 1.09876C29.637 2.38951 32.351 5.33926 32.351 9.93926V10.4263C32.9062 10.5265 33.3815 10.7345 33.7567 11.0283C34.3432 11.4873 34.6797 12.1323 34.7072 12.8978L34.7087 12.993L34.711 13.0575C34.7132 13.152 34.698 13.2528 34.671 13.3583L34.6692 13.365C34.6475 13.4553 34.6132 13.5433 34.5702 13.6268C34.5505 13.665 34.5285 13.7015 34.5042 13.736C34.095 14.351 32.957 14.8218 31.3112 15.1378Z" fill="white"/>
</svg>
