<svg width="44" height="48" viewBox="0 0 44 48" fill="none" xmlns="http://www.w3.org/2000/svg">
<path d="M29.6133 15.6743C29.6133 15.5743 29.6293 15.4781 29.6583 15.3878C27.7353 15.6201 25.294 15.7563 22.6115 15.7748H22.6078V15.7786L22.6063 15.7748H21.3955V15.7786L21.303 15.7743C18.656 15.7536 16.2478 15.6178 14.3465 15.3883C14.3755 15.4783 14.3913 15.5746 14.3913 15.6743C14.398 18.9286 15.2953 21.8631 16.7415 23.9761C18.1133 25.9803 19.9745 27.2196 22.0008 27.2196C24.0278 27.2196 25.8893 25.9806 27.2613 23.9766C28.708 21.8633 29.606 18.9286 29.6133 15.6743ZM24.7353 2.59757V7.82157C24.7353 8.33932 24.3155 8.75907 23.7978 8.75907C23.28 8.75907 22.8603 8.33932 22.8603 7.82157V2.26532C22.571 2.24132 22.2803 2.22907 21.9898 2.22907C21.707 2.22907 21.4245 2.24032 21.1433 2.26282V7.82157C21.1433 8.33932 20.7235 8.75907 20.2058 8.75907C19.688 8.75907 19.2683 8.33932 19.2683 7.82157V2.58907C18.9965 2.66357 18.7288 2.74957 18.4668 2.84707C15.6925 3.87932 13.526 6.24157 13.526 9.93932V11.2951H13.5228L13.5223 11.3243C13.5063 11.8398 13.0748 12.2448 12.5593 12.2288L12.37 12.2271C11.9373 12.2366 11.6053 12.3353 11.395 12.5001C11.2775 12.5921 11.2008 12.7161 11.173 12.8626C11.427 13.0191 12.3713 13.2158 13.7908 13.4248C15.7398 13.7126 18.38 13.8836 21.3168 13.9068L21.394 13.9036L21.3955 13.9073H22.6038L22.6063 13.9036L22.6078 13.9073C25.575 13.8868 28.2448 13.7151 30.211 13.4248C31.6313 13.2153 32.576 13.0191 32.8295 12.8623C32.802 12.7163 32.7253 12.5926 32.6073 12.5003C32.3968 12.3356 32.0653 12.2366 31.6328 12.2271L31.518 12.2268L31.4135 12.2326C30.8958 12.2326 30.476 11.8128 30.476 11.2951V9.93932C30.476 6.25057 28.2988 3.88482 25.5145 2.84932C25.2595 2.75457 24.9995 2.67082 24.7353 2.59757ZM9.57226 31.7541C9.46376 31.8108 9.34901 31.8441 9.23401 31.8556L9.73501 45.7638H34.1198L34.6225 31.8286C34.5573 31.8113 34.4933 31.7866 34.431 31.7541L31.2613 30.0933L30.6818 40.4061C30.6818 40.9238 30.262 41.3436 29.7443 41.3436H14.259C13.7658 41.3416 13.3525 40.9556 13.3253 40.4573L12.7423 30.0931L9.57226 31.7541ZM8.36226 30.4103C8.44651 30.2831 8.56326 30.1746 8.70826 30.0991L13.1625 27.7653C13.6195 27.5268 14.1835 27.7038 14.422 28.1608C14.4858 28.2828 14.5198 28.4126 14.5268 28.5416L15.143 39.4686H28.8603L29.4753 28.5416C29.5035 28.0261 29.9448 27.6308 30.4603 27.6591C30.6185 27.6678 30.7653 27.7156 30.892 27.7921L35.295 30.0991C35.439 30.1743 35.5553 30.2818 35.6393 30.4081C35.7488 30.4156 35.853 30.4416 35.9485 30.4833L38.6498 31.5926C39.5095 31.9471 40.299 32.3451 40.9263 32.8973C41.6385 33.5246 42.1323 34.3223 42.2785 35.4141L43.7658 46.5806C43.8323 47.0921 43.4715 47.5613 42.96 47.6278C42.9195 47.6331 42.8793 47.6356 42.8393 47.6358V47.6388H35.0235C34.972 47.6388 34.9215 47.6346 34.8723 47.6266C34.823 47.6346 34.7725 47.6388 34.721 47.6388H9.28101C9.20151 47.6388 9.12451 47.6291 9.05101 47.6103C8.99151 47.6243 8.93001 47.6328 8.86676 47.6351L8.83376 47.6356V47.6388H1.16376C0.646007 47.6388 0.226257 47.2191 0.226257 46.7013C0.226257 46.6321 0.233757 46.5646 0.248007 46.4996L1.72526 35.4141C1.79326 34.9016 1.93676 34.4046 2.14476 33.9483C2.35601 33.4853 2.63326 33.0653 2.96651 32.7128C3.48876 32.1606 4.06901 31.9921 4.69351 31.8106C4.92901 31.7423 5.17451 31.6708 5.38501 31.5796L7.91201 30.4833C8.05901 30.4201 8.21326 30.3973 8.36226 30.4103ZM7.39726 32.7411L6.12451 33.2931C5.79676 33.4353 5.49926 33.5216 5.21351 33.6046C4.84451 33.7118 4.50126 33.8118 4.32851 33.9943C4.13301 34.2011 3.96926 34.4498 3.84376 34.7248C3.71351 35.0108 3.62251 35.3291 3.57776 35.6631L2.23126 45.7638H7.86526L7.39726 32.7411ZM37.893 33.3006L36.4608 32.7131L35.992 45.7638H41.7718L40.4255 35.6631C40.347 35.0776 40.0778 34.6458 39.6888 34.3033C39.237 33.9053 38.622 33.5998 37.9408 33.3188L37.893 33.3006ZM31.3113 15.1378C31.418 15.2896 31.4808 15.4748 31.4808 15.6743C31.4728 19.3186 30.4515 22.6278 28.8063 25.0311C27.087 27.5423 24.6833 29.0946 22.0008 29.0946C19.3188 29.0946 16.9153 27.5418 15.1965 25.0306C13.5518 22.6273 12.5313 19.3183 12.5238 15.6743C12.5238 15.4748 12.586 15.2901 12.6928 15.1383C10.9555 14.8051 9.78351 14.2988 9.43676 13.6333C9.39126 13.5498 9.35601 13.4591 9.33076 13.3618C9.30351 13.2573 9.28851 13.1543 9.28851 13.0576L9.29426 12.8983C9.32126 12.1336 9.65776 11.4881 10.2455 11.0281C10.6205 10.7343 11.0958 10.5268 11.651 10.4266V9.93932C11.651 5.32982 14.3535 2.38457 17.8148 1.09657C19.1333 0.605823 20.563 0.361073 21.9898 0.361573C23.4168 0.362073 24.847 0.608323 26.1665 1.09882C29.637 2.38957 32.351 5.33932 32.351 9.93932V10.4263C32.9063 10.5266 33.3815 10.7346 33.7568 11.0283C34.3433 11.4873 34.6798 12.1323 34.7073 12.8978L34.7088 12.9931L34.711 13.0576C34.7133 13.1521 34.698 13.2528 34.671 13.3583L34.6693 13.3651C34.6475 13.4553 34.6133 13.5433 34.5703 13.6268C34.5505 13.6651 34.5285 13.7016 34.5043 13.7361C34.095 14.3511 32.957 14.8218 31.3113 15.1378Z" fill="#1253C0"/>
</svg>
