<svg width="31" height="31" viewBox="0 0 31 31" fill="none" xmlns="http://www.w3.org/2000/svg">
<path d="M7.46294 13.7778C3.98118 13.7778 1.14822 10.9449 1.14822 7.46311C1.14822 3.98134 3.98118 1.14822 7.46294 1.14822C10.9447 1.14822 13.7778 3.98134 13.7778 7.46311C13.7778 10.9449 10.9447 13.7778 7.46294 13.7778ZM23.5371 25.3741C22.9664 25.3741 22.5037 25.8369 22.5037 26.4074C22.5037 26.9781 22.9664 27.4408 23.5371 27.4408C24.1077 27.4408 24.5704 26.9781 24.5704 26.4074C24.5704 25.8369 24.1077 25.3741 23.5371 25.3741ZM23.5371 21.7C24.1077 21.7 24.5704 21.2374 24.5704 20.6667C24.5704 20.0961 24.1077 19.6333 23.5371 19.6333C22.9664 19.6333 22.5037 20.0961 22.5037 20.6667C22.5037 21.2374 22.9664 21.7 23.5371 21.7ZM26.9816 22.9631H20.0926C19.7751 22.9631 19.5184 23.2196 19.5184 23.5371C19.5184 23.8545 19.7751 24.1112 20.0926 24.1112H26.9816C27.2989 24.1112 27.5555 23.8545 27.5555 23.5371C27.5555 23.2196 27.2989 22.9631 26.9816 22.9631ZM20.0926 8.03706H26.9816C27.2989 8.03706 27.5555 7.78043 27.5555 7.46311C27.5555 7.14562 27.2989 6.889 26.9816 6.889H20.0926C19.7751 6.889 19.5184 7.14562 19.5184 7.46311C19.5184 7.78043 19.7751 8.03706 20.0926 8.03706ZM10.7392 20.2608C10.5148 20.0364 10.1519 20.0364 9.92749 20.2608L7.46294 22.7254L4.9984 20.2608C4.774 20.0364 4.41111 20.0364 4.18671 20.2608C3.9623 20.4854 3.9623 20.8481 4.18671 21.0727L6.65125 23.5371L4.18671 26.0016C3.9623 26.226 3.9623 26.5889 4.18671 26.8133C4.29867 26.9252 4.44561 26.9816 4.59256 26.9816C4.7395 26.9816 4.88645 26.9252 4.9984 26.8133L7.46294 24.3489L9.92749 26.8133C10.0394 26.9252 10.1864 26.9816 10.3333 26.9816C10.4803 26.9816 10.6272 26.9252 10.7392 26.8133C10.9637 26.5889 10.9637 26.226 10.7392 26.0016L8.27464 23.5371L10.7392 21.0727C10.9637 20.8481 10.9637 20.4854 10.7392 20.2608ZM10.9074 6.889H8.03706V4.01861C8.03706 3.70112 7.78043 3.4445 7.46294 3.4445C7.14546 3.4445 6.88883 3.70112 6.88883 4.01861V6.889H4.01845C3.70112 6.889 3.4445 7.14562 3.4445 7.46311C3.4445 7.78043 3.70112 8.03706 4.01845 8.03706H6.88883V10.9074C6.88883 11.2249 7.14546 11.4816 7.46294 11.4816C7.78043 11.4816 8.03706 11.2249 8.03706 10.9074V8.03706H10.9074C11.2249 8.03706 11.4816 7.78043 11.4816 7.46311C11.4816 7.14562 11.2249 6.889 10.9074 6.889ZM23.5371 29.8519C20.0553 29.8519 17.2222 27.0188 17.2222 23.5371C17.2222 20.0553 20.0553 17.2223 23.5371 17.2223C27.0188 17.2223 29.8518 20.0553 29.8518 23.5371C29.8518 27.0188 27.0188 29.8519 23.5371 29.8519ZM23.5371 16.0741C19.4221 16.0741 16.0741 19.4221 16.0741 23.5371C16.0741 27.652 19.4221 31 23.5371 31C27.652 31 31 27.652 31 23.5371C31 19.4221 27.652 16.0741 23.5371 16.0741ZM23.5371 1.14822C27.0188 1.14822 29.8518 3.98134 29.8518 7.46311C29.8518 10.9449 27.0188 13.7778 23.5371 13.7778C20.0553 13.7778 17.2222 10.9449 17.2222 7.46311C17.2222 3.98134 20.0553 1.14822 23.5371 1.14822ZM23.5371 14.9261C27.652 14.9261 31 11.5781 31 7.46311C31 3.348 27.652 0 23.5371 0C19.4221 0 16.0741 3.348 16.0741 7.46311C16.0741 11.5781 19.4221 14.9261 23.5371 14.9261ZM7.46294 29.8519C3.98118 29.8519 1.14822 27.0188 1.14822 23.5371C1.14822 20.0553 3.98118 17.2223 7.46294 17.2223C10.9447 17.2223 13.7778 20.0553 13.7778 23.5371C13.7778 27.0188 10.9447 29.8519 7.46294 29.8519ZM7.46294 16.0741C3.348 16.0741 0 19.4221 0 23.5371C0 27.652 3.348 31 7.46294 31C11.5779 31 14.9259 27.652 14.9259 23.5371C14.9259 19.4221 11.5779 16.0741 7.46294 16.0741ZM7.46294 0C3.348 0 0 3.348 0 7.46311C0 11.5781 3.348 14.9261 7.46294 14.9261C11.5779 14.9261 14.9259 11.5781 14.9259 7.46311C14.9259 3.348 11.5779 0 7.46294 0Z" fill="white"/>
</svg>
