<svg width="20" height="20" viewBox="0 0 20 20" fill="none" xmlns="http://www.w3.org/2000/svg">
<path d="M9.99993 18.932C12.45 18.932 14.6777 17.9296 16.2927 16.3144C17.9076 14.6994 18.91 12.4718 18.91 10.0212V9.97916C18.91 7.52856 17.9076 5.30096 16.2927 3.68596C14.6777 2.07076 12.45 1.06836 9.99993 1.06836C7.54993 1.06836 5.32223 2.07086 3.70723 3.68596C2.09243 5.30096 1.09003 7.52856 1.09003 9.97916V10.0212C1.09003 12.4718 2.09243 14.6994 3.70723 16.3144C5.32223 17.9295 7.54993 18.932 9.99993 18.932ZM11.2771 9.58326C11.4102 9.99376 11.3406 10.4616 11.0503 10.8221C10.5932 11.3897 9.75933 11.4796 9.19173 11.0225C8.92563 10.8082 8.76453 10.5112 8.71553 10.1976L8.71133 10.1683L8.71103 10.1661C8.70423 10.1117 8.70073 10.0564 8.70073 10.0002C8.70073 9.27136 9.29393 8.67836 10.0227 8.67836C10.6059 8.67836 11.1021 9.05806 11.2771 9.58326ZM11.4302 11.6937L13.9838 13.7503C14.1733 13.9029 14.4509 13.8731 14.6033 13.6836C14.7559 13.4941 14.7261 13.2165 14.5365 13.064L11.982 11.0068C12.1378 10.7049 12.2258 10.3626 12.2258 10.0002C12.2258 9.73256 12.1778 9.47606 12.09 9.23856C11.9576 8.87316 11.7269 8.53826 11.4027 8.27716C11.1197 8.04926 10.797 7.90296 10.4632 7.83516V2.95036C10.4632 2.70706 10.2659 2.50976 10.0227 2.50976C9.77943 2.50976 9.58203 2.70706 9.58203 2.95036V7.83516C9.09583 7.93356 8.63983 8.19546 8.30503 8.61116C7.92853 9.07856 7.77483 9.65426 7.82963 10.2091C7.93523 11.3262 8.87843 12.2033 10.0227 12.2033C10.5574 12.2033 11.0482 12.0117 11.4302 11.6937ZM10.0227 16.1688C9.77943 16.1688 9.58203 16.3663 9.58203 16.6094V17.4906C9.58203 17.7339 9.77943 17.9312 10.0227 17.9312C10.2659 17.9312 10.4632 17.7339 10.4632 17.4906V16.6094C10.4632 16.3663 10.2659 16.1688 10.0227 16.1688ZM17.5131 9.55956H16.6318C16.3886 9.55956 16.1913 9.75696 16.1913 10.0002C16.1913 10.2435 16.3886 10.4408 16.6318 10.4408H17.5131C17.7563 10.4408 17.9537 10.2435 17.9537 10.0002C17.9537 9.75696 17.7563 9.55956 17.5131 9.55956ZM3.41343 9.55956H2.53213C2.28903 9.55956 2.09163 9.75696 2.09163 10.0002C2.09163 10.2435 2.28903 10.4408 2.53213 10.4408H3.41343C3.65663 10.4408 3.85413 10.2435 3.85413 10.0002C3.85413 9.75696 3.65663 9.55956 3.41343 9.55956ZM16.8229 16.8446C15.0723 18.5955 12.6569 19.682 9.99993 19.682C7.34313 19.682 4.92763 18.5953 3.17703 16.8446C1.42663 15.094 0.340027 12.6787 0.340027 10.0212V9.97916C0.340027 7.32166 1.42663 4.90636 3.17703 3.15576C4.92763 1.40506 7.34313 0.318359 9.99993 0.318359C12.6569 0.318359 15.0723 1.40486 16.8229 3.15576C18.5735 4.90646 19.66 7.32166 19.66 9.97916V10.0212C19.66 12.6787 18.5735 15.0939 16.8229 16.8446Z" fill="white" fill-opacity="0.5"/>
</svg>
