<svg width="24" height="24" viewBox="0 0 24 24" fill="none" xmlns="http://www.w3.org/2000/svg">
<path d="M12 23.1118C5.873 23.1118 0.888197 18.127 0.888197 12C0.888197 5.873 5.873 0.888197 12 0.888197C18.127 0.888197 23.1118 5.873 23.1118 12C23.1118 18.127 18.127 23.1118 12 23.1118ZM12 13.3339C11.2645 13.3339 10.6661 12.7355 10.6661 12C10.6661 11.2645 11.2645 10.6661 12 10.6661C12.7355 10.6661 13.3339 11.2645 13.3339 12C13.3339 12.7355 12.7355 13.3339 12 13.3339ZM12.4441 9.82314V2.66615C12.4441 2.4215 12.2462 2.22205 12 2.22205C11.7554 2.22205 11.5559 2.4215 11.5559 2.66615V9.82314C10.6864 10.0008 10.0008 10.6864 9.82314 11.5559H5.77795C5.53331 11.5559 5.33385 11.7554 5.33385 12C5.33385 12.2446 5.53331 12.4441 5.77795 12.4441H9.82314C10.0288 13.457 10.9264 14.2221 12 14.2221C13.2248 14.2221 14.2221 13.2248 14.2221 12C14.2221 10.9264 13.457 10.0288 12.4441 9.82314ZM12 0C5.38372 0 0 5.38372 0 12C0 18.6163 5.38372 24 12 24C18.6163 24 24 18.6163 24 12C24 5.38372 18.6163 0 12 0Z" fill="#1253C0"/>
</svg>
