<svg width="48" height="44" viewBox="0 0 48 44" fill="none" xmlns="http://www.w3.org/2000/svg">
<path d="M2.55179 10.9728H10.2605H16.653V2.75806H2.55179V10.9728ZM11.198 33.0276V41.2418H27.5773V33.0276H11.198ZM9.32304 41.2418V33.0276H2.55179V41.2418H9.32304ZM29.4523 33.0276V41.2418H45.4485V33.0276H29.4523ZM11.198 12.8491V21.0626H27.5773V12.8491H11.198ZM9.32304 21.0626V12.8491H2.55179V21.0626H9.32304ZM29.4523 12.8491V21.0626H33.5643L33.5945 21.0631H45.4485V12.8491H29.4523ZM18.528 22.9381V31.1518H28.5148H32.6268V22.9381H28.5148H18.528ZM16.653 31.1518V22.9381H10.2605H2.55179V31.1518H10.2605H16.653ZM18.528 10.9728H28.5148H32.6268V2.75806H18.528V10.9728ZM46.386 43.1168H28.5148H10.2605H1.61429C1.09654 43.1168 0.676788 42.6971 0.676788 42.1793V32.0901V32.0893V22.0006V22.0001V11.9116V11.9103V1.82056C0.676788 1.30281 1.09654 0.883057 1.61429 0.883057H33.5643C34.082 0.883057 34.5018 1.30281 34.5018 1.82056V10.9741H46.386C46.9038 10.9741 47.3235 11.3938 47.3235 11.9116V22.0006C47.3235 22.5183 46.9038 22.9381 46.386 22.9381H34.5018V31.1526H46.386C46.9038 31.1526 47.3235 31.5723 47.3235 32.0901V42.1793C47.3235 42.6971 46.9038 43.1168 46.386 43.1168Z" fill="white"/>
</svg>
