<svg width="20" height="20" viewBox="0 0 20 20" fill="none" xmlns="http://www.w3.org/2000/svg">
<path d="M6.62078 12.6668L1.43443 17.853V13.5268C1.43443 13.2482 1.20875 13.0231 0.93055 13.0231C0.65248 13.0231 0.4268 13.2482 0.4268 13.5268V19.0694C0.4268 19.3478 0.65248 19.5733 0.93055 19.5733H6.4731C6.75117 19.5733 6.97698 19.3478 6.97698 19.0694C6.97698 18.7907 6.75117 18.5655 6.4731 18.5655H2.14696L7.33318 13.3793C7.53013 13.1822 7.53013 12.8638 7.33318 12.6668C7.13623 12.4698 6.81773 12.4698 6.62078 12.6668Z" fill="white"/>
<path d="M17.8532 18.5655H13.527C13.249 18.5655 13.0232 18.7907 13.0232 19.0694C13.0232 19.3478 13.249 19.5733 13.527 19.5733H19.0694C19.3477 19.5733 19.5733 19.3478 19.5733 19.0694V13.5268C19.5733 13.2482 19.3477 13.0231 19.0694 13.0231C18.7914 13.0231 18.5657 13.2482 18.5657 13.5268V17.853L13.3794 12.6668C13.1824 12.4698 12.8639 12.4698 12.667 12.6668C12.47 12.8638 12.47 13.1822 12.667 13.3793L17.8532 18.5655Z" fill="white"/>
<path d="M2.14696 1.43452H6.4731C6.75117 1.43452 6.97698 1.20936 6.97698 0.930638C6.97698 0.652048 6.75117 0.426758 6.4731 0.426758H0.93055C0.65248 0.426758 0.4268 0.652048 0.4268 0.930638V6.47306C0.4268 6.75152 0.65248 6.97694 0.93055 6.97694C1.20875 6.97694 1.43443 6.75152 1.43443 6.47306V2.14692L6.62078 7.33314C6.71906 7.43142 6.84802 7.48082 6.97698 7.48082C7.10594 7.48082 7.2349 7.43142 7.33318 7.33314C7.53013 7.13619 7.53013 6.81769 7.33318 6.62074L2.14696 1.43452Z" fill="white"/>
<path d="M13.0232 7.48082C13.1521 7.48082 13.2812 7.43142 13.3794 7.33314L18.5657 2.14692V6.47306C18.5657 6.75152 18.7914 6.97694 19.0694 6.97694C19.3477 6.97694 19.5733 6.75152 19.5733 6.47306V0.930638C19.5733 0.652048 19.3477 0.426758 19.0694 0.426758H13.527C13.249 0.426758 13.0232 0.652048 13.0232 0.930638C13.0232 1.20936 13.249 1.43452 13.527 1.43452H17.8532L12.667 6.62074C12.47 6.81769 12.47 7.13619 12.667 7.33314C12.7652 7.43142 12.8942 7.48082 13.0232 7.48082Z" fill="white"/>
</svg>
