<svg width="22" height="21" viewBox="0 0 22 21" fill="none" xmlns="http://www.w3.org/2000/svg">
<path d="M18.8581 10.327H14.5895C14.3752 10.327 14.2014 10.4926 14.2014 10.6975C14.2014 10.9023 14.3752 11.0679 14.5895 11.0679H17.9213L12.1808 16.5474C12.029 16.6922 12.029 16.9264 12.1808 17.0712C12.2565 17.1434 12.3559 17.1797 12.4552 17.1797C12.5545 17.1797 12.6538 17.1434 12.7295 17.0712L18.47 11.5916V14.772C18.47 14.9767 18.6439 15.1424 18.8581 15.1424C19.0723 15.1424 19.2461 14.9767 19.2461 14.772V10.6975C19.2461 10.4926 19.0723 10.327 18.8581 10.327ZM13.575 2.70581H18.8336C19.0615 2.70581 19.2461 2.88211 19.2461 3.09956C19.2598 3.34841 19.0048 3.491 18.8356 3.491L13.9875 3.49331V7.95067C13.9875 8.27186 13.907 8.51284 13.3929 8.51284H8.72893V12.7495C8.72893 13.3521 8.67228 13.5194 7.92516 13.5325H3.47039C3.47039 15.0904 3.45686 16.6505 3.47578 18.2082C3.45202 18.4362 3.29989 18.5382 3.05789 18.552C2.83008 18.552 2.64539 18.3757 2.64539 18.1582V13.1387C2.64539 12.9213 2.83008 12.745 3.05789 12.745H7.90393V8.11909C7.90393 7.90163 8.08862 7.72534 8.31643 7.72534H13.1625V3.09956C13.1625 2.88211 13.3472 2.70581 13.575 2.70581Z" fill="#1253C0"/>
</svg>
