<svg width="21" height="21" viewBox="0 0 21 21" fill="none" xmlns="http://www.w3.org/2000/svg">
<path d="M7.77065 12.6541L3.58168 16.843V13.3488C3.58168 13.1238 3.3994 12.9419 3.1747 12.9419C2.9501 12.9419 2.76782 13.1238 2.76782 13.3488V17.8255C2.76782 18.0504 2.9501 18.2324 3.1747 18.2324H7.65137C7.87597 18.2324 8.05835 18.0504 8.05835 17.8255C8.05835 17.6003 7.87597 17.4185 7.65137 17.4185H4.15718L8.34605 13.2296C8.50513 13.0704 8.50513 12.8133 8.34605 12.6541C8.18698 12.495 7.92973 12.495 7.77065 12.6541Z" fill="#1253C0"/>
<path d="M16.843 17.4185H13.3488C13.1242 17.4185 12.9418 17.6003 12.9418 17.8255C12.9418 18.0504 13.1242 18.2324 13.3488 18.2324H17.8253C18.05 18.2324 18.2323 18.0504 18.2323 17.8255V13.3488C18.2323 13.1238 18.05 12.9419 17.8253 12.9419C17.6007 12.9419 17.4185 13.1238 17.4185 13.3488V16.843L13.2295 12.6541C13.0704 12.495 12.8132 12.495 12.6541 12.6541C12.495 12.8133 12.495 13.0704 12.6541 13.2296L16.843 17.4185Z" fill="#1253C0"/>
<path d="M4.15718 3.58178H7.65137C7.87597 3.58178 8.05835 3.39992 8.05835 3.1748C8.05835 2.94979 7.87597 2.76782 7.65137 2.76782H3.1747C2.9501 2.76782 2.76782 2.94979 2.76782 3.1748V7.65137C2.76782 7.87628 2.9501 8.05835 3.1747 8.05835C3.3994 8.05835 3.58168 7.87628 3.58168 7.65137V4.15718L7.77065 8.34605C7.85003 8.42543 7.95419 8.46533 8.05835 8.46533C8.16251 8.46533 8.26667 8.42543 8.34605 8.34605C8.50513 8.18698 8.50513 7.92973 8.34605 7.77065L4.15718 3.58178Z" fill="#1253C0"/>
<path d="M12.9418 8.46533C13.046 8.46533 13.1502 8.42543 13.2295 8.34605L17.4185 4.15718V7.65137C17.4185 7.87628 17.6007 8.05835 17.8253 8.05835C18.05 8.05835 18.2323 7.87628 18.2323 7.65137V3.1748C18.2323 2.94979 18.05 2.76782 17.8253 2.76782H13.3488C13.1242 2.76782 12.9418 2.94979 12.9418 3.1748C12.9418 3.39992 13.1242 3.58178 13.3488 3.58178H16.843L12.6541 7.77065C12.495 7.92973 12.495 8.18698 12.6541 8.34605C12.7335 8.42543 12.8376 8.46533 12.9418 8.46533Z" fill="#1253C0"/>
</svg>
