<svg width="31" height="30" viewBox="0 0 31 30" fill="none" xmlns="http://www.w3.org/2000/svg">
<path d="M26.5727 14.7529H20.558C20.256 14.7529 20.0111 14.9895 20.0111 15.2821C20.0111 15.5748 20.256 15.8113 20.558 15.8113H25.2528L17.1639 23.6392C16.95 23.8461 16.95 24.1806 17.1639 24.3874C17.2706 24.4906 17.4105 24.5425 17.5505 24.5425C17.6905 24.5425 17.8304 24.4906 17.9371 24.3874L26.0259 16.5595V21.1029C26.0259 21.3954 26.2709 21.6321 26.5727 21.6321C26.8747 21.6321 27.1196 21.3954 27.1196 21.1029V15.2821C27.1196 14.9895 26.8747 14.7529 26.5727 14.7529ZM19.1284 3.86548H26.5383C26.8593 3.86548 27.1196 4.11733 27.1196 4.42798C27.1388 4.78348 26.7795 4.98718 26.5411 4.98718L19.7096 4.99048V11.3581C19.7096 11.817 19.5962 12.1612 18.8719 12.1612H12.2999V18.2136C12.2999 19.0744 12.22 19.3135 11.1673 19.3321H4.8901C4.8901 21.5577 4.87103 23.7865 4.89769 26.0118C4.86421 26.3374 4.64985 26.4832 4.30885 26.5029C3.98784 26.5029 3.7276 26.251 3.7276 25.9404V18.7696C3.7276 18.459 3.98784 18.2071 4.30885 18.2071H11.1374V11.5987C11.1374 11.2881 11.3976 11.0362 11.7186 11.0362H18.5471V4.42798C18.5471 4.11733 18.8074 3.86548 19.1284 3.86548Z" fill="#1253C0"/>
</svg>
