<svg width="113" height="109" viewBox="0 0 113 109" fill="none" xmlns="http://www.w3.org/2000/svg">
<path d="M104.707 37.5092V104.299H108.706C109.959 104.299 110.974 105.315 110.974 106.568C110.974 107.821 109.959 108.837 108.706 108.837H102.54L102.438 108.839L102.336 108.837H68.5402L68.438 108.839L68.3358 108.837H44.6669L44.5647 108.839L44.4625 108.837H10.669L10.5667 108.839L10.4645 108.837H4.29772C3.04476 108.837 2.02897 107.821 2.02897 106.568C2.02897 105.315 3.04476 104.299 4.29772 104.299H8.29798V37.5117L2.32844 37.5129C1.07549 37.5129 0.0596924 36.4971 0.0596924 35.2441C0.0596924 34.7516 0.216387 34.2961 0.483192 33.924L20.8911 1.23343C21.3194 0.544336 22.0581 0.165607 22.8137 0.162582L90.1914 0.160767C91.0541 0.160767 91.8031 0.642346 92.1873 1.3508L112.599 34.048C113.259 35.1098 112.935 36.5067 111.873 37.1668C111.5 37.3985 111.086 37.5086 110.677 37.5086L104.707 37.5092ZM100.169 104.299V37.5098L73.8951 37.5129C73.2326 37.5129 72.6367 37.2285 72.2223 36.776L56.5032 21.8712L40.6703 36.8837C40.2323 37.2999 39.6715 37.5068 39.1106 37.5068L12.8355 37.511V104.299H42.2959V80.7099C42.2959 76.9407 43.9113 73.517 46.5116 71.0395C49.0828 68.5905 52.6203 67.0695 56.5014 67.0695C60.3848 67.0695 63.9217 68.5905 66.4911 71.0395C69.0914 73.517 70.7067 76.9407 70.7067 80.7099V104.299H100.169ZM46.8335 104.299H66.1692V80.7099C66.1692 78.2257 65.0972 75.9624 63.3717 74.3186C61.6166 72.6458 59.1851 71.607 56.5032 71.607C53.8188 71.607 51.3867 72.6464 49.631 74.3186C47.9055 75.9624 46.8335 78.2257 46.8335 80.7099V104.299ZM56.5032 34.8127C59.2232 34.8127 61.6922 35.9211 63.4855 37.7125L63.4903 37.7077C65.2781 39.4954 66.3852 41.9669 66.3852 44.6948C66.3852 47.4222 65.2781 49.8948 63.4897 51.6832L63.3481 51.8132C61.5676 53.5254 59.1537 54.5793 56.5032 54.5793C53.7752 54.5793 51.3032 53.4715 49.5154 51.6838C47.7264 49.8948 46.6193 47.4228 46.6193 44.6948C46.6193 41.9669 47.7264 39.4954 49.5142 37.7077C51.3032 35.9187 53.7746 34.8127 56.5032 34.8127ZM60.2826 40.9063C59.3219 39.945 57.9854 39.3502 56.5032 39.3502C55.0264 39.3502 53.6887 39.9486 52.7219 40.9154C51.7551 41.8822 51.1568 43.2186 51.1568 44.6948C51.1568 46.171 51.7557 47.5087 52.7231 48.4761C53.6899 49.4429 55.027 50.0418 56.5032 50.0418C57.9364 50.0418 59.2335 49.484 60.1864 48.5777L60.282 48.4755C61.2488 47.5087 61.8477 46.1704 61.8477 44.6948C61.8477 43.2186 61.2494 41.8822 60.2826 40.9154V40.9063ZM82.8757 60.5628H88.1646V51.2022H82.8757V60.5628ZM90.4334 65.1003H80.607C79.354 65.1003 78.3382 64.0845 78.3382 62.8315V48.9334C78.3382 47.6805 79.354 46.6647 80.607 46.6647H90.4334C91.6863 46.6647 92.7021 47.6805 92.7021 48.9334V62.8315C92.7021 64.0845 91.6863 65.1003 90.4334 65.1003ZM82.8757 91.2296H88.1646V78.2645H82.8757V91.2296ZM90.4334 95.7671H80.607C79.354 95.7671 78.3382 94.7513 78.3382 93.4984V75.9957C78.3382 74.7428 79.354 73.727 80.607 73.727H90.4334C91.6863 73.727 92.7021 74.7428 92.7021 75.9957V93.4984C92.7021 94.7513 91.6863 95.7671 90.4334 95.7671ZM24.8399 91.2296H30.1276V78.2645H24.8399V91.2296ZM32.3963 95.7671H22.5711C21.3182 95.7671 20.3024 94.7513 20.3024 93.4984V75.9957C20.3024 74.7428 21.3182 73.727 22.5711 73.727H32.3963C33.6493 73.727 34.6651 74.7428 34.6651 75.9957V93.4984C34.6651 94.7513 33.6493 95.7671 32.3963 95.7671ZM24.8399 60.5628H30.1276V51.2022H24.8399V60.5628ZM32.3963 65.1003H22.5711C21.3182 65.1003 20.3024 64.0845 20.3024 62.8315V48.9334C20.3024 47.6805 21.3182 46.6647 22.5711 46.6647H32.3963C33.6493 46.6647 34.6651 47.6805 34.6651 48.9334V62.8315C34.6651 64.0845 33.6493 65.1003 32.3963 65.1003ZM88.9384 4.69827H24.0667L6.41401 32.9754H38.2146L54.9404 17.1165C55.808 16.287 57.1844 16.278 58.0629 17.1135L74.7911 32.9754H106.591L88.9384 4.69827Z" fill="#E7EFFC"/>
</svg>
