<svg width="44" height="50" viewBox="0 0 44 50" fill="none" xmlns="http://www.w3.org/2000/svg">
<path d="M37.337 7.42754C36.8193 7.42754 36.3995 7.00779 36.3995 6.49004C36.3995 5.97229 36.8193 5.55254 37.337 5.55254H41.688V5.43204C41.688 4.52029 41.3205 3.69679 40.727 3.10329L40.7235 3.09979C40.1858 2.56204 39.4593 2.20954 38.6495 2.14829C37.6998 2.21154 36.8195 2.58404 36.172 3.17579C35.518 3.77329 35.1013 4.60354 35.1013 5.56454V41.3948C35.1013 41.9125 34.6815 42.3323 34.1638 42.3323H28.755V48.7988C28.755 49.3165 28.3353 49.7363 27.8175 49.7363C27.6025 49.7363 27.4045 49.664 27.2465 49.5423L24.6443 47.8078L21.9875 49.5788C21.5568 49.8638 20.9763 49.7458 20.6913 49.315C20.586 49.1558 20.536 48.9763 20.536 48.7988L20.5348 42.3323H1.37451C0.856762 42.3323 0.437012 41.9125 0.437012 41.3948V5.43204C0.437012 4.00954 1.01551 2.71804 1.95101 1.78129L1.95676 1.77554C2.89326 0.841294 4.18376 0.263794 5.60526 0.263794H26.76H38.3948H38.9618V0.295044C40.1578 0.426294 41.2328 0.967294 42.0433 1.77554L42.049 1.78129C42.9845 2.71804 43.563 4.00954 43.563 5.43204V6.49004C43.563 7.00779 43.1433 7.42754 42.6255 7.42754H37.337ZM30.8705 31.8753C30.8705 33.5943 30.1733 35.1513 29.0468 36.2778C28.9525 36.372 28.8553 36.463 28.755 36.5513V40.4573H33.2263V5.56454C33.2263 4.22279 33.74 3.04429 34.5713 2.13879H26.76H5.60526C4.69351 2.13879 3.87001 2.50629 3.27651 3.09979L3.27301 3.10329C2.67951 3.69679 2.31201 4.52029 2.31201 5.43204V40.4573H20.5345L20.5338 36.5513C20.4335 36.463 20.3363 36.372 20.242 36.2778L20.1915 36.223C19.0945 35.0993 18.4183 33.5643 18.4183 31.8753C18.4183 30.156 19.1153 28.5993 20.2418 27.4728C21.3683 26.3463 22.925 25.6493 24.6443 25.6493C26.3588 25.6493 27.915 26.3463 29.043 27.4733L29.0498 27.48C30.1748 28.6078 30.8705 30.1625 30.8705 31.8753ZM26.88 37.6878C26.186 37.955 25.432 38.1015 24.6443 38.1015C23.8565 38.1015 23.1028 37.955 22.4088 37.6878V41.3948V47.0495L24.1048 45.919C24.4105 45.7035 24.8298 45.6848 25.1605 45.9035L26.88 47.0498V41.3948V37.6878ZM27.7213 34.9523C28.5083 34.1653 28.9955 33.077 28.9955 31.8753C28.9955 30.6715 28.5095 29.5835 27.7245 28.7988L27.721 28.7953C26.9363 28.0103 25.848 27.5243 24.6443 27.5243C23.4423 27.5243 22.3543 28.0113 21.5673 28.7983C20.7803 29.5853 20.2933 30.6733 20.2933 31.8753C20.2933 33.0585 20.7623 34.1298 21.5235 34.9113L21.5675 34.9523C21.7068 35.0915 21.8555 35.2213 22.0128 35.3408L22.0523 35.3708C22.7758 35.9083 23.673 36.2265 24.6443 36.2265C25.6153 36.2265 26.5125 35.9083 27.2365 35.3708L27.276 35.3408C27.433 35.2213 27.582 35.0915 27.7213 34.9523ZM6.66326 33.8705C6.14551 33.8705 5.72576 33.4508 5.72576 32.933C5.72576 32.4153 6.14551 31.9955 6.66326 31.9955H8.77851C8.97476 31.9955 9.15676 32.0558 9.30726 32.1588C9.45776 32.0558 9.64001 31.9955 9.83626 31.9955H15.1248C15.6425 31.9955 16.0623 32.4153 16.0623 32.933C16.0623 33.4508 15.6425 33.8705 15.1248 33.8705H9.83626C9.64001 33.8705 9.45776 33.8103 9.30726 33.7073C9.15676 33.8103 8.97476 33.8705 8.77851 33.8705H6.66326ZM6.66326 21.1778C6.14551 21.1778 5.72576 20.758 5.72576 20.2403C5.72576 19.7225 6.14551 19.3028 6.66326 19.3028H20.4135C20.9313 19.3028 21.351 19.7225 21.351 20.2403C21.351 20.758 20.9313 21.1778 20.4135 21.1778H6.66326ZM6.66326 16.947C6.14551 16.947 5.72576 16.5273 5.72576 16.0095C5.72576 15.4918 6.14551 15.072 6.66326 15.072H28.8753C29.393 15.072 29.8128 15.4918 29.8128 16.0095C29.8128 16.5273 29.393 16.947 28.8753 16.947H6.66326ZM6.66326 12.716C6.14551 12.716 5.72576 12.2963 5.72576 11.7785C5.72576 11.2608 6.14551 10.841 6.66326 10.841H28.8753C29.393 10.841 29.8128 11.2608 29.8128 11.7785C29.8128 12.2963 29.393 12.716 28.8753 12.716H6.66326Z" fill="white"/>
</svg>
