<svg width="48" height="46" viewBox="0 0 48 46" fill="none" xmlns="http://www.w3.org/2000/svg">
<path d="M43.92 15.9789V43.5782H45.5725C46.0903 43.5782 46.51 43.9979 46.51 44.5157C46.51 45.0334 46.0903 45.4532 45.5725 45.4532H43.0248L42.9825 45.4542L42.9403 45.4532H28.9753L28.933 45.4542L28.8908 45.4532H19.1103L19.068 45.4542L19.0258 45.4532H5.06151L5.01926 45.4542L4.97701 45.4532H2.42876C1.91101 45.4532 1.49126 45.0334 1.49126 44.5157C1.49126 43.9979 1.91101 43.5782 2.42876 43.5782H4.08176V15.9799L1.61501 15.9804C1.09726 15.9804 0.677505 15.5607 0.677505 15.0429C0.677505 14.8394 0.742255 14.6512 0.852505 14.4974L9.28551 0.988904C9.46251 0.704154 9.76776 0.547654 10.08 0.546404L37.922 0.545654C38.2785 0.545654 38.588 0.744654 38.7468 1.0374L47.1815 14.5487C47.4543 14.9874 47.32 15.5647 46.8813 15.8374C46.7273 15.9332 46.556 15.9787 46.387 15.9787L43.92 15.9789ZM42.045 43.5782V15.9792L31.188 15.9804C30.9143 15.9804 30.668 15.8629 30.4968 15.6759L24.0013 9.5169L17.4588 15.7204C17.2778 15.8924 17.046 15.9779 16.8143 15.9779L5.95675 15.9797V43.5782H18.1305V33.8304C18.1305 32.2729 18.798 30.8582 19.8725 29.8344C20.935 28.8224 22.3968 28.1939 24.0005 28.1939C25.6053 28.1939 27.0668 28.8224 28.1285 29.8344C29.203 30.8582 29.8705 32.2729 29.8705 33.8304V43.5782H42.045ZM20.0055 43.5782H27.9955V33.8304C27.9955 32.8039 27.5525 31.8687 26.8395 31.1894C26.1143 30.4982 25.1095 30.0689 24.0013 30.0689C22.892 30.0689 21.887 30.4984 21.1615 31.1894C20.4485 31.8687 20.0055 32.8039 20.0055 33.8304V43.5782ZM24.0013 14.8647C25.1253 14.8647 26.1455 15.3227 26.8865 16.0629L26.8885 16.0609C27.6273 16.7997 28.0848 17.8209 28.0848 18.9482C28.0848 20.0752 27.6273 21.0969 26.8883 21.8359L26.8298 21.8897C26.094 22.5972 25.0965 23.0327 24.0013 23.0327C22.874 23.0327 21.8525 22.5749 21.1138 21.8362C20.3745 21.0969 19.917 20.0754 19.917 18.9482C19.917 17.8209 20.3745 16.7997 21.1133 16.0609C21.8525 15.3217 22.8738 14.8647 24.0013 14.8647ZM25.563 17.3827C25.166 16.9854 24.6138 16.7397 24.0013 16.7397C23.391 16.7397 22.8383 16.9869 22.4388 17.3864C22.0393 17.7859 21.792 18.3382 21.792 18.9482C21.792 19.5582 22.0395 20.1109 22.4393 20.5107C22.8388 20.9102 23.3913 21.1577 24.0013 21.1577C24.5935 21.1577 25.1295 20.9272 25.5233 20.5527L25.5628 20.5104C25.9623 20.1109 26.2098 19.5579 26.2098 18.9482C26.2098 18.3382 25.9625 17.7859 25.563 17.3864V17.3827ZM34.899 25.5052H37.0845V21.6372H34.899V25.5052ZM38.022 27.3802H33.9615C33.4438 27.3802 33.024 26.9604 33.024 26.4427V20.6997C33.024 20.1819 33.4438 19.7622 33.9615 19.7622H38.022C38.5398 19.7622 38.9595 20.1819 38.9595 20.6997V26.4427C38.9595 26.9604 38.5398 27.3802 38.022 27.3802ZM34.899 38.1774H37.0845V32.8199H34.899V38.1774ZM38.022 40.0524H33.9615C33.4438 40.0524 33.024 39.6327 33.024 39.1149V31.8824C33.024 31.3647 33.4438 30.9449 33.9615 30.9449H38.022C38.5398 30.9449 38.9595 31.3647 38.9595 31.8824V39.1149C38.9595 39.6327 38.5398 40.0524 38.022 40.0524ZM10.9173 38.1774H13.1023V32.8199H10.9173V38.1774ZM14.0398 40.0524H9.97975C9.462 40.0524 9.04225 39.6327 9.04225 39.1149V31.8824C9.04225 31.3647 9.462 30.9449 9.97975 30.9449H14.0398C14.5575 30.9449 14.9773 31.3647 14.9773 31.8824V39.1149C14.9773 39.6327 14.5575 40.0524 14.0398 40.0524ZM10.9173 25.5052H13.1023V21.6372H10.9173V25.5052ZM14.0398 27.3802H9.97975C9.462 27.3802 9.04225 26.9604 9.04225 26.4427V20.6997C9.04225 20.1819 9.462 19.7622 9.97975 19.7622H14.0398C14.5575 19.7622 14.9773 20.1819 14.9773 20.6997V26.4427C14.9773 26.9604 14.5575 27.3802 14.0398 27.3802ZM37.4043 2.42065H10.5978L3.30326 14.1054H16.444L23.3555 7.55215C23.714 7.2094 24.2828 7.20565 24.6458 7.5509L31.5583 14.1054H44.6988L37.4043 2.42065Z" fill="white"/>
</svg>
