<svg width="33" height="33" viewBox="0 0 33 33" fill="none" xmlns="http://www.w3.org/2000/svg">
<path d="M30.444 11.5853V30.9047H31.6008C31.9632 30.9047 32.257 31.1986 32.257 31.561C32.257 31.9234 31.9632 32.2172 31.6008 32.2172H29.8173L29.7878 32.2179L29.7582 32.2172H19.9827L19.9531 32.2179L19.9235 32.2172H13.0772L13.0476 32.2179L13.018 32.2172H3.24306L3.21349 32.2179L3.18391 32.2172H1.40014C1.03771 32.2172 0.743888 31.9234 0.743888 31.561C0.743888 31.1986 1.03771 30.9047 1.40014 30.9047H2.55724V11.586L0.830513 11.5863C0.468088 11.5863 0.174263 11.2925 0.174263 10.9301C0.174263 10.7876 0.219588 10.6558 0.296763 10.5482L6.19986 1.09226C6.32376 0.892932 6.53744 0.783382 6.75601 0.782507L26.2454 0.781982C26.495 0.781982 26.7116 0.921282 26.8227 1.12621L32.7271 10.5841C32.918 10.8912 32.824 11.2953 32.5169 11.4862C32.4091 11.5532 32.2892 11.5851 32.1709 11.5851L30.444 11.5853ZM29.1315 30.9047V11.5854L21.5316 11.5863C21.34 11.5863 21.1676 11.5041 21.0477 11.3732L16.5009 7.06186L11.9211 11.4043C11.7944 11.5247 11.6322 11.5846 11.47 11.5846L3.86974 11.5858V30.9047H12.3914V24.0813C12.3914 22.9911 12.8586 22.0007 13.6108 21.2841C14.3545 20.5757 15.3777 20.1358 16.5004 20.1358C17.6237 20.1358 18.6467 20.5757 19.39 21.2841C20.1421 22.0007 20.6094 22.9911 20.6094 24.0813V30.9047H29.1315ZM13.7039 30.9047H19.2969V24.0813C19.2969 23.3628 18.9868 22.7081 18.4877 22.2326C17.98 21.7487 17.2767 21.4483 16.5009 21.4483C15.7244 21.4483 15.0209 21.7489 14.5131 22.2326C14.014 22.7081 13.7039 23.3628 13.7039 24.0813V30.9047ZM16.5009 10.8053C17.2877 10.8053 18.0019 11.1259 18.5206 11.6441L18.522 11.6427C19.0391 12.1598 19.3593 12.8747 19.3593 13.6637C19.3593 14.4526 19.0391 15.1679 18.5218 15.6852L18.4808 15.7228C17.9658 16.218 17.2676 16.5229 16.5009 16.5229C15.7118 16.5229 14.9968 16.2025 14.4796 15.6853C13.9622 15.1679 13.6419 14.4528 13.6419 13.6637C13.6419 12.8747 13.9622 12.1598 14.4793 11.6427C14.9968 11.1252 15.7116 10.8053 16.5009 10.8053ZM17.5941 12.5679C17.3162 12.2898 16.9296 12.1178 16.5009 12.1178C16.0737 12.1178 15.6868 12.2909 15.4071 12.5705C15.1275 12.8502 14.9544 13.2367 14.9544 13.6637C14.9544 14.0907 15.1277 14.4777 15.4075 14.7575C15.6871 15.0371 16.0739 15.2104 16.5009 15.2104C16.9155 15.2104 17.2907 15.049 17.5663 14.7869L17.5939 14.7573C17.8736 14.4777 18.0468 14.0906 18.0468 13.6637C18.0468 13.2367 17.8738 12.8502 17.5941 12.5705V12.5679ZM24.1293 18.2536H25.6592V15.546H24.1293V18.2536ZM26.3154 19.5661H23.4731C23.1106 19.5661 22.8168 19.2723 22.8168 18.9099V14.8898C22.8168 14.5274 23.1106 14.2335 23.4731 14.2335H26.3154C26.6778 14.2335 26.9717 14.5274 26.9717 14.8898V18.9099C26.9717 19.2723 26.6778 19.5661 26.3154 19.5661ZM24.1293 27.1242H25.6592V23.374H24.1293V27.1242ZM26.3154 28.4367H23.4731C23.1106 28.4367 22.8168 28.1429 22.8168 27.7805V22.7177C22.8168 22.3553 23.1106 22.0615 23.4731 22.0615H26.3154C26.6778 22.0615 26.9717 22.3553 26.9717 22.7177V27.7805C26.9717 28.1429 26.6778 28.4367 26.3154 28.4367ZM7.34209 27.1242H8.87159V23.374H7.34209V27.1242ZM9.52784 28.4367H6.68584C6.32341 28.4367 6.02959 28.1429 6.02959 27.7805V22.7177C6.02959 22.3553 6.32341 22.0615 6.68584 22.0615H9.52784C9.89026 22.0615 10.1841 22.3553 10.1841 22.7177V27.7805C10.1841 28.1429 9.89026 28.4367 9.52784 28.4367ZM7.34209 18.2536H8.87159V15.546H7.34209V18.2536ZM9.52784 19.5661H6.68584C6.32341 19.5661 6.02959 19.2723 6.02959 18.9099V14.8898C6.02959 14.5274 6.32341 14.2335 6.68584 14.2335H9.52784C9.89026 14.2335 10.1841 14.5274 10.1841 14.8898V18.9099C10.1841 19.2723 9.89026 19.5661 9.52784 19.5661ZM25.883 2.09448H7.11844L2.01229 10.2738H11.2108L16.0489 5.68653C16.2998 5.44661 16.6979 5.44398 16.952 5.68566L21.7908 10.2738H30.9891L25.883 2.09448Z" fill="white"/>
</svg>
