<svg width="48" height="46" viewBox="0 0 48 46" fill="none" xmlns="http://www.w3.org/2000/svg">
<path d="M43.9201 15.979V43.5782H45.5725C46.0903 43.5782 46.51 43.998 46.51 44.5157C46.51 45.0335 46.0903 45.4532 45.5725 45.4532H43.0248L42.9826 45.4542L42.9403 45.4532H28.9753L28.933 45.4542L28.8908 45.4532H19.1103L19.0681 45.4542L19.0258 45.4532H5.06155L5.0193 45.4542L4.97705 45.4532H2.4288C1.91105 45.4532 1.4913 45.0335 1.4913 44.5157C1.4913 43.998 1.91105 43.5782 2.4288 43.5782H4.0818V15.98L1.61505 15.9805C1.0973 15.9805 0.677551 15.5607 0.677551 15.043C0.677551 14.8395 0.742301 14.6512 0.852551 14.4975L9.28555 0.988996C9.46255 0.704246 9.7678 0.547746 10.0801 0.546496L37.9221 0.545746C38.2785 0.545746 38.5881 0.744746 38.7468 1.0375L47.1815 14.5487C47.4543 14.9875 47.32 15.5647 46.8813 15.8375C46.7273 15.9332 46.556 15.9787 46.387 15.9787L43.9201 15.979ZM42.0451 43.5782V15.9792L31.1881 15.9805C30.9143 15.9805 30.6681 15.863 30.4968 15.676L24.0013 9.51699L17.4588 15.7205C17.2778 15.8925 17.0461 15.978 16.8143 15.978L5.9568 15.9797V43.5782H18.1306V33.8305C18.1306 32.273 18.7981 30.8582 19.8726 29.8345C20.9351 28.8225 22.3968 28.194 24.0006 28.194C25.6053 28.194 27.0668 28.8225 28.1286 29.8345C29.2031 30.8582 29.8705 32.273 29.8705 33.8305V43.5782H42.0451ZM20.0056 43.5782H27.9955V33.8305C27.9955 32.804 27.5525 31.8687 26.8396 31.1895C26.1143 30.4982 25.1096 30.069 24.0013 30.069C22.892 30.069 21.8871 30.4985 21.1616 31.1895C20.4486 31.8687 20.0056 32.804 20.0056 33.8305V43.5782ZM24.0013 14.8647C25.1253 14.8647 26.1455 15.3227 26.8865 16.063L26.8886 16.061C27.6273 16.7997 28.0848 17.821 28.0848 18.9482C28.0848 20.0752 27.6273 21.097 26.8883 21.836L26.8298 21.8897C26.094 22.5972 25.0965 23.0327 24.0013 23.0327C22.8741 23.0327 21.8526 22.575 21.1138 21.8362C20.3745 21.097 19.9171 20.0755 19.9171 18.9482C19.9171 17.821 20.3746 16.7997 21.1133 16.061C21.8526 15.3217 22.8738 14.8647 24.0013 14.8647ZM25.5631 17.3827C25.166 16.9855 24.6138 16.7397 24.0013 16.7397C23.3911 16.7397 22.8383 16.987 22.4388 17.3865C22.0393 17.786 21.7921 18.3382 21.7921 18.9482C21.7921 19.5582 22.0396 20.111 22.4393 20.5107C22.8388 20.9102 23.3913 21.1577 24.0013 21.1577C24.5935 21.1577 25.1296 20.9272 25.5233 20.5527L25.5628 20.5105C25.9623 20.111 26.2098 19.558 26.2098 18.9482C26.2098 18.3382 25.9626 17.786 25.5631 17.3865V17.3827ZM34.899 25.5052H37.0845V21.6372H34.899V25.5052ZM38.022 27.3802H33.9615C33.4438 27.3802 33.024 26.9605 33.024 26.4427V20.6997C33.024 20.182 33.4438 19.7622 33.9615 19.7622H38.022C38.5398 19.7622 38.9595 20.182 38.9595 20.6997V26.4427C38.9595 26.9605 38.5398 27.3802 38.022 27.3802ZM34.899 38.1775H37.0845V32.82H34.899V38.1775ZM38.022 40.0525H33.9615C33.4438 40.0525 33.024 39.6327 33.024 39.115V31.8825C33.024 31.3647 33.4438 30.945 33.9615 30.945H38.022C38.5398 30.945 38.9595 31.3647 38.9595 31.8825V39.115C38.9595 39.6327 38.5398 40.0525 38.022 40.0525ZM10.9173 38.1775H13.1023V32.82H10.9173V38.1775ZM14.0398 40.0525H9.9798C9.46205 40.0525 9.0423 39.6327 9.0423 39.115V31.8825C9.0423 31.3647 9.46205 30.945 9.9798 30.945H14.0398C14.5576 30.945 14.9773 31.3647 14.9773 31.8825V39.115C14.9773 39.6327 14.5576 40.0525 14.0398 40.0525ZM10.9173 25.5052H13.1023V21.6372H10.9173V25.5052ZM14.0398 27.3802H9.9798C9.46205 27.3802 9.0423 26.9605 9.0423 26.4427V20.6997C9.0423 20.182 9.46205 19.7622 9.9798 19.7622H14.0398C14.5576 19.7622 14.9773 20.182 14.9773 20.6997V26.4427C14.9773 26.9605 14.5576 27.3802 14.0398 27.3802ZM37.4043 2.42075H10.5978L3.3033 14.1055H16.4441L23.3555 7.55225C23.7141 7.2095 24.2828 7.20575 24.6458 7.551L31.5583 14.1055H44.6988L37.4043 2.42075Z" fill="#1253C0"/>
</svg>
