<svg width="17" height="18" viewBox="0 0 17 18" fill="none" xmlns="http://www.w3.org/2000/svg">
<path d="M5.11672 2.26997C3.54697 2.26997 2.26994 3.54687 2.26994 5.11648V11.2818C2.26994 12.8515 3.54697 14.1285 5.11672 14.1285H11.2819C12.8516 14.1285 14.1285 12.8515 14.1285 11.2818V5.11648C14.1285 3.54687 12.8516 2.26997 11.2819 2.26997H5.11672ZM12.9018 4.32498C12.9018 4.81146 12.5074 5.20571 12.021 5.20571C11.5347 5.20571 11.1402 4.81146 11.1402 4.32498C11.1402 3.83862 11.5347 3.4441 12.021 3.4441C12.5074 3.4441 12.9018 3.83862 12.9018 4.32498ZM8.19922 5.76135C6.8551 5.76135 5.76145 6.85499 5.76145 8.19926C5.76145 9.54339 6.8551 10.637 8.19922 10.637C9.54349 10.637 10.6371 9.54339 10.6371 8.19926C10.6371 6.85499 9.54349 5.76135 8.19922 5.76135ZM8.19922 11.8636C6.17866 11.8636 4.53471 10.22 4.53471 8.19926C4.53471 6.17855 6.17866 4.5346 8.19922 4.5346C10.2198 4.5346 11.8639 6.17855 11.8639 8.19926C11.8639 10.22 10.2198 11.8636 8.19922 11.8636ZM11.2819 15.3553H5.11672C2.87067 15.3553 1.04333 13.5279 1.04333 11.2818V5.11648C1.04333 2.87057 2.87067 1.04323 5.11672 1.04323H11.2819C13.5279 1.04323 15.3554 2.87057 15.3554 5.11648V11.2818C15.3554 13.5279 13.5279 15.3553 11.2819 15.3553Z" fill="url(#paint0_linear)"/>
<defs>
<linearGradient id="paint0_linear" x1="8.19936" y1="15.3553" x2="8.19936" y2="1.04323" gradientUnits="userSpaceOnUse">
<stop stop-color="white"/>
</linearGradient>
</defs>
</svg>
