<svg width="40" height="40" viewBox="0 0 40 40" fill="none" xmlns="http://www.w3.org/2000/svg">
<path d="M11.3845 3.42856C6.99729 3.42856 3.42818 6.99729 3.42818 11.3841V28.6151C3.42818 33.0023 6.99729 36.5714 11.3845 36.5714H28.6151C33.0023 36.5714 36.5711 33.0023 36.5711 28.6151V11.3841C36.5711 6.99729 33.0023 3.42856 28.6151 3.42856H11.3845ZM33.1425 9.17198C33.1425 10.5316 32.0403 11.6335 30.681 11.6335C29.3217 11.6335 28.2191 10.5316 28.2191 9.17198C28.2191 7.8127 29.3217 6.71008 30.681 6.71008C32.0403 6.71008 33.1425 7.8127 33.1425 9.17198ZM19.9996 13.1864C16.243 13.1864 13.1864 16.243 13.1864 20C13.1864 23.7566 16.243 26.8132 19.9996 26.8132C23.7566 26.8132 26.8132 23.7566 26.8132 20C26.8132 16.243 23.7566 13.1864 19.9996 13.1864ZM19.9996 30.2414C14.3524 30.2414 9.75786 25.6476 9.75786 20C9.75786 14.3524 14.3524 9.75786 19.9996 9.75786C25.6468 9.75786 30.2418 14.3524 30.2418 20C30.2418 25.6476 25.6468 30.2414 19.9996 30.2414ZM28.6151 40H11.3845C5.10713 40 0 34.8929 0 28.6151V11.3841C0 5.10713 5.10713 0 11.3845 0H28.6151C34.8925 0 40 5.10713 40 11.3841V28.6151C40 34.8929 34.8925 40 28.6151 40Z" fill="url(#paint0_linear)"/>
<defs>
<linearGradient id="paint0_linear" x1="20" y1="40" x2="20" y2="0" gradientUnits="userSpaceOnUse">
<stop stop-color="#64519B"/>
<stop offset="0.478431" stop-color="#D82D54"/>
<stop offset="0.760784" stop-color="#E73A3E"/>
<stop offset="1" stop-color="#FBC24E"/>
</linearGradient>
</defs>
</svg>
