<svg width="15" height="15" viewBox="0 0 15 15" fill="none" xmlns="http://www.w3.org/2000/svg">
<path d="M4.1173 1.26996C2.54755 1.26996 1.27052 2.54685 1.27052 4.11646V10.2817C1.27052 11.8515 2.54755 13.1285 4.1173 13.1285H10.2824C11.8522 13.1285 13.1291 11.8515 13.1291 10.2817V4.11646C13.1291 2.54685 11.8522 1.26996 10.2824 1.26996H4.1173ZM11.9023 3.32496C11.9023 3.81145 11.508 4.2057 11.0216 4.2057C10.5353 4.2057 10.1407 3.81145 10.1407 3.32496C10.1407 2.83861 10.5353 2.44409 11.0216 2.44409C11.508 2.44409 11.9023 2.83861 11.9023 3.32496ZM7.1998 4.76133C5.85568 4.76133 4.76203 5.85497 4.76203 7.19924C4.76203 8.54337 5.85568 9.63701 7.1998 9.63701C8.54407 9.63701 9.63771 8.54337 9.63771 7.19924C9.63771 5.85497 8.54407 4.76133 7.1998 4.76133ZM7.1998 10.8636C5.17924 10.8636 3.53529 9.21994 3.53529 7.19924C3.53529 5.17854 5.17924 3.53459 7.1998 3.53459C9.22037 3.53459 10.8645 5.17854 10.8645 7.19924C10.8645 9.21994 9.22037 10.8636 7.1998 10.8636ZM10.2824 14.3553H4.1173C1.87125 14.3553 0.0439148 12.5279 0.0439148 10.2817V4.11646C0.0439148 1.87055 1.87125 0.0432129 4.1173 0.0432129H10.2824C12.5285 0.0432129 14.356 1.87055 14.356 4.11646V10.2817C14.356 12.5279 12.5285 14.3553 10.2824 14.3553Z" fill="url(#paint0_linear)"/>
<defs>
<linearGradient id="paint0_linear" x1="7.19994" y1="14.3553" x2="7.19994" y2="0.0432129" gradientUnits="userSpaceOnUse">
<stop/>
</linearGradient>
</defs>
</svg>
