<svg width="24" height="18" viewBox="0 0 24 18" fill="none" xmlns="http://www.w3.org/2000/svg">
<path d="M23.1118 15.8574C23.1118 16.5651 22.5134 17.1421 21.778 17.1421H2.22205C1.48812 17.1421 0.889755 16.5651 0.889755 15.8574V2.14257C0.889755 1.43489 1.48812 0.85793 2.22205 0.85793H21.778C22.5134 0.85793 23.1118 1.43489 23.1118 2.14257V15.8574ZM21.4881 1.81953L13.0549 8.84074C12.4831 9.31703 11.5169 9.31703 10.9451 8.84074L2.51344 1.81953C2.32801 1.66477 2.04753 1.6828 1.88547 1.86311C1.72497 2.0419 1.74679 2.31235 1.93222 2.46861L10.3638 9.48982C10.8157 9.86544 11.4079 10.0533 12 10.0533C12.5921 10.0533 13.1858 9.86544 13.6362 9.48982L22.0678 2.46861C22.2532 2.31235 22.275 2.0419 22.1145 1.86311C21.9525 1.6828 21.672 1.66477 21.4881 1.81953ZM21.778 0H2.22205C0.997273 0 0 0.961603 0 2.14257V15.8574C0 17.0384 0.997273 18 2.22205 18H21.778C23.0027 18 24 17.0384 24 15.8574V2.14257C24 0.961603 23.0027 0 21.778 0Z" fill="#1253C0"/>
</svg>
