<svg width="36" height="44" viewBox="0 0 36 44" fill="none" xmlns="http://www.w3.org/2000/svg">
<path d="M34.2279 39.8506C34.2279 41.1926 33.1358 42.2849 31.7938 42.2849H4.20645C2.8644 42.2849 1.77236 41.1926 1.77236 39.8506V9.82935C1.77236 8.4873 2.8644 7.39503 4.20645 7.39503H10.6975C10.6975 8.73708 11.7898 9.82935 13.1318 9.82935H23.6799C25.0219 9.82935 26.1139 8.73708 26.1139 7.39503H31.7938C33.1358 7.39503 34.2279 8.4873 34.2279 9.82935V39.8506ZM27.7368 32.5481H22.8684C22.4197 32.5481 22.057 32.9108 22.057 33.3595C22.057 33.8082 22.4197 34.1709 22.8684 34.1709H27.7368C28.1856 34.1709 28.548 33.8082 28.548 33.3595C28.548 32.9108 28.1856 32.5481 27.7368 32.5481ZM15.5659 36.605H9.07486V30.114H15.5659V36.605ZM16.3774 28.4911H8.26342C7.81468 28.4911 7.45198 28.8538 7.45198 29.3025V37.4165C7.45198 37.8652 7.81468 38.2279 8.26342 38.2279H16.3774C16.8261 38.2279 17.1888 37.8652 17.1888 37.4165V29.3025C17.1888 28.8538 16.8261 28.4911 16.3774 28.4911ZM27.7368 19.5659H22.8684C22.4197 19.5659 22.057 19.9286 22.057 20.3774C22.057 20.8261 22.4197 21.1886 22.8684 21.1886H27.7368C28.1856 21.1886 28.548 20.8261 28.548 20.3774C28.548 19.9286 28.1856 19.5659 27.7368 19.5659ZM18.198 14.1727L13.4945 19.6057L11.2711 17.3947C10.954 17.0783 10.4413 17.1033 10.1239 17.4198C9.80672 17.737 9.80672 18.3009 10.1239 18.6181L12.9637 21.5596C13.6364 22.2353 13.4752 21.8882 14.151 21.1125L19.4249 15.2307C19.7179 14.8914 19.6813 14.381 19.343 14.0873C19.0037 13.7945 18.4934 13.8343 18.198 14.1727ZM16.3774 20.3774C15.9286 20.3774 15.5659 20.7401 15.5659 21.1886V22.8115H9.07486V16.3204H13.943C14.3918 16.3204 14.7545 15.9577 14.7545 15.509C14.7545 15.0602 14.3918 14.6975 13.943 14.6975H8.26342C7.81468 14.6975 7.45198 15.0602 7.45198 15.509V23.6229C7.45198 24.0716 7.81468 24.4343 8.26342 24.4343H16.3774C16.8261 24.4343 17.1888 24.0716 17.1888 23.6229V21.1886C17.1888 20.7401 16.8261 20.3774 16.3774 20.3774ZM12.3204 6.58359C12.3204 6.08863 12.5865 5.77238 12.7261 5.77238C13.7321 5.77238 14.8389 4.90574 15.2998 3.75528L15.7168 2.71246C15.9245 2.19082 16.6271 1.71541 17.1888 1.71541H19.6229C20.1843 1.71541 20.887 2.19082 21.0947 2.71246L21.5119 3.75597C21.5668 3.89144 21.6319 4.023 21.7025 4.1495H20.4343C19.9856 4.1495 19.6229 4.51221 19.6229 4.96094C19.6229 5.40967 19.9856 5.77238 20.4343 5.77238H23.6799C23.7293 5.77238 23.7707 5.75283 23.8179 5.74478C23.9071 5.75697 23.997 5.77238 24.0856 5.77238C24.225 5.77238 24.4913 6.08863 24.4913 6.58359V7.39503C24.4913 7.84307 24.1277 8.20647 23.6799 8.20647H13.1318C12.6838 8.20647 12.3204 7.84307 12.3204 7.39503V6.58359ZM31.7938 5.77238H26.1139C26.0719 5.77238 26.0353 5.7894 25.9955 5.79584C25.7213 4.84157 24.9731 4.1495 24.0856 4.1495C23.8169 4.1495 23.2507 3.72998 23.0193 3.15222L22.6023 2.10894C22.1487 0.978719 20.84 0.0925293 19.6229 0.0925293H17.1888C15.9716 0.0925293 14.6629 0.978719 14.2094 2.10963L13.7922 3.15222C13.561 3.72998 12.9945 4.1495 12.7261 4.1495C11.8383 4.1495 11.0903 4.84157 10.816 5.79584C10.7764 5.7894 10.7398 5.77238 10.6975 5.77238H4.20645C1.96947 5.77238 0.149475 7.59214 0.149475 9.82935V39.8506C0.149475 42.0875 1.96947 43.9075 4.20645 43.9075H31.7938C34.0308 43.9075 35.8505 42.0875 35.8505 39.8506V9.82935C35.8505 7.59214 34.0308 5.77238 31.7938 5.77238Z" fill="#1253C0"/>
</svg>
