<svg width="34" height="34" viewBox="0 0 34 34" fill="none" xmlns="http://www.w3.org/2000/svg">
<path d="M28.9945 30.194C28.9945 31.1859 28.1874 31.9933 27.1954 31.9933H6.80478C5.81283 31.9933 5.00567 31.1859 5.00567 30.194V8.0044C5.00567 7.01245 5.81283 6.20512 6.80478 6.20512H11.6025C11.6025 7.19707 12.4099 8.0044 13.4018 8.0044H21.1982C22.1901 8.0044 22.9973 7.19707 22.9973 6.20512H27.1954C28.1874 6.20512 28.9945 7.01245 28.9945 8.0044V30.194ZM24.1968 24.7965H20.5984C20.2667 24.7965 19.9987 25.0646 19.9987 25.3962C19.9987 25.7279 20.2667 25.996 20.5984 25.996H24.1968C24.5285 25.996 24.7964 25.7279 24.7964 25.3962C24.7964 25.0646 24.5285 24.7965 24.1968 24.7965ZM15.2009 27.7951H10.4032V22.9974H15.2009V27.7951ZM15.8007 21.7979H9.80341C9.47174 21.7979 9.20365 22.0659 9.20365 22.3976V28.3949C9.20365 28.7265 9.47174 28.9946 9.80341 28.9946H15.8007C16.1323 28.9946 16.4004 28.7265 16.4004 28.3949V22.3976C16.4004 22.0659 16.1323 21.7979 15.8007 21.7979ZM24.1968 15.201H20.5984C20.2667 15.201 19.9987 15.4691 19.9987 15.8008C19.9987 16.1324 20.2667 16.4004 20.5984 16.4004H24.1968C24.5285 16.4004 24.7964 16.1324 24.7964 15.8008C24.7964 15.4691 24.5285 15.201 24.1968 15.201ZM17.1464 11.2147L13.6699 15.2304L12.0265 13.5962C11.7921 13.3623 11.4131 13.3808 11.1785 13.6147C10.9441 13.8492 10.9441 14.266 11.1785 14.5004L13.2775 16.6746C13.7748 17.174 13.6556 16.9175 14.1551 16.3441L18.0532 11.9967C18.2698 11.7459 18.2427 11.3687 17.9927 11.1516C17.7419 10.9352 17.3647 10.9646 17.1464 11.2147ZM15.8007 15.8008C15.469 15.8008 15.2009 16.0689 15.2009 16.4004V17.5999H10.4032V12.8021H14.0014C14.3331 12.8021 14.6012 12.534 14.6012 12.2024C14.6012 11.8707 14.3331 11.6026 14.0014 11.6026H9.80341C9.47174 11.6026 9.20365 11.8707 9.20365 12.2024V18.1996C9.20365 18.5313 9.47174 18.7994 9.80341 18.7994H15.8007C16.1323 18.7994 16.4004 18.5313 16.4004 18.1996V16.4004C16.4004 16.0689 16.1323 15.8008 15.8007 15.8008ZM12.802 5.60536C12.802 5.23952 12.9987 5.00577 13.1019 5.00577C13.8455 5.00577 14.6635 4.36521 15.0042 3.51487L15.3124 2.74409C15.4659 2.35853 15.9853 2.00714 16.4004 2.00714H18.1995C18.6145 2.00714 19.1339 2.35853 19.2874 2.74409L19.5957 3.51538C19.6364 3.61551 19.6845 3.71275 19.7367 3.80625H18.7993C18.4676 3.80625 18.1995 4.07434 18.1995 4.40601C18.1995 4.73768 18.4676 5.00577 18.7993 5.00577H21.1982C21.2347 5.00577 21.2653 4.99132 21.3002 4.98537C21.3661 4.99438 21.4326 5.00577 21.4981 5.00577C21.6011 5.00577 21.7979 5.23952 21.7979 5.60536V6.20512C21.7979 6.53628 21.5292 6.80488 21.1982 6.80488H13.4018C13.0706 6.80488 12.802 6.53628 12.802 6.20512V5.60536ZM27.1954 5.00577H22.9973C22.9662 5.00577 22.9391 5.01835 22.9097 5.02311C22.7071 4.31778 22.1541 3.80625 21.4981 3.80625C21.2995 3.80625 20.881 3.49617 20.7099 3.06913L20.4017 2.29801C20.0665 1.46263 19.0992 0.807617 18.1995 0.807617H16.4004C15.5008 0.807617 14.5335 1.46263 14.1983 2.29852L13.8899 3.06913C13.719 3.49617 13.3003 3.80625 13.1019 3.80625C12.4457 3.80625 11.8929 4.31778 11.6901 5.02311C11.6608 5.01835 11.6338 5.00577 11.6025 5.00577H6.80478C5.15136 5.00577 3.80615 6.35081 3.80615 8.0044V30.194C3.80615 31.8474 5.15136 33.1926 6.80478 33.1926H27.1954C28.8489 33.1926 30.1939 31.8474 30.1939 30.194V8.0044C30.1939 6.35081 28.8489 5.00577 27.1954 5.00577Z" fill="white"/>
</svg>
