<svg width="149" height="46" viewBox="0 0 149 46" fill="none" xmlns="http://www.w3.org/2000/svg">
<path fill-rule="evenodd" clip-rule="evenodd" d="M39.0148 40.6987C38.946 40.9336 39.0012 40.9503 38.7414 40.939C38.6211 40.9337 38.3836 40.8884 38.2397 40.8727L39.0148 40.6987ZM109.403 27.8213C109.222 26.6866 109.394 24.1624 109.443 22.856C109.502 21.3019 109.605 19.3783 109.546 17.8472L104.326 17.8463C104.206 19.2023 104.299 25.6296 104.299 27.5331C104.299 30.8488 103.791 33.8734 107.536 34.0435C109.249 34.1215 110.489 33.7059 111.156 32.7029C112.252 31.0529 113.588 28.5296 114.716 26.6698C115.018 26.1719 116.121 23.9611 116.597 23.8799C116.974 24.5801 116.475 32.2799 116.534 33.8769L121.761 33.8284C121.815 30.6267 121.766 27.3818 121.766 24.1753C121.766 21.0152 122.191 18.0748 118.698 17.6997C116.844 17.5005 115.865 17.8925 114.979 18.8977C114.417 19.536 111.318 25.1137 110.55 26.4652C110 27.4337 110.018 27.7094 109.403 27.8213ZM78.4968 14.1982C78.1737 14.3679 77.8453 14.4554 77.5112 14.4554C76.6845 14.4554 76.1863 13.9518 76.1863 13.1251C76.1863 12.7037 76.3178 12.3697 76.575 12.1233C76.8378 11.8769 77.1608 11.751 77.5441 11.751C77.8398 11.751 78.1135 11.8113 78.3709 11.9317V11.3897C78.1464 11.2857 77.8398 11.231 77.4619 11.231C76.9036 11.231 76.4437 11.4117 76.0824 11.7784C75.7265 12.1398 75.5458 12.5887 75.5458 13.1251C75.5458 13.6671 75.71 14.1105 76.044 14.4554C76.378 14.8002 76.8434 14.9756 77.4401 14.9756C77.8618 14.9756 78.2175 14.8989 78.4968 14.7455V14.1982ZM81.5681 11.2967H78.7323V11.7949H79.8381V14.9153H80.4678V11.7949H81.5681V11.2967ZM82.6743 14.9153V13.7328H83.3696C83.7472 13.7328 84.0648 13.6179 84.3113 13.3934C84.5576 13.1634 84.6836 12.8678 84.6836 12.5066C84.6836 12.1781 84.5686 11.8989 84.3332 11.6636C84.1033 11.4282 83.7746 11.3076 83.3531 11.3076H82.0392V14.9153H82.6743ZM83.2216 11.7895C83.7692 11.7895 84.0429 12.1123 84.0429 12.523C84.0429 12.7146 83.9773 12.8843 83.8514 13.0321C83.7254 13.1744 83.5228 13.2455 83.2546 13.2455H82.6687V11.7895H83.2216ZM86.9939 14.9756C87.5469 14.9756 88.0068 14.8002 88.3626 14.4445C88.7186 14.0887 88.8993 13.6397 88.8993 13.1087C88.8993 12.5777 88.7186 12.1343 88.3626 11.7784C88.0068 11.4171 87.5524 11.2364 86.9994 11.2364C86.4574 11.2364 86.003 11.4171 85.6361 11.7784C85.2694 12.1398 85.0832 12.5831 85.0832 13.1087C85.0832 13.6507 85.2529 14.094 85.5978 14.4501C85.9427 14.8002 86.408 14.9756 86.9939 14.9756ZM85.7183 13.1087C85.7183 12.7311 85.8388 12.4135 86.0742 12.1561C86.315 11.8989 86.6217 11.7675 86.9994 11.7675C87.3773 11.7675 87.6837 11.8989 87.9191 12.1561C88.1545 12.4135 88.2752 12.7311 88.2752 13.1087C88.2752 13.492 88.1545 13.8149 87.9191 14.0723C87.6837 14.3294 87.3773 14.4609 86.9994 14.4609C86.6107 14.4609 86.3041 14.335 86.0687 14.0777C85.8333 13.8204 85.7183 13.4974 85.7183 13.1087ZM92.7261 11.242H92.6113L90.2133 13.7601H90.1913V11.3022H89.567V14.9591H89.6822L92.091 12.4464H92.1075V14.9153H92.7261V11.242ZM96.0439 11.2967H93.208V11.7949H94.3139V14.9153H94.9436V11.7949H96.0439V11.2967ZM97.15 14.4171V13.2675H98.7433V12.7803H97.15V11.8004H98.9019V11.3022H96.5203V14.9153H99.0225V14.4171H97.15ZM101.798 14.9153H102.433V11.3076H100.161L99.9366 13.6727C99.9093 13.9682 99.8436 14.1817 99.7505 14.3076C99.6575 14.4336 99.4822 14.5321 99.2249 14.5922L99.4658 15.0303C99.8327 14.9756 100.09 14.8387 100.238 14.6252C100.386 14.4116 100.484 14.0832 100.533 13.6507L100.714 11.7675H101.798V14.9153ZM104.924 14.9153C105.258 14.9153 105.543 14.8167 105.768 14.6252C105.997 14.4336 106.112 14.1652 106.112 13.8313C106.112 13.5193 106.003 13.2511 105.789 13.0266C105.576 12.8021 105.242 12.6873 104.782 12.6873H103.884V11.2967H103.249V14.9153H104.924ZM104.755 13.1524C105.171 13.1524 105.483 13.3934 105.483 13.8039C105.483 14.2147 105.204 14.4336 104.809 14.4336H103.884V13.1524H104.755ZM109.682 11.3022H109.058V12.7747H107.377V11.3022H106.747V14.9153H107.377V13.2784H109.058V14.9153H109.682V11.3022ZM113.553 14.9153L111.921 11.2529H111.806L110.158 14.9153H110.766L111.051 14.2255H112.633L112.923 14.9153H113.553ZM111.856 12.3587L112.458 13.7821H111.232L111.834 12.3587H111.856ZM114.434 14.9153L115.59 13.3878V13.3113C115.256 13.2839 114.998 13.1854 114.818 13.0266C114.637 12.8678 114.549 12.6926 114.549 12.5119C114.549 12.0796 114.856 11.7949 115.316 11.7949H115.962V14.9153H116.591V11.3076H115.217C114.861 11.3076 114.56 11.4117 114.303 11.6142C114.051 11.8168 113.925 12.1069 113.925 12.4792C113.925 12.9391 114.221 13.3661 114.812 13.5358L113.712 14.9153H114.434ZM118.716 11.3022V14.9153H119.351V13.1032C119.499 13.2566 119.756 13.5577 120.123 14.001C120.495 14.4445 120.763 14.7455 120.922 14.9153H121.661C121.491 14.7402 121.207 14.4226 120.796 13.9628C120.386 13.5029 120.112 13.1963 119.964 13.043L121.535 11.3022H120.84L119.351 12.9827V11.3022H118.716ZM123.884 14.9756C124.437 14.9756 124.897 14.8002 125.253 14.4445C125.609 14.0887 125.789 13.6397 125.789 13.1087C125.789 12.5777 125.609 12.1343 125.253 11.7784C124.897 11.4171 124.442 11.2364 123.89 11.2364C123.347 11.2364 122.893 11.4171 122.526 11.7784C122.159 12.1398 121.973 12.5831 121.973 13.1087C121.973 13.6507 122.143 14.094 122.488 14.4501C122.833 14.8002 123.298 14.9756 123.884 14.9756ZM122.608 13.1087C122.608 12.7311 122.729 12.4135 122.964 12.1561C123.205 11.8989 123.512 11.7675 123.89 11.7675C124.267 11.7675 124.574 11.8989 124.809 12.1561C125.045 12.4135 125.165 12.7311 125.165 13.1087C125.165 13.492 125.045 13.8149 124.809 14.0723C124.574 14.3294 124.267 14.4609 123.89 14.4609C123.501 14.4609 123.194 14.335 122.959 14.0777C122.723 13.8204 122.608 13.4974 122.608 13.1087ZM129.49 12.7037C129.496 12.7037 129.507 12.7091 129.512 12.7146C129.512 12.9774 129.512 13.3441 129.507 13.8204V14.9153H130.109V11.2584H130C129.912 11.3788 129.627 11.7346 129.151 12.326C128.674 12.917 128.39 13.2784 128.291 13.4153L126.578 11.2584H126.457V14.9153H127.059V12.7365C127.065 12.7365 127.07 12.7311 127.076 12.7255L128.231 14.1762H128.346L129.49 12.7037ZM133.876 11.3022H130.919V14.9153H131.549V11.8004H133.252V14.9153H133.876V11.3022ZM137.752 14.9153L136.12 11.2529H136.005L134.357 14.9153H134.965L135.25 14.2255H136.832L137.122 14.9153H137.752ZM136.055 12.3587L136.657 13.7821H135.431L136.033 12.3587H136.055ZM141.146 11.3022H140.522V12.7747H138.841V11.3022H138.212V14.9153H138.841V13.2784H140.522V14.9153H141.146V11.3022ZM145.116 11.242H145.001L142.603 13.7601H142.581V11.3022H141.957V14.9591H142.072L144.481 12.4464H144.497V14.9153H145.116V11.242ZM146.348 14.9153L147.503 13.3878V13.3113C147.169 13.2839 146.912 13.1854 146.731 13.0266C146.55 12.8678 146.463 12.6926 146.463 12.5119C146.463 12.0796 146.769 11.7949 147.229 11.7949H147.875V14.9153H148.505V11.3076H147.131C146.775 11.3076 146.474 11.4117 146.216 11.6142C145.964 11.8168 145.838 12.1069 145.838 12.4792C145.838 12.9391 146.134 13.3661 146.725 13.5358L145.625 14.9153H146.348ZM144.651 25.9741C144.768 28.3214 148.485 28.1878 148.364 25.7363C148.25 23.4138 144.529 23.5156 144.651 25.9741ZM79.1133 26.4538C79.9109 24.1497 76.419 22.9642 75.5975 25.2376C74.7515 27.5785 78.3174 28.7531 79.1133 26.4538ZM86.1403 33.8744L91.2733 33.8741L91.2379 17.8463H86.1227L86.1403 33.8744ZM96.8867 26.1818C96.6486 25.6481 96.8509 25.2062 97.133 24.8102C97.9067 23.7239 102.59 18.4553 102.889 17.8463H96.852C95.9198 19.1171 94.9586 20.501 94.0112 21.8098C90.9368 26.0567 91.0238 25.5084 94.7483 30.2421C95.0335 30.6046 97.3815 33.8141 97.8183 33.8741L103.765 33.8343L96.8867 26.1818ZM122.716 21.8032L128.444 21.8105L128.457 33.8719L133.608 33.8736L133.637 21.8248L139.353 21.8105L139.325 17.8456L122.718 17.8834L122.716 21.8032ZM53.0222 30.5999L52.8018 30.6562C52.9695 31.0955 53.4544 31.0509 53.3956 30.4176L53.0532 30.2882C53.2154 30.5752 53.0572 30.5456 53.0222 30.5999ZM42.6244 4.50168C42.8221 4.67748 42.9465 4.74968 43.0784 4.91609L42.7751 4.92626L42.4737 4.9246L42.1752 4.9162C42.3124 4.75565 42.4335 4.6829 42.6244 4.50168ZM42.496 4.42108L42.0517 4.80209C41.7941 4.80287 41.6785 4.62784 41.5228 4.35706L41.9309 3.92861C42.1762 4.04692 42.3978 4.19022 42.496 4.42108ZM43.2094 4.79889L42.7509 4.40261C42.981 4.14809 43.0637 4.23499 43.198 3.88406C43.4693 4.02459 43.5546 4.14013 43.6884 4.37928C43.6081 4.54624 43.4786 4.80276 43.2094 4.79889ZM43.1954 3.85332C42.938 3.9839 42.7703 4.19431 42.5291 4.25291C42.4394 4.00092 42.3209 4.13935 42.0875 3.79096C42.4442 3.78631 42.9031 3.7359 43.1954 3.85332ZM39.2076 39.7608L39.3856 39.6813L39.3217 39.8779C39.1225 40.5674 39.328 40.4561 37.5997 40.6875C36.9841 40.77 35.9457 40.5549 35.361 40.4435L39.2076 39.7608ZM32.2008 39.826C32.7293 39.6162 33.55 39.5986 34.1414 39.5049C34.8171 39.3977 35.4663 39.286 36.1291 39.155L39.8986 38.3202C39.8422 38.533 39.6664 38.9725 39.5693 39.1987C39.4245 39.5355 39.4301 39.4634 38.6959 39.6002C37.9862 39.7325 37.3026 39.8568 36.5724 39.9727C33.9774 40.3844 34.6626 40.3609 32.2008 39.826ZM29.021 39.046C33.1494 38.5494 35.6848 38.0129 39.5173 36.9636C39.956 36.8435 40.5359 36.6058 40.941 36.5522C39.7057 38.3241 40.6087 37.8739 38.9051 38.3039C37.8463 38.571 36.7624 38.7912 35.6741 38.9946C34.5601 39.2028 33.4265 39.3831 32.2896 39.5301C30.9679 39.701 30.2391 39.373 29.021 39.046ZM26.072 38.1445C29.6153 38.1218 32.5793 38.1153 36.1382 37.2784C37.3413 36.9954 38.4531 36.6161 39.527 36.1419C40.3693 35.7699 41.7223 34.8497 42.5937 34.6773C42.5974 35.3406 42.6092 35.1649 42.1368 35.4378C40.9381 36.1299 42.1916 35.9413 39.3785 36.7471C36.4052 37.5987 33.5671 38.1878 30.4647 38.5975C27.9616 38.9281 28.4859 38.9653 26.072 38.1445ZM46.2645 34.0956C46.3557 33.7106 46.316 33.5986 46.6887 33.517C46.9684 33.4556 47.3657 33.3815 47.6557 33.3907C47.2732 33.6368 46.6923 33.9613 46.2645 34.0956ZM46.0963 35.9489C46.0576 35.5514 46.0448 35.2697 46.0931 34.8698C46.1502 34.3982 46.1622 34.448 46.534 34.2609C48.9658 33.0375 48.3362 33.1076 51.7166 32.9628C51.4335 33.3503 49.4222 34.385 49.0443 34.5886C48.3206 34.9786 46.8873 35.731 46.0963 35.9489ZM52.529 30.7315C52.385 29.9753 53.5829 29.7109 53.6867 30.5203C53.7912 31.3352 52.6544 31.3897 52.529 30.7315ZM46.4422 37.5022C46.5187 36.7233 46.2827 36.7952 46.1902 36.2278C46.4546 36.0333 47.3105 35.7114 47.6612 35.5422C49.147 34.825 50.6292 34.0698 51.9721 33.1473C52.7192 32.6339 54.1623 33.2746 55.6154 32.3449C56.3843 31.853 57.6303 30.7573 58.3 30.5103C57.6684 31.5004 53.9177 33.9828 52.9357 34.5616C52.0025 35.1116 50.8961 35.707 49.8595 36.1543C49.011 36.5202 47.3511 37.3226 46.4422 37.5022ZM51.7666 40.6337C52.2958 40.5513 53.6628 40.0165 54.2509 39.7919C58.6964 38.094 61.5966 36.4842 65.0813 33.4464C65.6694 32.9335 66.1964 32.2784 66.7668 31.6701C66.9838 31.4388 67.3316 30.994 67.5391 30.7097C67.7596 30.4076 68.0566 30.0031 68.2122 29.682C68.6835 29.6928 69.02 29.703 69.2797 29.9673C69.2326 30.5689 66.8096 33.2012 66.1248 33.8122C65.5085 34.3622 64.8917 34.9139 64.2051 35.4341C62.0691 37.0523 60.0024 38.225 57.3469 39.1947C56.3477 39.5597 52.8237 40.6881 51.7666 40.6337ZM45.8559 38.9318C46.4828 37.5651 46.1878 37.898 47.3812 37.444C51.6046 35.8376 54.2425 34.3109 57.5868 31.5316C59.5366 29.9112 58.1104 30.1685 61.4874 29.9679L59.2027 32.2416C56.5745 34.6742 51.7563 36.9781 48.22 38.2047C47.5918 38.4226 46.4805 38.839 45.8559 38.9318ZM44.8533 40.2495C45.0258 40.1521 45.43 39.4519 45.6307 39.3074C45.8216 39.17 46.7275 38.9504 47.0518 38.8472C51.5091 37.4301 57.5469 34.634 60.6177 31.2464C61.0017 30.8227 61.1525 30.832 61.5565 30.3009C61.7457 30.052 61.7333 29.9507 62.1351 29.9144C62.6113 29.8714 63.4634 29.8053 63.9186 29.8495C63.3624 30.5356 62.8109 31.1791 62.1882 31.7612L60.7573 33.0419C59.1831 34.2503 57.5701 35.4788 55.72 36.3636C54.023 37.1749 52.5066 37.905 50.5856 38.6112C49.6858 38.9419 45.6492 40.2586 44.8533 40.2495ZM43.9158 41.2518C44.6874 40.3478 45.1418 40.4856 46.8158 40.0431C47.9375 39.7466 48.9476 39.4176 50.0476 39.0546C53.5649 37.8938 58.2285 35.5932 60.9305 33.2148C62.686 31.6697 62.6401 31.7921 64.0814 30.0384C64.3372 29.7272 64.3067 29.7839 64.8455 29.7704C65.1934 29.7617 65.5509 29.7361 65.896 29.7387C65.737 30.172 64.3344 31.6731 64.0095 32.0004C60.4927 35.5429 55.5295 38.0507 50.6736 39.6028C49.317 40.0364 45.2981 41.2417 43.9158 41.2518ZM45.4368 41.2295C46.3954 41.218 50.6948 39.881 51.7084 39.5118C55.6442 38.0781 59.1954 36.4281 62.3174 33.8473C62.718 33.5161 63.0384 33.222 63.4164 32.9124C64.037 32.404 65.2823 30.9921 65.8343 30.2854C66.4211 29.5338 65.9274 29.7158 67.9193 29.681C67.6949 30.1016 67.3314 30.5899 67.0724 30.9208C66.7244 31.3653 66.4636 31.6442 66.0872 32.0418C62.4147 35.9213 57.9041 38.3497 52.7842 40.0555C51.8487 40.3672 50.429 40.8731 49.4439 41.0087C48.4678 41.1432 46.3861 41.3282 45.4368 41.2295ZM44.0564 26.0807L48.473 26.3251L48.5196 27.4747L44.0675 27.2545L44.0564 26.0807ZM31.9574 12.602L32.7538 12.5371C32.7545 14.1615 32.8824 26.5328 32.6982 26.9926L31.9593 27.0032L31.9574 12.602ZM41.1286 27.0298L41.1033 25.9129L41.9697 25.702L41.9718 26.8163L41.1286 27.0298ZM34.7447 12.4601L35.5338 12.4146L35.5005 26.8565L34.7368 26.8682L34.7447 12.4601ZM34.1336 12.4882C34.2163 13.2091 34.1545 22.3949 34.1545 23.9552C34.155 27.2849 34.4457 26.9157 33.3549 26.9614L33.3591 12.5211L34.1336 12.4882ZM30.9857 25.3569L30.9849 26.3283L30.2332 26.4739L30.2503 25.5094L30.9857 25.3569ZM50.5581 24.1254L51.6558 24.1269L51.6615 25.2532L50.5383 25.2463L50.5581 24.1254ZM44.0601 23.2775L48.5108 23.8104L48.513 24.9593L44.0597 24.4577L44.0601 23.2775ZM41.9538 23.1626L41.9568 24.2927L41.0925 24.474L41.0855 23.3412L41.9538 23.1626ZM30.9784 23.1918L30.9814 24.0305C30.8539 24.2317 30.9413 24.1654 30.6234 24.2389C30.4913 24.2694 30.365 24.2865 30.2332 24.285L30.2215 23.3519L30.9784 23.1918ZM26.9646 23.1174C26.9302 23.4407 27.082 23.3154 26.7229 23.3398C26.8108 23.0626 26.7386 23.2182 26.9646 23.1174ZM25.3957 23.3446C25.1206 23.3018 25.2858 23.4168 25.21 23.1333L25.3957 23.3446ZM26.0497 22.2182C26.3767 22.3807 26.6554 22.7018 26.9231 22.954C26.6395 23.1998 26.6111 23.3361 26.0501 23.3342C25.5446 23.3326 25.402 23.288 25.2264 22.8795L26.0497 22.2182ZM50.5408 21.618L51.6631 21.6211L51.6494 22.7357L51.3639 22.7384L50.8362 22.7395L50.5445 22.7331L50.5408 21.618ZM26.174 22.1783C26.3248 21.869 26.6898 21.6273 26.9259 21.4844L26.9429 22.7532C26.6402 22.6029 26.7215 22.4766 26.174 22.1783ZM25.2501 21.544C25.5458 21.6591 25.7198 21.9182 25.9467 22.0944C25.6076 22.4165 25.7323 22.3637 25.2289 22.701L25.2501 21.544ZM30.2804 21.3199C30.3846 21.1101 30.2616 21.2099 30.5988 21.1255C30.7318 21.0922 30.8715 21.0719 31.0142 21.0451L31.002 22.0175L30.2826 22.1509L30.2804 21.3199ZM44.0614 20.716L48.5144 21.3701L48.5047 22.5278L44.0593 21.8988L44.0614 20.716ZM41.9419 20.6284L41.9345 21.7621L41.0751 21.8984L41.0718 20.8129L41.9419 20.6284ZM25.2651 21.2447C25.3932 21.0466 25.8887 20.647 26.0497 20.5602C26.2393 20.6492 26.385 20.7857 26.5388 20.9072C26.7322 21.0599 26.8171 21.1297 26.8986 21.3523C26.5679 21.548 26.4071 21.7113 26.1346 21.9938C25.8655 21.9071 25.3883 21.5009 25.2651 21.2447ZM26.1775 20.5164C26.3271 20.2343 26.3401 20.2965 26.5299 20.142C26.7259 19.9828 26.6382 19.9939 26.8773 19.8818L26.9011 21.0109C26.5718 20.8749 26.5208 20.6873 26.1775 20.5164ZM25.3316 19.9246L25.9441 20.4615C25.6952 20.6611 25.5628 20.7961 25.2586 20.971L25.3316 19.9246ZM50.5714 19.0949L51.6565 19.0964L51.6278 20.2306L50.5463 20.2274L50.5714 19.0949ZM31.0143 18.8852L31.0173 19.7388C30.8963 19.9523 30.5377 19.9557 30.2765 19.9876L30.2862 19.0341L31.0143 18.8852ZM25.349 19.7388C25.5108 19.462 25.7818 19.2292 26.0497 19.0469C26.3299 19.1686 26.7104 19.6433 26.7746 19.7856C26.5058 20.0315 26.396 20.0656 26.1398 20.34C25.8604 20.2618 25.9212 20.2636 25.7123 20.0774L25.349 19.7388ZM44.0631 18.0171C44.7998 18.1249 45.5935 18.3123 46.3246 18.4561C46.7411 18.5382 48.3191 18.7181 48.516 18.986L48.4947 20.0297L44.058 19.191L44.0631 18.0171ZM41.9306 18.0977L41.9355 19.2099L41.0613 19.368L41.0713 18.2546L41.9306 18.0977ZM25.3326 18.3388C25.575 18.4761 25.7755 18.6712 25.9491 18.9238L25.3133 19.5453L25.3326 18.3388ZM26.8497 18.3053L26.867 19.5934C26.6341 19.4575 26.2943 19.1566 26.1735 18.8954L26.8497 18.3053ZM26.0651 17.2634L26.8194 18.0071C26.7032 18.2812 26.2566 18.6554 26.0497 18.8033C25.8501 18.6642 25.3992 18.1814 25.3167 17.9828L26.0651 17.2634ZM50.5506 16.5882L51.6583 16.5902L51.6606 17.7049L50.5397 17.6992L50.5506 16.5882ZM31.0103 16.7217L31.012 17.5553C30.9068 17.765 31.0301 17.6658 30.6918 17.75C30.5619 17.7823 30.4183 17.8034 30.2799 17.827L30.2912 16.8583L31.0103 16.7217ZM26.7984 16.5697L26.8049 17.7516C26.5762 17.5602 26.3167 17.3982 26.1827 17.0828L26.7984 16.5697ZM25.3825 16.6164L25.9568 17.1818L25.3483 17.699L25.3825 16.6164ZM41.0503 15.8236C41.1696 15.6091 41.655 15.5567 41.9173 15.556L41.9266 16.6543L41.0611 16.8446L41.0503 15.8236ZM44.0532 15.25C44.6621 15.3778 48.2262 16.2571 48.51 16.4259L48.5103 17.5373L44.0536 16.4242L44.0532 15.25ZM25.3835 16.4371C25.4833 16.1255 25.8292 15.8959 26.0497 15.6917C26.2774 15.8204 26.6197 16.1465 26.766 16.3715C26.4667 16.6178 26.4238 16.8741 26.0355 17.0506L25.3835 16.4371ZM26.1913 15.5977C26.2822 15.447 26.5538 15.1115 26.7735 15.0137L26.7756 16.1512L26.1913 15.5977ZM25.4234 15.0612L25.954 15.5913L25.3895 16.1002L25.4234 15.0612ZM31.0075 14.559L31.0005 15.502L30.2743 15.6592L30.2685 14.6845L31.0075 14.559ZM50.5408 14.0678L51.6644 14.0703L51.6418 15.1988L51.363 15.201L50.8363 15.2019L50.5469 15.1965L50.5408 14.0678ZM25.418 14.7695C25.5289 14.4747 25.8208 14.2241 26.0497 14.0694C26.2992 14.1771 26.6371 14.5061 26.7406 14.7695C26.622 15.0241 26.2902 15.3293 26.0497 15.4428C25.8305 15.267 25.5457 15.0593 25.418 14.7695ZM26.7184 13.4074L26.7513 14.4905C26.532 14.3846 26.5973 14.4255 26.4198 14.2479C26.2648 14.0928 26.2805 14.1255 26.1621 13.9189L26.7184 13.4074ZM25.4523 13.462C25.6783 13.5723 25.7912 13.6799 25.9431 13.9458L25.4356 14.4356L25.4523 13.462ZM30.9988 12.3889L31.0046 13.3311L30.2608 13.4864L30.2674 12.5181L30.9988 12.3889ZM26.0497 13.822C25.8675 13.7074 25.4439 13.3884 25.4797 13.1352C25.5085 12.9309 25.8773 12.5921 26.0497 12.4756C26.3915 12.7472 26.4803 12.8589 26.7389 13.1374L26.0497 13.822ZM50.5615 11.5552L51.6546 11.5566L51.6615 12.687L50.5379 12.6792L50.5615 11.5552ZM26.6935 11.8032L26.6839 12.9186C26.6419 12.8356 26.3072 12.561 26.1656 12.3469L26.6935 11.8032ZM25.4882 11.8691C25.6706 12.0073 25.8232 12.1782 25.9512 12.369L25.4676 12.8533L25.4882 11.8691ZM26.0497 12.2173C25.4382 11.7005 25.2401 11.286 26.0497 10.7356C26.1681 10.8291 26.2572 10.9334 26.386 11.0437C26.9212 11.5025 26.5493 11.9574 26.0497 12.2173ZM26.638 10.1175L26.6688 11.1077C26.4628 10.9979 26.5576 11.0766 26.3891 10.891C26.2951 10.7877 26.2647 10.7411 26.1663 10.6137L26.638 10.1175ZM25.556 10.1583L25.9554 10.6362C25.7889 10.8627 25.7155 10.8619 25.5215 11.0495L25.556 10.1583ZM25.5372 9.87557C25.634 9.61485 25.8647 9.46282 26.0497 9.29244C26.2725 9.41661 26.5227 9.63133 26.6285 9.87557C26.4646 10.0834 26.2755 10.3529 26.0497 10.4765C25.911 10.3464 25.6169 10.0844 25.5372 9.87557ZM26.6225 8.76382V9.60048L26.1697 9.17668L26.6225 8.76382ZM25.5703 8.79412C25.6381 8.89904 25.8488 9.04997 25.9555 9.19304L25.5426 9.54829L25.5703 8.79412ZM26.0497 9.043C25.7607 8.81147 25.565 8.7584 25.5733 8.21474H26.6047C26.6063 8.59874 26.5093 8.82618 26.0497 9.043ZM45.5702 8.14387C45.6468 8.08848 45.5568 8.10506 45.7188 8.06902L46.1594 8.06924C46.325 8.10031 46.2308 8.08848 46.3073 8.14387C46.1256 8.23465 45.7511 8.23398 45.5702 8.14387ZM23.3379 4.33959L24.1659 4.3365C24.2454 4.36071 24.1702 4.20934 24.2489 4.45447L24.2488 4.92151L24.3233 4.89972C24.3233 4.62264 24.2796 4.50257 24.3922 4.30952C24.5215 4.4914 24.4843 4.62839 24.4559 4.87728C24.3228 4.95512 24.4923 4.9309 24.1716 4.94484C24.0948 4.94826 23.9497 4.94052 23.8649 4.94063C23.6403 4.94108 23.3706 4.99846 23.2767 4.84953L23.2562 4.45447C23.3054 4.29802 23.2259 4.34357 23.3379 4.33959ZM43.436 4.9277C43.547 4.68213 43.5889 4.7017 43.7175 4.4945C43.9986 4.62087 44.0137 4.70601 44.1792 4.91045L43.9051 4.93168L43.7544 4.93245L43.436 4.9277ZM41.013 4.92924C41.1274 4.68688 41.1143 4.66997 41.4188 4.505C41.7404 4.67008 41.7186 4.69263 41.8281 4.93079L41.013 4.92924ZM39.7935 4.89917C40.0028 4.6818 39.9238 4.66908 40.2256 4.48764L40.6591 4.92062L40.3642 4.93157L40.062 4.9382L39.7935 4.89917ZM38.5477 4.92416C38.6831 4.6944 38.779 4.66046 38.9615 4.48023L39.389 4.92416L39.0834 4.93168L38.8573 4.93323L38.5477 4.92416ZM37.7273 4.49715C37.8487 4.58604 37.9094 4.63304 37.9971 4.71099C38.1399 4.83803 38.0828 4.77357 38.1859 4.92427L37.2795 4.91786L37.7273 4.49715ZM36.0196 4.90592C36.1804 4.73642 36.2237 4.6264 36.4578 4.48742L36.8984 4.92239L36.5972 4.9319L36.2954 4.93687L36.0196 4.90592ZM34.8184 4.90182C34.9624 4.75765 35.0125 4.68202 35.1315 4.49892C35.4395 4.56471 35.4901 4.62242 35.659 4.90514L35.3918 4.93157L35.0898 4.93776L34.8184 4.90182ZM33.6802 4.90979C33.8332 4.70336 33.8644 4.61214 34.1478 4.49538C34.2812 4.70712 34.3187 4.67571 34.4331 4.92924L34.111 4.93168L33.96 4.93599L33.6802 4.90979ZM32.7918 4.49372L33.1832 4.91321L32.9056 4.93223L32.6791 4.93809L32.3994 4.89818L32.7918 4.49372ZM31.574 4.48819L31.9829 4.91686L31.7001 4.93168L31.4741 4.93378L31.1476 4.89652L31.574 4.48819ZM30.3573 4.49461L30.7597 4.933L29.9303 4.89895L30.3573 4.49461ZM28.744 4.92714C28.887 4.62098 28.891 4.63171 29.157 4.49394L29.5082 4.92084L28.744 4.92714ZM27.9109 4.48521L28.3085 4.92394L28.0085 4.93334L27.782 4.93853L27.4982 4.89972L27.9109 4.48521ZM26.515 4.65659C26.4839 5.07221 26.6589 4.88856 26.252 4.92969C26.3582 4.65371 26.2778 4.77699 26.515 4.65659ZM23.0369 4.92339C23.0369 4.50699 22.99 4.50058 23.1115 4.30874C23.2353 4.49593 23.1889 4.65382 23.1888 4.92637L23.0369 4.92339ZM22.807 4.90481C22.8058 4.51583 22.7568 4.50179 22.8855 4.31372L22.9736 4.59743C22.9788 4.67748 22.9679 4.84367 22.9678 4.93234L22.807 4.90481ZM22.5084 4.31748C22.7537 4.33119 22.6675 4.27701 22.7708 4.45447L22.7704 4.83095C22.6658 4.88999 22.8459 4.90636 22.4916 4.91498L22.1493 4.96772L22.1601 4.28353L22.5084 4.31748ZM21.9722 4.52424C22.0037 4.24672 22.0016 4.38824 22.0568 4.31228C22.1927 4.51373 22.1351 4.45945 22.1351 4.90901L21.9748 4.9319C21.9748 4.8325 21.9622 4.61159 21.9722 4.52424ZM21.7531 4.52479C21.7915 4.15561 21.7511 4.43324 21.8308 4.30874C21.8797 4.38371 21.8719 4.31394 21.9011 4.45867L21.7554 4.93212C21.7554 4.82752 21.7432 4.61899 21.7531 4.52479ZM21.5271 4.91222C21.5259 4.5301 21.4769 4.5029 21.6048 4.31372L21.6921 4.5971C21.6974 4.67947 21.6865 4.84931 21.6865 4.93964L21.5271 4.91222ZM44.3557 3.86415C44.4626 3.91092 45.4014 4.67185 45.5308 4.93068C44.4167 4.93157 44.4187 5.0878 43.9237 4.37575L44.3557 3.86415ZM40.9012 3.92773L41.2965 4.37928C41.1396 4.69108 41.1217 4.57565 40.9198 4.85041C40.6442 4.73056 40.4861 4.58505 40.3375 4.35673L40.9012 3.92773ZM39.6108 3.91004C39.7229 3.99186 39.7713 4.02149 39.8751 4.11503C40.044 4.2675 39.9846 4.19585 40.0973 4.37928L39.8401 4.68633C39.7385 4.77246 39.6921 4.80353 39.5929 4.87175L39.0901 4.37033L39.6108 3.91004ZM38.3985 3.94487L38.8499 4.39067L38.4054 4.82929C38.253 4.76096 38.2105 4.72138 38.0892 4.62087C37.9127 4.47459 37.9796 4.55575 37.8475 4.35795L38.3985 3.94487ZM37.0684 3.90661L37.5991 4.37928C37.5239 4.49958 37.6038 4.41444 37.4571 4.55973L37.0522 4.83161L36.5749 4.36336L37.0684 3.90661ZM35.8438 3.93149C36.0516 4.07401 36.1917 4.16932 36.3275 4.37928C36.2049 4.59887 36.0561 4.70214 35.8438 4.83714C35.5865 4.70966 35.4873 4.61302 35.3387 4.35153L35.8438 3.93149ZM34.5331 3.89953C34.8275 4.00734 34.9672 4.16036 35.1109 4.37928C35.0117 4.5584 35.0686 4.48864 34.9037 4.64343C34.7968 4.74371 34.7547 4.77069 34.6384 4.85251C34.3537 4.68533 34.2826 4.59942 34.1585 4.3648L34.5331 3.89953ZM33.4484 3.84149L33.945 4.38824L33.4078 4.92416L32.9085 4.36933L33.4484 3.84149ZM32.2122 3.87853L32.6889 4.39742L32.2086 4.90182L31.6927 4.36535L32.2122 3.87853ZM30.9626 3.88826L31.4634 4.39056L30.951 4.8796C30.7613 4.74194 30.5941 4.59003 30.4592 4.35562L30.9626 3.88826ZM29.74 3.88229L30.2413 4.38481L29.7257 4.8984L29.2451 4.37774L29.74 3.88229ZM28.5359 3.88494C28.788 4.04438 28.8864 4.16324 29.0073 4.37928C28.8494 4.70689 28.7889 4.64133 28.5241 4.8911L28.0254 4.37342L28.5359 3.88494ZM26.7738 4.93101C26.7602 4.16523 26.8524 4.22703 27.2662 3.84514L27.7805 4.37928C27.5622 4.74559 27.4 4.93068 26.7738 4.93101ZM25.7542 1.13459C26.0401 1.23023 26.1304 1.23255 26.4127 1.15537C26.4692 1.81325 26.5893 4.00258 26.4618 4.48996C26.2442 4.81437 26.194 4.80862 25.6637 4.80828L25.7542 1.13459ZM43.81 4.27181C43.6123 4.03255 43.522 4.10243 43.3741 3.79007L43.6791 3.78753L43.9808 3.78278L44.2428 3.80688L43.81 4.27181ZM41.4188 4.26197C41.1887 4.14146 41.0594 4.0258 40.9477 3.78864L41.8939 3.78875L41.4188 4.26197ZM40.2135 4.26606C39.9585 4.12012 39.9348 3.97671 39.7158 3.80201L39.9881 3.78808L40.4396 3.78665L40.7479 3.80964L40.2135 4.26606ZM38.4767 3.7914L38.782 3.78841L39.1587 3.78753L39.4812 3.81484L38.9471 4.27955L38.4767 3.7914ZM37.2002 3.79251L37.5013 3.78808L37.9533 3.78742L38.2816 3.81561L37.7269 4.26949L37.2002 3.79251ZM35.9395 3.7977L36.2205 3.78753L36.6725 3.78654L36.9912 3.81296L36.4381 4.27624L35.9395 3.7977ZM34.7424 3.80102L35.7356 3.80986C35.4624 4.00667 35.5014 4.09391 35.2337 4.27414L34.7424 3.80102ZM33.6105 3.79969L33.8849 3.78753L34.1864 3.78709L34.4962 3.78974C34.3505 4.10508 34.2598 4.03266 34.0437 4.27955L33.6105 3.79969ZM32.3339 3.80301L32.6042 3.78808L32.9812 3.78432L33.251 3.80489L32.8033 4.28453L32.3339 3.80301ZM31.1018 3.79317L31.3988 3.78853L31.7757 3.78609L32.062 3.80754L31.5601 4.28055L31.1018 3.79317ZM29.888 3.78886L30.8337 3.79781L30.3204 4.2842L29.888 3.78886ZM29.1386 4.25633C28.9102 4.15384 28.8238 4.08341 28.6806 3.79052L29.5876 3.80821L29.1386 4.25633ZM27.4331 3.80091L27.7073 3.78808L28.084 3.78654L28.3916 3.81097L27.9155 4.28409L27.4331 3.80091ZM21.4035 4.18712C21.6052 3.85354 21.6897 3.83264 21.9287 3.64899L25.5082 0.470962L25.3722 4.79767L24.5944 4.8084L24.573 4.18856L21.4035 4.18712ZM26.7564 4.14566C26.7381 3.19931 26.797 0.922407 26.5883 0.209029C28.5931 0.478038 43.6569 3.75193 43.9295 3.64932C41.2784 3.76221 36.5996 3.66812 33.7343 3.66834L28.4605 3.66944C26.5718 3.66944 27.5522 3.74098 26.7564 4.14566ZM54.4615 7.75081C51.8767 7.30599 52.3915 7.62332 49.6646 8.09644C49.2225 8.17317 49.1455 8.10926 49.1301 8.51261C49.0454 10.7376 49.2074 12.9898 49.1315 15.2143C47.9163 15.0102 45.6796 14.2776 44.374 13.9253C42.9632 13.5444 43.3386 13.5207 42.0163 14.0103C41.3282 14.2652 40.5426 14.5069 39.8673 14.8114L39.8586 18.7623L38.8773 19.0673V13.0378C38.6965 12.7785 38.0637 12.7755 37.742 12.7168C37.3384 12.6432 36.9412 12.5593 36.524 12.4987L36.521 10.8487C34.9941 10.8267 33.4498 10.7732 31.9246 10.7703C31.3529 10.7693 31.331 10.8549 31.0354 10.4653C30.6357 9.93826 30.0538 8.88179 29.5734 8.53683L29.5733 26.5293L28.6848 26.5501L28.6858 23.3285C28.3164 23.3254 27.906 23.3477 27.5463 23.3356C27.089 23.3203 27.2059 23.1936 27.2032 22.6786C27.1995 21.9728 27.1743 21.2691 27.1535 20.5641C27.1137 19.214 27.0835 17.8523 27.0555 16.5012C26.9999 13.8047 27.0261 10.8808 26.8572 8.21474H28.9331C28.956 6.65586 29.104 6.6887 28.4677 6.02906C28.1338 5.68298 28.2749 5.74424 27.6621 5.6936L27.6527 5.07298L45.8514 5.07475L45.8535 6.43008C44.1986 6.5726 45.1883 7.76087 45.1187 8.06857C44.9204 8.38358 44.378 8.76028 44.1349 9.02133C44.323 9.70497 45.0015 10.4116 45.0088 11.1804L45.8326 11.2308C45.7472 11.5574 45.371 11.482 45.2244 11.9499C44.7649 13.4166 47.2755 13.3311 46.8433 12.1526C46.5383 12.2344 46.7601 12.2031 46.574 12.5416C46.2942 13.0503 45.4996 12.8998 45.423 12.3441C45.3503 11.8171 45.6715 11.8084 45.9291 11.5214C46.3082 11.099 45.8761 11.1868 46.8689 11.1865C46.8757 10.4127 47.5518 9.70707 47.7418 9.02387C47.4951 8.75122 46.9586 8.38203 46.7569 8.06857C46.8078 7.65583 47.1021 7.52602 46.9258 6.92973C46.7725 6.41129 46.5183 6.57072 46.0352 6.41217C45.9246 5.36963 46.297 5.19958 45.5569 4.61181C45.2602 4.37619 44.6101 3.71997 44.3099 3.60178C43.7739 3.39093 31.3788 1.00202 29.3726 0.599772C28.7471 0.474389 26.1619 -0.203165 25.723 0.060316C25.0905 0.440224 24.5146 1.18854 23.9361 1.66265C23.6886 1.86532 23.6237 1.89816 23.3731 2.15512C23.016 2.52176 22.5462 2.8476 22.1677 3.21203C21.7458 3.61803 21.222 3.7966 21.2218 4.45447V5.05684L21.8989 5.06392L21.8967 6.65464L23.3915 6.62999L23.3917 5.05684H24.1867L24.1884 8.20899L25.3211 8.21474C25.227 8.79854 25.0221 19.8623 24.9905 21.6211C24.9565 23.5171 25.3902 23.3268 23.6104 23.3265L23.5839 26.547L21.957 26.5505L21.9341 28.4254C20.0884 28.9035 16.0704 27.8521 14.6487 27.1423C12.8609 26.2497 11.2532 24.7358 10.8787 22.2676C12.1587 21.9979 14.4734 20.6867 15.3535 20.042C16.3647 19.301 17.9202 17.9718 18.1436 16.1716L17.7658 16.5808C16.8568 17.5012 14.7047 17.057 13.6006 16.9094C12.7635 16.7976 11.7886 16.6496 10.9563 16.7731C9.71242 16.9576 9.89963 17.3572 9.41021 17.9874C9.05448 17.5004 8.35806 17.0354 7.45607 16.8655C5.16555 16.4339 3.09431 18.0793 0 15.5453C0.169185 16.2763 1.1154 17.587 1.50552 18.066C2.73935 19.5814 4.24477 20.6973 6.09607 21.5373L8.31593 22.3271C8.73468 22.4374 8.68105 22.4227 8.81662 22.8052C10.2529 26.8602 12.8536 30.1281 15.838 32.9538C21.2769 38.1035 31.6921 40.2104 38.8042 41.175C38.7947 41.6755 37.563 43.3493 37.3165 43.5732C36.6726 44.1579 36.0659 44.6827 35.2918 45.084L34.986 45.2838C36.82 45.2268 38.8197 44.5043 40.2401 43.7836C41.0388 43.3783 41.7085 42.9761 42.3493 42.504C43.5881 41.5916 43.1454 41.5019 44.6585 41.5099C50.3775 41.5395 56.0917 40.3729 60.4682 38.0969C61.6122 37.5018 62.4897 36.9321 63.4688 36.2797C63.9333 35.9704 64.4535 35.5797 64.8489 35.2476L68.4302 31.6755C69.3636 30.5889 70.4086 29.481 68.089 29.432C67.9062 29.1934 67.9968 29.0742 67.7244 28.8355C67.5791 28.7082 67.3342 28.588 67.1043 28.5433C65.8737 28.3029 64.6994 28.7052 62.0489 28.1031C60.8531 27.8314 56.8787 27.0588 56.0593 26.7307L56.0594 8.14387C55.9332 7.92915 56.0554 8.02269 55.6956 7.95071L54.4615 7.75081Z" fill="white"/>
</svg>
