<svg width="223" height="68" viewBox="0 0 223 68" fill="none" xmlns="http://www.w3.org/2000/svg">
<path fill-rule="evenodd" clip-rule="evenodd" d="M58.5861 61.1147C58.4828 61.4675 58.5657 61.4926 58.1756 61.4757C57.995 61.4677 57.6383 61.3996 57.4223 61.3761L58.5861 61.1147ZM164.285 41.7775C164.011 40.0737 164.27 36.2832 164.344 34.3215C164.433 31.9878 164.588 29.0991 164.499 26.8001L156.661 26.7988C156.481 28.835 156.62 38.4864 156.62 41.3448C156.62 46.3238 155.857 50.8656 161.48 51.1211C164.052 51.2382 165.915 50.614 166.916 49.108C168.563 46.6303 170.569 42.8411 172.262 40.0485C172.716 39.3008 174.372 35.981 175.086 35.859C175.652 36.9104 174.904 48.4727 174.992 50.8709L182.842 50.798C182.922 45.9902 182.848 41.1175 182.848 36.3026C182.848 31.5572 183.488 27.1418 178.242 26.5786C175.458 26.2794 173.987 26.868 172.657 28.3776C171.812 29.3361 167.159 37.7117 166.006 39.7411C165.18 41.1956 165.207 41.6095 164.285 41.7775ZM117.874 21.3206C117.389 21.5754 116.896 21.7067 116.394 21.7067C115.152 21.7067 114.404 20.9506 114.404 19.7092C114.404 19.0763 114.602 18.5749 114.988 18.2048C115.383 17.8349 115.868 17.6458 116.443 17.6458C116.887 17.6458 117.298 17.7363 117.685 17.9171V17.1032C117.348 16.9471 116.887 16.8649 116.32 16.8649C115.482 16.8649 114.791 17.1362 114.248 17.687C113.714 18.2295 113.443 18.9036 113.443 19.7092C113.443 20.5231 113.689 21.1889 114.191 21.7067C114.692 22.2246 115.391 22.4879 116.287 22.4879C116.92 22.4879 117.455 22.3727 117.874 22.1424V21.3206ZM122.486 16.9636H118.227V17.7117H119.888V22.3974H120.834V17.7117H122.486V16.9636ZM124.147 22.3974V20.6217H125.191C125.758 20.6217 126.235 20.4492 126.605 20.112C126.975 19.7667 127.164 19.3229 127.164 18.7804C127.164 18.2872 126.992 17.8679 126.638 17.5144C126.293 17.161 125.799 16.98 125.166 16.98H123.193V22.3974H124.147ZM124.969 17.7036C125.791 17.7036 126.202 18.1884 126.202 18.805C126.202 19.0927 126.104 19.3476 125.915 19.5696C125.725 19.7833 125.421 19.89 125.018 19.89H124.139V17.7036H124.969ZM130.633 22.4879C131.464 22.4879 132.154 22.2246 132.689 21.6905C133.223 21.1562 133.495 20.4819 133.495 19.6845C133.495 18.8872 133.223 18.2214 132.689 17.687C132.154 17.1444 131.472 16.8731 130.642 16.8731C129.828 16.8731 129.145 17.1444 128.595 17.687C128.044 18.2295 127.764 18.8953 127.764 19.6845C127.764 20.4984 128.019 21.1642 128.537 21.6988C129.055 22.2246 129.754 22.4879 130.633 22.4879ZM128.718 19.6845C128.718 19.1175 128.899 18.6406 129.252 18.2541C129.614 17.8679 130.075 17.6705 130.642 17.6705C131.209 17.6705 131.669 17.8679 132.023 18.2541C132.376 18.6406 132.557 19.1175 132.557 19.6845C132.557 20.2601 132.376 20.7449 132.023 21.1314C131.669 21.5176 131.209 21.7151 130.642 21.7151C130.058 21.7151 129.598 21.5259 129.244 21.1396C128.891 20.7532 128.718 20.2682 128.718 19.6845ZM139.241 16.8814H139.069L135.468 20.6627H135.435V16.9719H134.497V22.4632H134.67L138.287 18.69H138.312V22.3974H139.241V16.8814ZM144.223 16.9636H139.965V17.7117H141.626V22.3974H142.571V17.7117H144.223V16.9636ZM145.884 21.6493V19.9231H148.277V19.1914H145.884V17.72H148.515V16.9719H144.939V22.3974H148.696V21.6493H145.884ZM152.864 22.3974H153.818V16.98H150.406L150.069 20.5314C150.028 20.9752 149.929 21.2958 149.789 21.4849C149.65 21.674 149.386 21.822 149 21.9123L149.362 22.5701C149.913 22.4879 150.299 22.2824 150.521 21.9618C150.743 21.641 150.891 21.1479 150.965 20.4984L151.236 17.6705H152.864V22.3974ZM157.559 22.3974C158.06 22.3974 158.488 22.2493 158.825 21.9618C159.17 21.674 159.343 21.2711 159.343 20.7697C159.343 20.3011 159.178 19.8983 158.858 19.5613C158.537 19.2241 158.035 19.0517 157.345 19.0517H155.997V16.9636H155.043V22.3974H157.559ZM157.304 19.7502C157.929 19.7502 158.397 20.112 158.397 20.7285C158.397 21.3453 157.978 21.674 157.386 21.674H155.997V19.7502H157.304ZM164.703 16.9719H163.766V19.1831H161.242V16.9719H160.296V22.3974H161.242V19.9393H163.766V22.3974H164.703V16.9719ZM170.516 22.3974L168.065 16.8978H167.893L165.418 22.3974H166.331L166.758 21.3616H169.134L169.57 22.3974H170.516ZM167.967 18.5583L168.871 20.6958H167.03L167.934 18.5583H167.967ZM171.839 22.3974L173.574 20.1037V19.9888C173.072 19.9476 172.686 19.7997 172.415 19.5613C172.143 19.3229 172.012 19.0597 172.012 18.7884C172.012 18.1392 172.472 17.7117 173.163 17.7117H174.133V22.3974H175.078V16.98H173.015C172.48 16.98 172.028 17.1362 171.642 17.4404C171.264 17.7446 171.074 18.1802 171.074 18.7393C171.074 19.4298 171.518 20.071 172.406 20.3259L170.754 22.3974H171.839ZM178.268 16.9719V22.3974H179.222V19.6763C179.444 19.9066 179.83 20.3587 180.381 21.0245C180.94 21.6905 181.343 22.1424 181.581 22.3974H182.691C182.436 22.1344 182.009 21.6576 181.392 20.9671C180.776 20.2766 180.365 19.8161 180.143 19.5859L182.502 16.9719H181.458L179.222 19.4954V16.9719H178.268ZM186.029 22.4879C186.859 22.4879 187.55 22.2246 188.084 21.6905C188.619 21.1562 188.89 20.4819 188.89 19.6845C188.89 18.8872 188.619 18.2214 188.084 17.687C187.55 17.1444 186.868 16.8731 186.037 16.8731C185.223 16.8731 184.541 17.1444 183.99 17.687C183.439 18.2295 183.16 18.8953 183.16 19.6845C183.16 20.4984 183.415 21.1642 183.933 21.6988C184.451 22.2246 185.149 22.4879 186.029 22.4879ZM184.113 19.6845C184.113 19.1175 184.294 18.6406 184.648 18.2541C185.01 17.8679 185.47 17.6705 186.037 17.6705C186.605 17.6705 187.065 17.8679 187.418 18.2541C187.772 18.6406 187.953 19.1175 187.953 19.6845C187.953 20.2601 187.772 20.7449 187.418 21.1314C187.065 21.5176 186.605 21.7151 186.037 21.7151C185.454 21.7151 184.993 21.5259 184.64 21.1396C184.286 20.7532 184.113 20.2682 184.113 19.6845ZM194.448 19.0763C194.456 19.0763 194.472 19.0844 194.481 19.0927C194.481 19.4874 194.481 20.038 194.472 20.7532V22.3974H195.377V16.9061H195.212C195.081 17.0869 194.653 17.6212 193.938 18.5091C193.223 19.3967 192.795 19.9393 192.647 20.1449L190.074 16.9061H189.893V22.3974H190.798V19.1256C190.805 19.1256 190.814 19.1175 190.822 19.1092L192.557 21.2875H192.729L194.448 19.0763ZM201.033 16.9719H196.593V22.3974H197.539V17.72H200.096V22.3974H201.033V16.9719ZM206.854 22.3974L204.404 16.8978H204.231L201.756 22.3974H202.669L203.097 21.3616H205.473L205.908 22.3974H206.854ZM204.305 18.5583L205.209 20.6958H203.368L204.272 18.5583H204.305ZM211.951 16.9719H211.014V19.1831H208.49V16.9719H207.544V22.3974H208.49V19.9393H211.014V22.3974H211.951V16.9719ZM217.911 16.8814H217.739L214.138 20.6627H214.105V16.9719H213.168V22.4632H213.34L216.958 18.69H216.983V22.3974H217.911V16.8814ZM219.762 22.3974L221.496 20.1037V19.9888C220.995 19.9476 220.608 19.7997 220.337 19.5613C220.066 19.3229 219.934 19.0597 219.934 18.7884C219.934 18.1392 220.394 17.7117 221.085 17.7117H222.055V22.3974H223.001V16.98H220.937C220.403 16.98 219.951 17.1362 219.564 17.4404C219.186 17.7446 218.997 18.1802 218.997 18.7393C218.997 19.4298 219.441 20.071 220.329 20.3259L218.676 22.3974H219.762ZM217.214 39.0038C217.389 42.5285 222.971 42.3279 222.79 38.6466C222.618 35.1591 217.03 35.3119 217.214 39.0038ZM118.8 39.724C119.997 36.2641 114.754 34.4839 113.52 37.8978C112.25 41.4129 117.604 43.1768 118.8 39.724ZM129.352 50.8671L137.06 50.8667L137.006 26.7988H129.325L129.352 50.8671ZM145.489 39.3156C145.131 38.5141 145.435 37.8507 145.859 37.256C147.021 35.6247 154.053 27.7133 154.502 26.7988H145.437C144.037 28.707 142.594 30.785 141.171 32.7505C136.554 39.1278 136.685 38.3044 142.278 45.4128C142.706 45.957 146.232 50.7766 146.888 50.8667L155.818 50.807L145.489 39.3156ZM184.275 32.7406L192.877 32.7515L192.895 50.8634L200.632 50.8659L200.675 32.7729L209.258 32.7515L209.216 26.7976L184.278 26.8544L184.275 32.7406ZM79.6202 45.9501L79.2892 46.0346C79.5411 46.6942 80.2692 46.6273 80.1809 45.6763L79.6668 45.482C79.9104 45.9129 79.6728 45.8685 79.6202 45.9501ZM64.0064 6.7599C64.3033 7.02389 64.4901 7.13231 64.6882 7.38219L64.2328 7.39747L63.7801 7.39498L63.3319 7.38236C63.538 7.14128 63.7198 7.03203 64.0064 6.7599ZM63.8137 6.63887L63.1465 7.21101C62.7597 7.21217 62.5861 6.94935 62.3523 6.54273L62.9651 5.89936C63.3334 6.07702 63.6662 6.29219 63.8137 6.63887ZM64.885 7.2062L64.1964 6.61114C64.5419 6.22893 64.6661 6.35944 64.8679 5.83245C65.2752 6.04348 65.4032 6.21698 65.6041 6.57611C65.4836 6.82681 65.2892 7.21201 64.885 7.2062ZM64.8639 5.78629C64.4773 5.98238 64.2256 6.29834 63.8633 6.38633C63.7286 6.00795 63.5508 6.21582 63.2003 5.69265C63.7359 5.68568 64.425 5.60997 64.8639 5.78629ZM58.8757 59.7064L59.143 59.5871L59.0471 59.8823C58.7478 60.9176 59.0565 60.7505 56.4612 61.098C55.5368 61.2218 53.9774 60.8989 53.0995 60.7315L58.8757 59.7064ZM48.354 59.8042C49.1476 59.4893 50.38 59.4629 51.268 59.3221C52.2827 59.1612 53.2576 58.9933 54.2529 58.7968L59.9133 57.5431C59.8286 57.8627 59.5646 58.5226 59.4188 58.8623C59.2013 59.3681 59.2098 59.2598 58.1072 59.4652C57.0415 59.6639 56.015 59.8506 54.9186 60.0246C51.0218 60.6429 52.0508 60.6075 48.354 59.8042ZM43.5791 58.633C49.7784 57.8872 53.5857 57.0816 59.3408 55.506C59.9995 55.3257 60.8703 54.9687 61.4787 54.8882C59.6236 57.549 60.9797 56.8729 58.4214 57.5186C56.8315 57.9198 55.2039 58.2503 53.5696 58.5558C51.8968 58.8685 50.1945 59.1393 48.4874 59.3599C46.5026 59.6166 45.4082 59.124 43.5791 58.633ZM39.1508 57.2792C44.4715 57.2452 48.9224 57.2354 54.2665 55.9787C56.0731 55.5538 57.7427 54.9842 59.3552 54.2721C60.6202 53.7135 62.6518 52.3316 63.9604 52.0728C63.9659 53.0688 63.9837 52.805 63.2743 53.2148C61.4742 54.2541 63.3565 53.9709 59.1322 55.1809C54.6675 56.4597 50.4057 57.3443 45.7471 57.9595C41.9882 58.4559 42.7756 58.5118 39.1508 57.2792ZM69.4726 51.1993C69.6096 50.6212 69.55 50.453 70.1096 50.3305C70.5297 50.2383 71.1263 50.1269 71.5617 50.1409C70.9873 50.5103 70.115 50.9976 69.4726 51.1993ZM69.22 53.9823C69.1619 53.3855 69.1427 52.9624 69.2152 52.3619C69.3009 51.6537 69.319 51.7285 69.8773 51.4475C73.529 49.6104 72.5835 49.7156 77.6596 49.4983C77.2345 50.0801 74.2143 51.6338 73.6469 51.9396C72.5601 52.5252 70.4078 53.6551 69.22 53.9823ZM78.8796 46.1476C78.6634 45.0121 80.4622 44.615 80.6181 45.8305C80.775 47.0542 79.0679 47.136 78.8796 46.1476ZM69.7394 56.3148C69.8543 55.1452 69.5 55.2531 69.361 54.4011C69.758 54.109 71.0432 53.6257 71.57 53.3715C73.8011 52.2946 76.0269 51.1606 78.0434 49.7753C79.1652 49.0044 81.3323 49.9665 83.5143 48.5704C84.6689 47.8317 86.5399 46.1863 87.5457 45.8154C86.5972 47.3022 80.965 51.03 79.4903 51.8991C78.089 52.725 76.4275 53.6191 74.871 54.2907C73.5969 54.8402 71.1043 56.0451 69.7394 56.3148ZM77.7348 61.0171C78.5294 60.8934 80.5822 60.0903 81.4653 59.7531C88.1408 57.2035 92.4959 54.7861 97.7286 50.2244C98.6118 49.4543 99.4032 48.4706 100.26 47.5571C100.585 47.2097 101.108 46.5418 101.419 46.1149C101.75 45.6613 102.196 45.0538 102.43 44.5717C103.138 44.5879 103.643 44.6032 104.033 45C103.962 45.9034 100.324 49.8563 99.2956 50.7738C98.3702 51.5996 97.444 52.4281 96.413 53.2093C93.2054 55.6392 90.102 57.4001 86.1143 58.8564C84.6139 59.4044 79.3221 61.0988 77.7348 61.0171ZM68.859 58.4615C69.8004 56.4092 69.3573 56.9091 71.1495 56.2274C77.4916 53.8151 81.4527 51.5226 86.4746 47.349C89.4026 44.9158 87.2609 45.3022 92.3318 45.001L88.9011 48.4153C84.9545 52.0682 77.7192 55.5278 72.409 57.3697C71.4657 57.697 69.7969 58.3222 68.859 58.4615ZM67.3535 60.4403C67.6125 60.294 68.2194 59.2426 68.5208 59.0256C68.8076 58.8192 70.1678 58.4894 70.6549 58.3345C77.3481 56.2065 86.4147 52.0077 91.0259 46.9208C91.6026 46.2846 91.829 46.2985 92.4356 45.5011C92.7197 45.1272 92.7011 44.9751 93.3046 44.9207C94.0196 44.8561 95.2991 44.7568 95.9827 44.8232C95.1475 45.8534 94.3193 46.8197 93.3843 47.6939L91.2356 49.617C88.8717 51.4316 86.4496 53.2764 83.6714 54.605C81.1231 55.8233 78.846 56.9196 75.9613 57.98C74.6101 58.4767 68.5487 60.4539 67.3535 60.4403ZM65.9457 61.9454C67.1044 60.5879 67.7867 60.7948 70.3005 60.1303C71.9849 59.685 73.5016 59.1911 75.1535 58.646C80.4351 56.9028 87.4382 53.4482 91.4956 49.8767C94.1318 47.5564 94.0629 47.7402 96.2272 45.1068C96.6112 44.6396 96.5654 44.7247 97.3746 44.7045C97.897 44.6914 98.4338 44.6528 98.952 44.6568C98.7133 45.3075 96.6071 47.5616 96.1192 48.053C90.8382 53.3727 83.3853 57.1384 76.0934 59.4692C74.0564 60.1202 68.0215 61.9301 65.9457 61.9454ZM68.2297 61.9118C69.6692 61.8946 76.1253 59.8869 77.6473 59.3325C83.5575 57.1796 88.8901 54.7019 93.5782 50.8264C94.1798 50.3291 94.661 49.8875 95.2286 49.4226C96.1604 48.6592 98.0305 46.539 98.8594 45.4777C99.7406 44.3492 98.9992 44.6225 101.99 44.5702C101.653 45.2017 101.108 45.9349 100.719 46.4319C100.196 47.0993 99.8044 47.5182 99.2391 48.1153C93.7243 53.9408 86.951 57.5874 79.2628 60.1489C77.858 60.617 75.7261 61.3767 74.247 61.5803C72.7811 61.7822 69.6552 62.0601 68.2297 61.9118ZM66.1568 39.1638L72.7889 39.5308L72.859 41.2572L66.1735 40.9264L66.1568 39.1638ZM47.9886 18.9237L49.1844 18.8263C49.1854 21.2654 49.3775 39.8427 49.1009 40.5331L47.9914 40.549L47.9886 18.9237ZM61.7603 40.589L61.7223 38.9118L63.0234 38.5952L63.0266 40.2684L61.7603 40.589ZM52.174 18.7105L53.3589 18.6423L53.3089 40.3287L52.1622 40.3463L52.174 18.7105ZM51.2564 18.7527C51.3806 19.8352 51.2878 33.629 51.2878 35.972C51.2884 40.9721 51.725 40.4177 50.0871 40.4863L50.0934 18.8022L51.2564 18.7527ZM46.5293 38.077L46.5282 39.5356L45.3994 39.7542L45.4251 38.3059L46.5293 38.077ZM75.9201 36.2277L77.5685 36.2299L77.5769 37.9212L75.8904 37.9108L75.9201 36.2277ZM66.1624 34.9544L72.8457 35.7547L72.849 37.4799L66.1617 36.7267L66.1624 34.9544ZM62.9995 34.7819L63.004 36.4789L61.7062 36.7511L61.6955 35.0501L62.9995 34.7819ZM46.5184 34.8258L46.5228 36.0851C46.3314 36.3873 46.4627 36.2877 45.9853 36.3981C45.7869 36.4439 45.5973 36.4696 45.3994 36.4673L45.3818 35.0662L46.5184 34.8258ZM40.4911 34.714C40.4395 35.1995 40.6675 35.0114 40.1281 35.0479C40.2602 34.6317 40.1517 34.8654 40.4911 34.714ZM38.1352 35.0552C37.7221 34.991 37.9702 35.1636 37.8563 34.7379L38.1352 35.0552ZM39.1172 33.3637C39.6082 33.6077 40.0269 34.0899 40.4289 34.4686C40.0029 34.8377 39.9603 35.0424 39.1179 35.0396C38.3587 35.0371 38.1447 34.9702 37.881 34.3567L39.1172 33.3637ZM75.894 32.4625L77.5794 32.4671L77.5588 34.1409L77.1301 34.1449L76.3377 34.1465L75.8997 34.1369L75.894 32.4625ZM39.3039 33.3037C39.5304 32.8393 40.0785 32.4764 40.433 32.2619L40.4586 34.1671C40.0039 33.9415 40.126 33.7517 39.3039 33.3037ZM37.9165 32.3514C38.3606 32.5242 38.6219 32.9132 38.9626 33.1779C38.4534 33.6615 38.6407 33.5822 37.8847 34.0887L37.9165 32.3514ZM45.4703 32.0148C45.6267 31.6997 45.442 31.8496 45.9483 31.7229C46.1481 31.6728 46.3578 31.6424 46.5722 31.6021L46.5539 33.0623L45.4736 33.2627L45.4703 32.0148ZM66.1644 31.108L72.8512 32.0902L72.8366 33.8286L66.1612 32.8842L66.1644 31.108ZM62.9816 30.9765L62.9705 32.6788L61.6799 32.8835L61.6751 31.2534L62.9816 30.9765ZM37.9391 31.9019C38.1314 31.6044 38.8755 31.0044 39.1172 30.874C39.402 31.0077 39.6207 31.2126 39.8517 31.395C40.1421 31.6243 40.2696 31.7293 40.392 32.0635C39.8953 32.3574 39.6539 32.6026 39.2448 33.0268C38.8406 32.8966 38.1241 32.2866 37.9391 31.9019ZM39.3092 30.8083C39.5339 30.3846 39.5533 30.478 39.8384 30.2461C40.1326 30.007 40.0009 30.0236 40.3599 29.8553L40.3958 31.5508C39.9013 31.3466 39.8246 31.0648 39.3092 30.8083ZM38.0389 29.9195L38.9587 30.7258C38.5849 31.0254 38.3861 31.2282 37.9293 31.4908L38.0389 29.9195ZM75.94 28.6736L77.5695 28.6759L77.5263 30.3791L75.9023 30.3743L75.94 28.6736ZM46.5723 28.3588L46.5768 29.6406C46.3951 29.9612 45.8567 29.9663 45.4644 30.0142L45.4789 28.5823L46.5723 28.3588ZM38.065 29.6406C38.3081 29.2248 38.7149 28.8753 39.1172 28.6016C39.538 28.7844 40.1094 29.4971 40.2059 29.7108C39.8022 30.0801 39.6373 30.1314 39.2526 30.5433C38.833 30.4259 38.9243 30.4286 38.6106 30.149L38.065 29.6406ZM66.1669 27.0551C67.2731 27.217 68.465 27.4984 69.5629 27.7144C70.1883 27.8376 72.5579 28.1078 72.8535 28.5101L72.8216 30.0774L66.1593 28.8179L66.1669 27.0551ZM62.9646 27.1762L62.972 28.8463L61.6593 29.0837L61.6743 27.4118L62.9646 27.1762ZM38.0404 27.5383C38.4044 27.7445 38.7054 28.0374 38.9661 28.4168L38.0115 29.35L38.0404 27.5383ZM40.3186 27.488L40.3445 29.4222C39.9948 29.2182 39.4845 28.7663 39.3032 28.3741L40.3186 27.488ZM39.1403 25.9235L40.2731 27.0402C40.0986 27.4518 39.4279 28.0136 39.1172 28.2358C38.8175 28.0269 38.1404 27.3019 38.0165 27.0037L39.1403 25.9235ZM75.9088 24.9095L77.5721 24.9125L77.5756 26.5864L75.8924 26.5778L75.9088 24.9095ZM46.5663 25.1099L46.5688 26.3618C46.4109 26.6766 46.5961 26.5276 46.088 26.6542C45.893 26.7026 45.6773 26.7344 45.4694 26.7697L45.4865 25.3151L46.5663 25.1099ZM40.2416 24.8818L40.2514 26.6565C39.9078 26.3691 39.5182 26.1259 39.317 25.6522L40.2416 24.8818ZM38.1153 24.9518L38.9778 25.8009L38.064 26.5775L38.1153 24.9518ZM61.6427 23.7614C61.8219 23.4393 62.5508 23.3606 62.9447 23.3594L62.9587 25.0088L61.659 25.2945L61.6427 23.7614ZM66.1519 22.9C67.0664 23.092 72.4183 24.4122 72.8445 24.6658L72.845 26.3347L66.1526 24.6633L66.1519 22.9ZM38.1168 24.6825C38.2667 24.2147 38.7861 23.87 39.1172 23.5633C39.4591 23.7566 39.9732 24.2462 40.1929 24.5841C39.7434 24.954 39.679 25.3389 39.096 25.6038L38.1168 24.6825ZM39.3299 23.4222C39.4664 23.1959 39.8743 22.692 40.2042 22.5452L40.2073 24.2533L39.3299 23.4222ZM38.1767 22.6164L38.9736 23.4126L38.1259 24.1766L38.1767 22.6164ZM46.562 21.8623L46.5516 23.2784L45.4611 23.5145L45.4523 22.0508L46.562 21.8623ZM75.894 21.1248L77.5812 21.1285L77.5474 22.8231L77.1288 22.8265L76.3379 22.8278L75.9032 22.8197L75.894 21.1248ZM38.1686 22.1784C38.3352 21.7358 38.7735 21.3594 39.1172 21.1271C39.4918 21.2888 39.9993 21.783 40.1547 22.1784C39.9767 22.5608 39.4784 23.0191 39.1172 23.1896C38.7881 22.9256 38.3604 22.6136 38.1686 22.1784ZM40.1213 20.1331L40.1708 21.7595C39.8415 21.6005 39.9395 21.6619 39.673 21.3953C39.4402 21.1623 39.4638 21.2115 39.2861 20.9012L40.1213 20.1331ZM38.2202 20.2151C38.5595 20.3807 38.729 20.5422 38.9572 20.9415L38.1952 21.677L38.2202 20.2151ZM46.5491 18.6036L46.5577 20.0185L45.4409 20.2516L45.4507 18.7977L46.5491 18.6036ZM39.1172 20.7557C38.8436 20.5835 38.2076 20.1045 38.2613 19.7243C38.3046 19.4175 38.8584 18.9088 39.1172 18.7338C39.6305 19.1417 39.7638 19.3094 40.1522 19.7276L39.1172 20.7557ZM75.9251 17.3517L77.5666 17.3539L77.5769 19.0512L75.8897 19.0396L75.9251 17.3517ZM40.084 17.7241L40.0695 19.3991C40.0066 19.2744 39.504 18.8621 39.2913 18.5405L40.084 17.7241ZM38.274 17.8231C38.548 18.0306 38.7772 18.2873 38.9693 18.5737L38.2432 19.3009L38.274 17.8231ZM39.1172 18.3459C38.199 17.5699 37.9016 16.9474 39.1172 16.1209C39.2951 16.2614 39.4289 16.418 39.6222 16.5837C40.4259 17.2725 39.8674 17.9558 39.1172 18.3459ZM40.0006 15.1928L40.0469 16.6798C39.7376 16.5149 39.8799 16.633 39.6268 16.3544C39.4857 16.1993 39.44 16.1292 39.2924 15.938L40.0006 15.1928ZM38.3758 15.2541L38.9756 15.9717C38.7257 16.3119 38.6154 16.3107 38.324 16.5923L38.3758 15.2541ZM38.3476 14.8295C38.4931 14.438 38.8394 14.2098 39.1172 13.9539C39.4518 14.1403 39.8276 14.4628 39.9863 14.8295C39.7403 15.1417 39.4563 15.5463 39.1172 15.7319C38.909 15.5365 38.4673 15.1432 38.3476 14.8295ZM39.9774 13.1601V14.4165L39.2974 13.7801L39.9774 13.1601ZM38.3974 13.2056C38.4992 13.3632 38.8155 13.5898 38.9758 13.8046L38.3557 14.3381L38.3974 13.2056ZM39.1172 13.5793C38.6834 13.2317 38.3894 13.152 38.4019 12.3356H39.9506C39.9531 12.9122 39.8073 13.2537 39.1172 13.5793ZM68.43 12.2292C68.545 12.146 68.4099 12.1709 68.6531 12.1168L69.3148 12.1171C69.5634 12.1637 69.422 12.146 69.5368 12.2292C69.264 12.3655 68.7016 12.3645 68.43 12.2292ZM35.0451 6.5165L36.2884 6.51185C36.4078 6.54821 36.2949 6.32092 36.4131 6.68901L36.413 7.39033L36.5249 7.35762C36.5249 6.94154 36.4591 6.76123 36.6283 6.47134C36.8224 6.74446 36.7667 6.95018 36.724 7.32391C36.5241 7.4408 36.7786 7.40444 36.2971 7.42536C36.1817 7.43051 35.9638 7.41888 35.8364 7.41905C35.4992 7.41971 35.0942 7.50588 34.9532 7.28224L34.9224 6.68901C34.9962 6.45407 34.8769 6.52248 35.0451 6.5165ZM65.2252 7.39962C65.3919 7.03087 65.4549 7.06026 65.648 6.74911C66.0701 6.93889 66.0927 7.06673 66.3412 7.37372L65.9296 7.4056L65.7033 7.40676L65.2252 7.39962ZM61.5868 7.40195C61.7585 7.03801 61.7389 7.0126 62.1962 6.76488C62.679 7.01277 62.6463 7.04664 62.8107 7.40427L61.5868 7.40195ZM59.7554 7.35679C60.0698 7.03037 59.9512 7.01128 60.4043 6.73882L61.0553 7.389L60.6124 7.40544L60.1588 7.4154L59.7554 7.35679ZM57.8847 7.39431C58.0881 7.0493 58.2321 6.99833 58.5061 6.72769L59.148 7.39431L58.6892 7.4056L58.3497 7.40793L57.8847 7.39431ZM56.6528 6.7531C56.8351 6.88659 56.9263 6.95715 57.058 7.0742C57.2723 7.26497 57.1866 7.16818 57.3414 7.39448L55.9803 7.38485L56.6528 6.7531ZM54.0885 7.36692C54.33 7.11239 54.3949 6.94719 54.7464 6.73849L55.4081 7.39165L54.9558 7.40593L54.5026 7.4134L54.0885 7.36692ZM52.2847 7.36077C52.5009 7.14427 52.5761 7.0307 52.7548 6.75575C53.2174 6.85454 53.2933 6.94121 53.547 7.36575L53.1457 7.40544L52.6922 7.41473L52.2847 7.36077ZM50.5756 7.37273C50.8052 7.06275 50.8521 6.92577 51.2776 6.75044C51.4781 7.06839 51.5344 7.02124 51.706 7.40195L51.2224 7.4056L50.9957 7.41208L50.5756 7.37273ZM49.2414 6.74795L49.8292 7.37787L49.4124 7.40643L49.0722 7.41523L48.6522 7.35529L49.2414 6.74795ZM47.4127 6.73965L48.0267 7.38335L47.6022 7.4056L47.2628 7.40876L46.7724 7.3528L47.4127 6.73965ZM45.5857 6.74928L46.1899 7.40759L44.9445 7.35646L45.5857 6.74928ZM43.1632 7.39879C43.3779 6.93905 43.3839 6.95516 43.7834 6.74828L44.3107 7.38933L43.1632 7.39879ZM41.9122 6.73517L42.5091 7.39398L42.0586 7.40809L41.7186 7.4159L41.2923 7.35762L41.9122 6.73517ZM39.816 6.99251C39.7693 7.61663 40.032 7.34085 39.4211 7.40261C39.5805 6.9882 39.4598 7.17332 39.816 6.99251ZM34.5931 7.39315C34.5931 6.76787 34.5227 6.75824 34.7052 6.47018C34.891 6.75127 34.8214 6.98836 34.8212 7.39763L34.5931 7.39315ZM34.2479 7.36526C34.246 6.78116 34.1725 6.76007 34.3658 6.47765L34.4981 6.90369C34.5059 7.02389 34.4895 7.27344 34.4893 7.4066L34.2479 7.36526ZM33.7995 6.48329C34.1678 6.50388 34.0385 6.42253 34.1936 6.68901L34.1929 7.25435C34.0358 7.34301 34.3063 7.36758 33.7743 7.38053L33.2602 7.45973L33.2765 6.43232L33.7995 6.48329ZM32.9944 6.79377C33.0417 6.37703 33.0385 6.58956 33.1214 6.47549C33.3255 6.778 33.239 6.69648 33.239 7.37156L32.9982 7.40593C32.9982 7.25667 32.9793 6.92494 32.9944 6.79377ZM32.6653 6.7946C32.723 6.24022 32.6623 6.65713 32.782 6.47018C32.8554 6.58275 32.8438 6.47798 32.8876 6.69532L32.6687 7.40627C32.6687 7.2492 32.6505 6.93606 32.6653 6.7946ZM32.326 7.37638C32.3242 6.80257 32.2506 6.76173 32.4426 6.47765L32.5738 6.90319C32.5817 7.02688 32.5653 7.28191 32.5653 7.41756L32.326 7.37638ZM66.6063 5.80256C66.7668 5.8728 68.1766 7.01543 68.3709 7.40411C66.6979 7.40544 66.7009 7.64004 65.9575 6.57079L66.6063 5.80256ZM61.4189 5.89803L62.0125 6.57611C61.7769 7.04432 61.75 6.87098 61.4468 7.28357C61.033 7.10359 60.7956 6.88509 60.5724 6.54224L61.4189 5.89803ZM59.4811 5.87147C59.6495 5.99433 59.7222 6.03883 59.878 6.17929C60.1317 6.40825 60.0425 6.30066 60.2117 6.57611L59.8255 7.03718C59.6729 7.16652 59.6032 7.21317 59.4542 7.31561L58.6992 6.56266L59.4811 5.87147ZM57.6607 5.92377L58.3385 6.59321L57.671 7.25186C57.4422 7.14925 57.3784 7.08981 57.1963 6.93889C56.9313 6.71923 57.0317 6.84109 56.8333 6.54406L57.6607 5.92377ZM55.6633 5.86632L56.4604 6.57611C56.3474 6.75675 56.4673 6.6289 56.247 6.84707L55.6391 7.25534L54.9222 6.5522L55.6633 5.86632ZM53.8245 5.90368C54.1365 6.11769 54.3469 6.26081 54.5508 6.57611C54.3666 6.90585 54.1433 7.06092 53.8245 7.26364C53.4381 7.07221 53.2892 6.9271 53.066 6.53443L53.8245 5.90368ZM51.8563 5.85569C52.2983 6.01758 52.5081 6.24736 52.7239 6.57611C52.575 6.84508 52.6603 6.74031 52.4128 6.97276C52.2522 7.12335 52.1891 7.16386 52.0144 7.28672C51.5868 7.03568 51.4801 6.90668 51.2938 6.55436L51.8563 5.85569ZM50.2274 5.76853L50.9731 6.58956L50.1664 7.39431L49.4167 6.56116L50.2274 5.76853ZM48.3711 5.82415L49.087 6.60334L48.3657 7.36077L47.591 6.55519L48.3711 5.82415ZM46.4946 5.83876L47.2467 6.59304L46.4772 7.3274C46.1924 7.12069 45.9413 6.89256 45.7388 6.54058L46.4946 5.83876ZM44.6588 5.82979L45.4115 6.58441L44.6374 7.35563L43.9155 6.57378L44.6588 5.82979ZM42.8507 5.83378C43.2293 6.0732 43.3769 6.25168 43.5585 6.57611C43.3214 7.06806 43.2306 6.9696 42.8329 7.34467L42.084 6.56731L42.8507 5.83378ZM40.2045 7.40461C40.1841 6.25467 40.3226 6.34748 40.9439 5.77401L41.7162 6.57611C41.3885 7.12617 41.1449 7.40411 40.2045 7.40461ZM38.6736 1.70374C39.1028 1.84736 39.2385 1.85084 39.6624 1.73495C39.7472 2.72284 39.9276 6.01044 39.7361 6.7423C39.4093 7.22944 39.3339 7.22081 38.5376 7.22031L38.6736 1.70374ZM65.7868 6.41472C65.4899 6.05543 65.3544 6.16036 65.1322 5.69132L65.5902 5.6875L66.0434 5.68037L66.4367 5.71656L65.7868 6.41472ZM62.1962 6.39995C61.8506 6.21897 61.6563 6.0453 61.4886 5.68917L62.9095 5.68933L62.1962 6.39995ZM60.3862 6.40609C60.0033 6.18693 59.9676 5.97158 59.6389 5.70925L60.0477 5.68833L60.7256 5.68618L61.1886 5.72071L60.3862 6.40609ZM57.7781 5.69332L58.2366 5.68883L58.8023 5.6875L59.2865 5.72851L58.4845 6.42635L57.7781 5.69332ZM55.8612 5.69498L56.3134 5.68833L56.9922 5.68734L57.4852 5.72968L56.6521 6.41124L55.8612 5.69498ZM53.9681 5.70278L54.3901 5.6875L55.0689 5.68601L55.5474 5.72569L54.7168 6.42137L53.9681 5.70278ZM52.1705 5.70776L53.6619 5.72104C53.2518 6.01658 53.3102 6.14758 52.9082 6.41821L52.1705 5.70776ZM50.4708 5.70577L50.8829 5.6875L51.3356 5.68684L51.8009 5.69083C51.582 6.16435 51.4459 6.0556 51.1214 6.42635L50.4708 5.70577ZM48.5538 5.71075L48.9598 5.68833L49.5258 5.68269L49.931 5.71357L49.2587 6.43382L48.5538 5.71075ZM46.7037 5.69597L47.1497 5.689L47.7156 5.68535L48.1456 5.71756L47.3919 6.42784L46.7037 5.69597ZM44.881 5.6895L46.3012 5.70295L45.5304 6.43332L44.881 5.6895ZM43.7556 6.39148C43.4128 6.23757 43.2829 6.13181 43.0679 5.69199L44.43 5.71855L43.7556 6.39148ZM41.1947 5.70759L41.6063 5.68833L42.172 5.68601L42.634 5.7227L41.919 6.43315L41.1947 5.70759ZM32.1404 6.28754C32.4432 5.78663 32.5701 5.75525 32.9289 5.47947L38.3041 0.707215L38.0999 7.20437L36.9319 7.22048L36.8998 6.2897L32.1404 6.28754ZM40.1785 6.22528C40.1511 4.80422 40.2394 1.38512 39.9261 0.313886C42.9365 0.717841 65.557 5.63404 65.9663 5.47996C61.9853 5.64948 54.9594 5.50819 50.6568 5.50852L42.7374 5.51018C39.9013 5.51018 41.3735 5.61761 40.1785 6.22528ZM81.7816 11.6389C77.9001 10.971 78.6732 11.4475 74.5783 12.1579C73.9144 12.2732 73.7988 12.1772 73.7757 12.7829C73.6485 16.1239 73.8918 19.506 73.7777 22.8464C71.953 22.5399 68.5944 21.4398 66.6338 20.9108C64.5152 20.3388 65.0789 20.3033 63.0933 21.0385C62.06 21.4212 60.8804 21.7841 59.8663 22.2414L59.8532 28.1742L58.3797 28.6323V19.5781C58.1082 19.1887 57.1579 19.1842 56.6749 19.0961C56.0688 18.9855 55.4724 18.8595 54.8459 18.7685L54.8414 16.2908C52.5486 16.2578 50.2295 16.1774 47.9392 16.1731C47.0808 16.1716 47.0479 16.3001 46.604 15.7152C46.0038 14.9237 45.13 13.3373 44.4085 12.8192L44.4084 39.8374L43.0742 39.8686L43.0757 35.031C42.5211 35.0263 41.9047 35.0599 41.3645 35.0416C40.6779 35.0187 40.8534 34.8284 40.8495 34.055C40.8438 32.9953 40.806 31.9385 40.7747 30.8798C40.715 28.8524 40.6696 26.8077 40.6276 24.7788C40.5441 20.7297 40.5835 16.3391 40.3299 12.3356H43.4471C43.4815 9.9947 43.7037 10.044 42.7482 9.05347C42.2468 8.53379 42.4586 8.62577 41.5386 8.54973L41.5244 7.61779L68.8522 7.62045L68.8554 9.65566C66.3703 9.86968 67.8566 11.654 67.752 12.1161C67.4543 12.5891 66.6398 13.1548 66.2747 13.5468C66.5571 14.5734 67.576 15.6345 67.5869 16.7889L68.824 16.8646C68.6958 17.3551 68.1309 17.2418 67.9107 17.9445C67.2208 20.1469 70.9908 20.0185 70.3417 18.2488C69.8837 18.3717 70.2168 18.3247 69.9374 18.8329C69.5173 19.5968 68.324 19.3708 68.209 18.5364C68.0999 17.7451 68.5821 17.7319 68.969 17.3009C69.5382 16.6667 68.8894 16.7985 70.3802 16.798C70.3903 15.6361 71.4057 14.5765 71.691 13.5506C71.3205 13.1412 70.5149 12.5868 70.212 12.1161C70.2884 11.4963 70.7304 11.3014 70.4656 10.406C70.2354 9.62744 69.8537 9.86686 69.1282 9.62877C68.9622 8.06325 69.5214 7.8079 68.41 6.92527C67.9645 6.57146 66.9883 5.58606 66.5375 5.40857C65.7327 5.09195 47.1196 1.50467 44.107 0.900642C43.1678 0.712362 39.2858 -0.305081 38.6267 0.0905728C37.6769 0.661058 36.8122 1.78476 35.9434 2.49671C35.5718 2.80104 35.4743 2.85035 35.098 3.23621C34.5617 3.78677 33.8563 4.27607 33.2879 4.82331C32.6543 5.43298 31.8677 5.70112 31.8676 6.68901V7.59355L32.8843 7.60418L32.881 9.99288L35.1256 9.95585L35.1259 7.59355H36.3197L36.3223 12.327L38.0231 12.3356C37.8818 13.2122 37.5741 29.826 37.5267 32.4671C37.4757 35.3142 38.1269 35.0285 35.4544 35.028L35.4145 39.864L32.9714 39.8693L32.9371 42.6847C30.1656 43.4026 24.132 41.8238 21.9971 40.7579C19.3125 39.4175 16.8983 37.1442 16.3359 33.4379C18.258 33.0329 21.7338 31.064 23.0554 30.0958C24.5739 28.9831 26.9097 26.9872 27.2451 24.2839L26.6779 24.8984C25.3128 26.2804 22.0811 25.6135 20.4232 25.3918C19.1662 25.224 17.7023 25.0016 16.4524 25.1871C14.5845 25.4642 14.8657 26.0643 14.1307 27.0106C13.5966 26.2793 12.5508 25.5811 11.1963 25.3259C7.7568 24.6777 4.64654 27.1486 0 23.3435C0.254054 24.4411 1.67493 26.4093 2.26075 27.1287C4.11352 29.4041 6.37411 31.0799 9.1541 32.3413L12.4875 33.5272C13.1163 33.6929 13.0358 33.6708 13.2394 34.2451C15.3962 40.3344 19.3015 45.2416 23.783 49.4847C31.9502 57.2178 47.59 60.3815 58.27 61.83C58.2557 62.5816 56.4061 65.095 56.0359 65.4312C55.069 66.3092 54.1579 67.0974 52.9956 67.6999L52.5363 67.9999C55.2904 67.9144 58.2932 66.8294 60.4261 65.7472C61.6255 65.1385 62.6311 64.5347 63.5933 63.8257C65.4535 62.4556 64.7889 62.3209 67.0609 62.3329C75.6488 62.3774 84.2295 60.6256 90.8014 57.2078C92.5193 56.3143 93.8371 55.4587 95.3073 54.4791C96.0048 54.0145 96.7859 53.428 97.3797 52.9292L102.758 47.5652C104.159 45.9334 105.728 44.2698 102.245 44.1963C101.971 43.838 102.107 43.659 101.698 43.3005C101.479 43.1094 101.112 42.9289 100.766 42.8617C98.9185 42.5007 97.1552 43.1049 93.175 42.2007C91.3794 41.7928 85.4113 40.6325 84.1808 40.1399L84.181 12.2292C83.9916 11.9067 84.175 12.0472 83.6347 11.9391L81.7816 11.6389Z" fill="black"/>
</svg>
