<svg width="40" height="50" viewBox="0 0 40 50" fill="none" xmlns="http://www.w3.org/2000/svg">
<path d="M19.9996 10.793C22.5629 10.793 24.8925 11.8405 26.58 13.528C28.2675 15.2155 29.315 17.5451 29.315 20.1075C29.315 22.6709 28.2675 25.0005 26.58 26.688C24.8925 28.3755 22.5629 29.423 20.0004 29.423C17.4371 29.423 15.1075 28.3755 13.42 26.688C11.7325 25.0005 10.685 22.6709 10.685 20.1084C10.685 17.5451 11.7325 15.2155 13.42 13.528C15.1075 11.8405 17.4371 10.793 19.9996 10.793ZM20.0004 12.8763C18.0121 12.8763 16.2042 13.6905 14.8933 15.0013C13.5825 16.3121 12.7683 18.12 12.7683 20.1075C12.7683 22.0955 13.5825 23.9038 14.8933 25.2146C16.2042 26.5255 18.0121 27.3396 19.9996 27.3396C21.9879 27.3396 23.7958 26.5255 25.1067 25.2146C26.4175 23.9038 27.2317 22.0955 27.2317 20.1084C27.2317 18.1201 26.4175 16.3121 25.1067 15.0013C23.7958 13.6905 21.9879 12.8763 20.0004 12.8763Z" fill="#1253C0"/>
<path d="M19.9996 0.261353C25.4592 0.261353 30.4217 2.49385 34.018 6.0901C37.6142 9.68635 39.8467 14.6489 39.8467 20.1076C39.8467 30.8909 20.7834 49.453 20.7288 49.5068C20.5267 49.7055 20.2634 49.9168 20.0005 49.9168C19.7121 49.9201 19.4517 49.6913 19.263 49.503L19.2509 49.4905C18.6009 48.8543 0.153381 30.7026 0.153381 20.1084C0.153381 14.6489 2.38588 9.68635 5.98213 6.0901C9.57838 2.49385 14.5409 0.261353 19.9996 0.261353ZM20.0005 2.34469C15.1163 2.34469 10.675 4.34385 7.45546 7.56344C4.23588 10.783 2.23671 15.2243 2.23671 20.1076C2.23671 28.8301 16.5834 43.8438 20.0021 47.298C23.4259 43.8401 37.7634 28.8409 37.7634 20.1084C37.7634 15.2243 35.7642 10.783 32.5446 7.56344C29.3251 4.34385 24.8838 2.34469 20.0005 2.34469Z" fill="#1253C0"/>
</svg>
