<svg width="19" height="26" viewBox="0 0 19 26" fill="none" xmlns="http://www.w3.org/2000/svg">
<path d="M9.49981 5.31123C10.7268 5.31123 11.8419 5.8395 12.6497 6.69053C13.4574 7.54156 13.9588 8.71639 13.9588 10.0087C13.9588 11.3014 13.4574 12.4763 12.6497 13.3273C11.8419 14.1783 10.7268 14.7066 9.50021 14.7066C8.27322 14.7066 7.15812 14.1783 6.35036 13.3273C5.5426 12.4763 5.0412 11.3014 5.0412 10.0091C5.0412 8.71639 5.5426 7.54156 6.35036 6.69053C7.15812 5.8395 8.27322 5.31123 9.49981 5.31123ZM9.50021 6.36188C8.54845 6.36188 7.68306 6.77248 7.0556 7.43355C6.42814 8.09462 6.03843 9.00637 6.03843 10.0087C6.03843 11.0112 6.42814 11.9232 7.0556 12.5843C7.68306 13.2453 8.54845 13.6559 9.49981 13.6559C10.4516 13.6559 11.317 13.2453 11.9444 12.5843C12.5719 11.9232 12.9616 11.0112 12.9616 10.0091C12.9616 9.00637 12.5719 8.09462 11.9444 7.43355C11.317 6.77248 10.4516 6.36188 9.50021 6.36188Z" fill="white"/>
<path d="M9.4998 0C12.1131 0 14.4885 1.12588 16.21 2.93951C17.9314 4.75315 19 7.2558 19 10.0087C19 15.4469 9.87496 24.808 9.84883 24.8351C9.7521 24.9353 9.62605 25.0419 9.5002 25.0419C9.36218 25.0435 9.23753 24.9282 9.14718 24.8332L9.1414 24.8269C8.83026 24.506 0 15.3519 0 10.0091C0 7.2558 1.06863 4.75315 2.79005 2.93951C4.51146 1.12588 6.88686 0 9.4998 0ZM9.5002 1.05065C7.1623 1.05065 5.0364 2.05886 3.49529 3.68253C1.95417 5.30621 0.997229 7.54599 0.997229 10.0087C0.997229 14.4076 7.86455 21.9792 9.501 23.7212C11.1398 21.9773 18.0028 14.413 18.0028 10.0091C18.0028 7.54599 17.0458 5.30621 15.5047 3.68253C13.9636 2.05886 11.8377 1.05065 9.5002 1.05065Z" fill="white"/>
</svg>
