<svg width="23" height="24" viewBox="0 0 23 24" fill="none" xmlns="http://www.w3.org/2000/svg">
<path d="M11.4783 0.888182C14.7099 0.888182 17.3399 3.51377 17.3399 6.74083C17.3399 7.6072 17.1476 8.45019 16.7615 9.26046C15.172 12.9254 12.4382 16.3955 11.4969 17.5361C10.5448 16.3986 7.77215 12.9238 6.1765 9.24644C5.80278 8.46578 5.6136 7.62278 5.6136 6.74083C5.6136 3.51377 8.24356 0.888182 11.4783 0.888182ZM22.9859 23.4433L20.3311 13.2214C20.2955 13.0843 20.1978 12.9721 20.0675 12.9207L17.8563 12.031L17.5275 12.8568L19.531 13.6624L21.8834 22.7203L17.4469 20.4905C17.3275 20.4313 17.1864 20.4282 17.0639 20.4843L11.5 23.0647L5.93614 20.4843C5.81364 20.4282 5.67253 20.4313 5.55312 20.4905L1.11661 22.7203L3.46745 13.6624L5.47249 12.8568L5.14374 12.031L2.93247 12.9207C2.80221 12.9721 2.70452 13.0843 2.66885 13.2214L0.0140777 23.4433C-0.0293414 23.6116 0.0295845 23.7908 0.164494 23.8999C0.299404 24.0105 0.485486 24.0308 0.640554 23.9529L5.75781 21.3818L11.3139 23.9591C11.4318 24.0136 11.5682 24.0136 11.6845 23.9591L17.2422 21.3818L22.3594 23.9529C22.4215 23.984 22.4897 23.9996 22.5579 23.9996C22.6572 23.9996 22.7549 23.9653 22.8355 23.8999C22.9704 23.7908 23.0293 23.6116 22.9859 23.4433ZM11.4767 4.33807C12.7545 4.33807 13.7935 5.38207 13.7935 6.66604C13.7935 7.94845 12.7545 8.99245 11.4767 8.99245C10.199 8.99245 9.16157 7.94845 9.16157 6.66604C9.16157 5.38207 10.199 4.33807 11.4767 4.33807ZM11.4767 9.88219C13.2414 9.88219 14.6789 8.43929 14.6789 6.66604C14.6789 4.89123 13.2414 3.44833 11.4767 3.44833C9.71206 3.44833 8.27613 4.89123 8.27613 6.66604C8.27613 8.43929 9.71206 9.88219 11.4767 9.88219ZM11.1697 18.5178C11.2534 18.6129 11.3744 18.6658 11.5 18.6658C11.6272 18.6736 11.7481 18.6113 11.8318 18.5147C11.9838 18.3417 15.5814 14.2031 17.5663 9.62976C18.0036 8.71353 18.2253 7.74121 18.2253 6.74083C18.2253 3.02294 15.1984 0 11.4783 0C7.75665 0 4.72971 3.02294 4.72971 6.74083C4.72971 7.75679 4.94836 8.72911 5.37169 9.6173C7.36277 14.2031 11.0162 18.3433 11.1697 18.5178Z" fill="#1253C0"/>
</svg>
