<svg width="46" height="48" viewBox="0 0 46 48" fill="none" xmlns="http://www.w3.org/2000/svg">
<path d="M23.0448 1.95125C16.5988 1.95125 11.354 7.16 11.354 13.563C11.354 15.2837 11.7375 16.9575 12.5068 18.5652C15.6788 25.8352 21.1278 32.7232 23.0048 34.9872C24.9048 32.7275 30.4343 25.8335 33.617 18.5362C34.3603 16.9867 34.737 15.3135 34.737 13.563C34.737 7.16 29.492 1.95125 23.0448 1.95125ZM0.0977696 46.7082L5.38927 26.4235C5.46002 26.1517 5.65577 25.9305 5.91502 25.8265L10.3248 24.0625L10.9808 25.7013L6.98402 27.2992L2.29552 45.2725L11.1405 40.8495C11.3795 40.7302 11.6608 40.726 11.9043 40.838L23 45.9585L34.096 40.838C34.3383 40.726 34.6193 40.7302 34.8598 40.8495L43.7048 45.2725L39.016 27.2992L35.0195 25.7013L35.6748 24.0625L40.0845 25.8265C40.3443 25.9305 40.54 26.1517 40.6108 26.4235L45.9023 46.7082C45.9895 47.0425 45.873 47.3977 45.6043 47.6157C45.3343 47.8335 44.9633 47.874 44.654 47.7197L34.45 42.6167L23.3693 47.7312C23.135 47.8387 22.865 47.8387 22.6308 47.7312L11.5498 42.6167L1.34552 47.7197C1.22127 47.7815 1.08552 47.8125 0.951519 47.8125C0.753019 47.8125 0.55627 47.7452 0.39577 47.6157C0.12677 47.3977 0.0102696 47.0425 0.0977696 46.7082ZM23.0458 8.79525C20.499 8.79525 18.4268 10.8667 18.4268 13.414C18.4268 15.961 20.499 18.0327 23.0458 18.0327C25.5925 18.0327 27.6643 15.961 27.6643 13.414C27.6643 10.8667 25.5925 8.79525 23.0458 8.79525ZM23.0458 19.7965C19.526 19.7965 16.6628 16.9337 16.6628 13.414C16.6628 9.895 19.526 7.03125 23.0458 7.03125C26.565 7.03125 29.4283 9.895 29.4283 13.414C29.4283 16.9337 26.565 19.7965 23.0458 19.7965ZM23.658 36.9345C23.4905 37.1215 23.2513 37.229 23 37.229C22.7455 37.2432 22.5053 37.1197 22.3375 36.9292C22.034 36.5842 14.8605 28.3707 10.9023 19.2982C10.032 17.4787 9.59002 15.549 9.59002 13.563C9.59002 6.18725 15.6263 0.1875 23.0448 0.1875C30.4648 0.1875 36.501 6.18725 36.501 13.563C36.501 15.58 36.0658 17.5098 35.2205 19.271C31.2503 28.3735 23.9663 36.5887 23.658 36.9345Z" fill="white"/>
</svg>
