<svg width="31" height="31" viewBox="0 0 31 31" fill="none" xmlns="http://www.w3.org/2000/svg">
<g filter="url(#filter0_d)">
<path d="M25.868 19.7823C25.4709 20.2868 24.4242 21.1953 23.8302 21.552C23.749 21.6007 23.6693 21.6358 23.5911 21.6663C23.0121 21.4117 21.9939 20.8706 21.6871 20.485C21.5398 20.2975 21.2706 20.267 21.0856 20.4164C20.9006 20.5673 20.8705 20.8401 21.0179 21.0276C21.2871 21.3691 21.8029 21.709 22.2737 21.9742C21.8977 22.058 21.3743 22.1297 20.7081 22.1297C18.75 22.1297 14.7813 21.4575 10.1959 16.9594C3.65546 10.5423 4.89767 4.80352 5.06009 4.16944C5.07513 4.11304 5.07814 4.05512 5.07062 3.9972C5.03603 3.76703 5.08415 3.5384 5.21951 3.29604C5.55487 2.68025 6.41811 1.58888 6.89935 1.16972C7.12043 0.976136 7.31744 0.875535 7.46933 0.875535C7.534 0.875535 7.73101 0.875535 8.05435 1.32214L11.6908 6.34759C11.9118 6.65701 11.8637 7.08227 11.584 7.29567L9.78533 8.67969C9.77781 8.68274 9.76427 8.68731 9.75224 8.69036C9.27851 8.32149 8.63034 7.76514 8.4243 7.44809C8.29647 7.24689 8.02878 7.1905 7.83177 7.32006C7.63325 7.45267 7.57761 7.72093 7.70695 7.92214C7.98366 8.3535 8.65289 8.92204 9.0815 9.26347C8.74012 10.6795 9.82593 12.5696 12.56 15.3376C14.7392 17.5462 16.3273 18.0096 17.2762 18.0096C17.6928 18.0096 18.0041 17.9151 18.156 17.8267C18.2703 17.7612 18.35 17.6453 18.368 17.5127C18.3771 17.4533 18.3801 17.3679 18.3816 17.2749C18.3816 17.2231 18.3831 17.1332 18.3891 17.0829L19.6764 15.2355C19.8719 14.9611 20.3096 14.891 20.6058 15.0968L25.6815 18.6147C25.9612 18.8098 26.1146 18.9912 26.1387 19.1558C26.1627 19.3159 26.071 19.5262 25.868 19.7823ZM15.5994 1.78704C20.5728 2.979 24.3761 7.04112 25.2875 12.1367C25.3251 12.347 25.5055 12.4949 25.7101 12.4949C25.7341 12.4949 25.7612 12.4918 25.7868 12.4873C26.0199 12.4446 26.1748 12.219 26.1311 11.9827C25.1596 6.54574 21.1036 2.2123 15.7964 0.939554C15.5663 0.886205 15.3347 1.02948 15.2806 1.26422C15.2264 1.49743 15.3693 1.73064 15.5994 1.78704ZM15.0099 5.00777C18.3289 6.03512 20.9247 8.65225 21.9548 12.0102C22.012 12.1961 22.1819 12.315 22.3639 12.315C22.406 12.315 22.4496 12.3089 22.4917 12.2967C22.7173 12.2251 22.8436 11.9812 22.7745 11.751C21.6586 8.11876 18.8508 5.28823 15.261 4.17706C15.0339 4.10542 14.7948 4.2365 14.7256 4.46514C14.6564 4.6953 14.7843 4.93766 15.0099 5.00777ZM26.9869 19.0293C26.9267 18.6086 26.6575 18.2382 26.1657 17.8983L21.0901 14.3789C20.8284 14.1975 20.5231 14.1014 20.2088 14.1014C19.7185 14.1014 19.2599 14.3362 18.9786 14.731L17.6612 16.621C17.5575 16.7673 17.5334 16.9472 17.5274 17.121C17.0236 17.1972 15.5633 17.1515 13.1661 14.7233C10.8486 12.3775 9.75224 10.6536 9.89361 9.58814C9.91917 9.57594 9.93872 9.55003 9.96128 9.53174C10.0816 9.49821 10.1929 9.45553 10.2831 9.38541L12.1013 7.9892C12.751 7.4923 12.8788 6.52745 12.3841 5.83392L8.74614 0.808468C8.04683 -0.157905 7.2242 -0.258506 6.34141 0.509716C5.78196 0.994427 4.85556 2.1681 4.47057 2.8723C4.26002 3.25031 4.1728 3.64052 4.21039 4.03225C4.07655 4.59775 3.78329 6.26223 4.27055 8.58214C4.93377 11.7373 6.72641 14.766 9.59884 17.5843C14.4023 22.2958 18.6207 22.9985 20.7081 23C21.9368 23 22.7925 22.7698 23.1865 22.6022C23.5535 22.6189 23.9159 22.5138 24.2693 22.2988C24.9536 21.8888 26.077 20.9103 26.5372 20.3265C26.9011 19.8707 27.047 19.4455 26.9869 19.0293Z" fill="#1253C0"/>
</g>
<defs>
<filter id="filter0_d" x="0" y="0" width="31" height="31" filterUnits="userSpaceOnUse" color-interpolation-filters="sRGB">
<feFlood flood-opacity="0" result="BackgroundImageFix"/>
<feColorMatrix in="SourceAlpha" type="matrix" values="0 0 0 0 0 0 0 0 0 0 0 0 0 0 0 0 0 0 127 0"/>
<feOffset dy="4"/>
<feGaussianBlur stdDeviation="2"/>
<feColorMatrix type="matrix" values="0 0 0 0 0 0 0 0 0 0 0 0 0 0 0 0 0 0 0.25 0"/>
<feBlend mode="normal" in2="BackgroundImageFix" result="effect1_dropShadow"/>
<feBlend mode="normal" in="SourceGraphic" in2="effect1_dropShadow" result="shape"/>
</filter>
</defs>
</svg>
