<svg width="29" height="29" viewBox="0 0 29 29" fill="none" xmlns="http://www.w3.org/2000/svg">
<path d="M27.5727 24.9429C27.0721 25.5791 25.7523 26.7245 25.0033 27.1742C24.9009 27.2357 24.8004 27.2799 24.7018 27.3184C23.9717 26.9974 22.688 26.3151 22.3012 25.8289C22.1153 25.5925 21.7759 25.5541 21.5427 25.7424C21.3095 25.9327 21.2715 26.2767 21.4574 26.5131C21.7968 26.9436 22.4472 27.3722 23.0407 27.7066C22.5666 27.8123 21.9068 27.9026 21.0667 27.9026C18.5979 27.9026 13.5938 27.0551 7.81221 21.3836C-0.434426 13.2925 1.13185 6.05662 1.33664 5.25712C1.3556 5.18601 1.35939 5.11297 1.34991 5.03994C1.3063 4.74974 1.36698 4.46146 1.53764 4.15588C1.96049 3.37944 3.04892 2.00337 3.65571 1.47486C3.93445 1.23078 4.18286 1.10394 4.37437 1.10394C4.45591 1.10394 4.70431 1.10394 5.112 1.66705L9.69704 8.00348C9.97579 8.39362 9.91511 8.92982 9.56241 9.19889L7.29454 10.944C7.28506 10.9478 7.26799 10.9536 7.25283 10.9574C6.65552 10.4923 5.83825 9.79083 5.57847 9.39108C5.41729 9.13739 5.07976 9.06628 4.83136 9.22964C4.58106 9.39684 4.5109 9.73509 4.67397 9.98878C5.02288 10.5327 5.86669 11.2495 6.40711 11.68C5.97667 13.4655 7.34574 15.8486 10.7931 19.3387C13.5407 22.1235 15.5431 22.7078 16.7396 22.7078C17.2648 22.7078 17.6574 22.5886 17.8489 22.4771C17.993 22.3945 18.0935 22.2484 18.1162 22.0812C18.1276 22.0063 18.1314 21.8987 18.1333 21.7814C18.1333 21.7161 18.1352 21.6027 18.1428 21.5393L19.7659 19.21C20.0124 18.864 20.5642 18.7756 20.9378 19.0351L27.3375 23.4708C27.6902 23.7168 27.8836 23.9455 27.914 24.153C27.9443 24.3548 27.8286 24.62 27.5727 24.9429ZM14.6253 2.25322C20.8961 3.75613 25.6916 8.87793 26.8407 15.3028C26.8881 15.568 27.1157 15.7544 27.3736 15.7544C27.4039 15.7544 27.438 15.7506 27.4703 15.7448C27.7642 15.691 27.9595 15.4066 27.9045 15.1087C26.6795 8.25332 21.5654 2.78942 14.8737 1.18465C14.5836 1.11739 14.2916 1.29805 14.2233 1.59401C14.155 1.88806 14.3352 2.18211 14.6253 2.25322ZM13.882 6.31415C18.0669 7.60949 21.3398 10.9094 22.6387 15.1433C22.7108 15.3777 22.925 15.5276 23.1545 15.5276C23.2076 15.5276 23.2626 15.5199 23.3157 15.5046C23.6001 15.4142 23.7594 15.1067 23.6721 14.8165C22.2651 10.2367 18.7249 6.66777 14.1987 5.26672C13.9123 5.1764 13.6108 5.34168 13.5236 5.62996C13.4364 5.92016 13.5976 6.22574 13.882 6.31415ZM28.9834 23.9935C28.9076 23.4631 28.5682 22.9961 27.9481 22.5675L21.5484 18.1299C21.2184 17.9012 20.8335 17.7801 20.4372 17.7801C19.819 17.7801 19.2407 18.076 18.8861 18.5738L17.225 20.9569C17.0942 21.1414 17.0638 21.3682 17.0563 21.5873C16.421 21.6834 14.5798 21.6258 11.5572 18.5642C8.63517 15.6064 7.25283 13.4328 7.43107 12.0894C7.46331 12.074 7.48796 12.0413 7.5164 12.0183C7.6681 11.976 7.80842 11.9222 7.92219 11.8338L10.2147 10.0733C11.0339 9.44681 11.1951 8.23026 10.5712 7.35581L5.98426 1.01937C5.10252 -0.199098 4.06529 -0.325942 2.95221 0.642685C2.24682 1.25384 1.07875 2.73369 0.593323 3.6216C0.327853 4.09822 0.217873 4.59022 0.265278 5.08415C0.0965149 5.79716 -0.273247 7.89585 0.341126 10.821C1.17736 14.7992 3.43764 18.618 7.05941 22.1716C13.1159 28.1121 18.4348 28.9981 21.0667 29C22.6159 29 23.6949 28.7098 24.1917 28.4984C24.6544 28.5195 25.1114 28.3869 25.557 28.1159C26.4198 27.599 27.8362 26.3651 28.4165 25.629C28.8754 25.0544 29.0593 24.5182 28.9834 23.9935Z" fill="white"/>
</svg>
