<svg width="57" height="57" viewBox="0 0 57 57" fill="none" xmlns="http://www.w3.org/2000/svg">
<path d="M20.547 15.3672C26.2369 19.5063 31.9957 23.5764 37.7132 27.6775C37.9199 27.8257 37.9682 28.1117 37.82 28.3185C37.789 28.3633 37.7511 28.3978 37.7063 28.4288L20.547 40.7322C20.3402 40.8804 20.0542 40.8321 19.906 40.6254C19.8474 40.5426 19.8198 40.4496 19.8198 40.3565V15.7429C19.8198 15.4878 20.0266 15.2811 20.2816 15.2811C20.3816 15.2811 20.4712 15.3155 20.547 15.3672ZM36.6586 28.0497L20.74 16.6389V39.4639L36.6586 28.0497Z" fill="white"/>
<path d="M28.0497 0C35.7625 0 42.7758 3.15684 47.8591 8.24017C52.9425 13.3235 56.0993 20.3333 56.0993 28.0497C56.0993 35.7625 52.9425 42.7758 47.8591 47.8591C42.7758 52.9425 35.7625 56.0993 28.0497 56.0993C20.3368 56.0993 13.3235 52.9425 8.24017 47.8591C3.15684 42.7758 0 35.7625 0 28.0497C0 20.3368 3.15684 13.3235 8.24017 8.24017C13.3235 3.15684 20.3368 0 28.0497 0ZM28.0497 0.920169C20.5884 0.920169 13.806 3.97362 8.88808 8.88808C3.97362 13.806 0.920169 20.5884 0.920169 28.0497C0.920169 35.511 3.97362 42.2933 8.88808 47.2112C13.806 52.1257 20.5884 55.1792 28.0497 55.1792C35.511 55.1792 42.2933 52.1257 47.2112 47.2112C52.1257 42.2933 55.1791 35.511 55.1791 28.0497C55.1791 20.5884 52.1257 13.806 47.2112 8.88808C42.2933 3.97362 35.511 0.920169 28.0497 0.920169Z" fill="white"/>
</svg>
