<svg width="31" height="28" viewBox="0 0 31 28" fill="none" xmlns="http://www.w3.org/2000/svg">
<path d="M14.5413 23.2665V10.7282C14.5413 10.4249 14.7871 10.1791 15.0904 10.1791C15.3936 10.1791 15.6395 10.4249 15.6395 10.7282V23.2665H18.7259C19.4756 23.2665 20.1581 23.5737 20.6526 24.0681L20.6546 24.0701C21.1489 24.5646 21.4562 25.247 21.4562 25.9968V27.4509C21.4562 27.7542 21.2102 28 20.9071 28H9.27396C8.97063 28 8.7247 27.7542 8.7247 27.4509V25.9968C8.7247 25.247 9.03192 24.5646 9.52627 24.0701L9.52845 24.0681C10.023 23.5737 10.7052 23.2665 11.455 23.2665H14.5413ZM20.3579 26.9018V25.9968C20.3579 25.5477 20.1744 25.1392 19.8792 24.8433C19.5834 24.5483 19.1748 24.3647 18.7259 24.3647H15.0904H11.455C11.0061 24.3647 10.5976 24.5483 10.3017 24.8433C10.0065 25.1392 9.82307 25.5477 9.82307 25.9968V26.9018H20.3579ZM25.9966 6.18778C25.8247 6.18778 25.6147 6.21126 25.3753 6.23786C24.2952 6.35811 22.6934 6.53653 20.6411 5.3901C19.5442 4.77752 18.5709 4.38786 17.7078 4.34789C16.9051 4.31071 16.1717 4.5879 15.4829 5.2935C15.2723 5.51018 14.9254 5.51501 14.7085 5.30439L14.6978 5.2935C14.0092 4.5879 13.2756 4.31071 12.4731 4.34789C11.6099 4.38786 10.6366 4.77752 9.5398 5.3901C7.48712 6.53637 5.88538 6.35811 4.80537 6.23786C4.56613 6.21126 4.35628 6.18778 4.1844 6.18778C3.70171 6.18778 3.2559 6.31486 2.96081 6.60995C2.71006 6.8607 2.55233 7.25301 2.55233 7.81985C2.55233 7.95456 2.73728 8.17964 3.04559 8.38575C3.34052 8.58159 3.73282 8.72486 4.1844 8.72486C4.83072 8.72486 5.26721 8.6015 6.22106 8.33177L7.09325 8.08849C8.1294 7.79947 10.0242 7.27074 11.455 7.27074C12.3542 7.27074 12.98 7.68576 13.6012 8.09751C14.0758 8.41204 14.5477 8.72486 15.0904 8.72486C15.6335 8.72486 16.1051 8.41204 16.5797 8.09751C17.201 7.68576 17.8266 7.27074 18.7259 7.27074C20.1557 7.27074 22.0485 7.79869 23.0854 8.08787L23.9609 8.33209C24.914 8.6015 25.3503 8.72486 25.9966 8.72486C26.4482 8.72486 26.8403 8.58159 27.135 8.38528L27.1524 8.37424C27.4506 8.17155 27.6285 7.95207 27.6285 7.81985C27.6285 7.25239 27.4713 6.85977 27.2211 6.60871C26.9259 6.31455 26.4798 6.18778 25.9966 6.18778ZM25.2552 5.14805C25.5354 5.11694 25.7809 5.08957 25.9966 5.08957C26.7518 5.08957 27.4742 5.31356 27.9946 5.83358L27.9966 5.8356C28.445 6.28406 28.7269 6.93319 28.7269 7.81985C28.7269 8.28169 28.3668 8.87123 27.7651 9.28127L27.7398 9.29901C27.4682 9.48007 27.1441 9.63174 26.7811 9.7246L30.1311 17.7059C30.1633 17.7756 30.181 17.8532 30.181 17.9349V18.1769H30.3591C30.6625 18.1769 30.9082 18.4227 30.9082 18.726V19.4531H30.9065C30.9065 19.5187 30.8947 19.5856 30.8697 19.6505C30.4683 20.6918 29.7641 21.4986 28.8681 22.0499C27.9482 22.6158 26.8288 22.9104 25.6329 22.9104C24.4372 22.9104 23.3177 22.6158 22.3979 22.0499C21.5146 21.5064 20.8179 20.7146 20.4141 19.6953C20.378 19.6222 20.3579 19.5401 20.3579 19.4531V18.726C20.3579 18.4227 20.6037 18.1769 20.9071 18.1769H21.0849V17.9349H21.0866C21.0866 17.8775 21.0956 17.8188 21.1149 17.7611L23.9041 9.45518L23.6649 9.38767L22.7936 9.14345C21.8111 8.86921 20.0176 8.36911 18.7259 8.36911C18.153 8.36911 17.6669 8.69141 17.1845 9.01123C16.5704 9.41847 15.9598 9.82307 15.0904 9.82307C14.221 9.82307 13.6106 9.41847 12.9964 9.01123C12.5138 8.69141 12.0277 8.36911 11.455 8.36911C10.1626 8.36911 8.36693 8.86999 7.38492 9.14392L6.51708 9.38736L6.30646 9.44678L9.77313 17.7059C9.80518 17.7756 9.82307 17.8532 9.82307 17.9349V18.1769H10.001C10.3044 18.1769 10.5501 18.4227 10.5501 18.726V19.4531H10.5484C10.5484 19.5187 10.5366 19.5856 10.5115 19.6505C10.1104 20.6918 9.40618 21.4986 8.51004 22.0499C7.59025 22.6158 6.47073 22.9104 5.27498 22.9104C4.07909 22.9104 2.95972 22.6158 2.03978 22.0499C1.15685 21.5064 0.459973 20.7146 0.0561549 19.6953C0.020222 19.6222 0 19.5401 0 19.4531V18.726C0 18.4227 0.245775 18.1769 0.549105 18.1769H0.726903V17.9349H0.728459C0.728459 17.8775 0.737481 17.8188 0.756925 17.7611L3.45143 9.73736C3.06737 9.64589 2.72546 9.48847 2.44111 9.29901L2.43893 9.29683C1.8234 8.88632 1.45412 8.28744 1.45412 7.81985C1.45412 6.93163 1.73598 6.28204 2.18444 5.83358C2.70446 5.31356 3.42794 5.08957 4.1844 5.08957C4.40015 5.08957 4.64561 5.11694 4.92546 5.14805C5.86656 5.2529 7.26218 5.4083 9.00797 4.43328C10.2434 3.74325 11.3693 3.30287 12.4258 3.25403C13.3876 3.20939 14.2694 3.48052 15.0904 4.16573C15.9113 3.48052 16.7931 3.20939 17.7549 3.25403C18.8117 3.30287 19.9375 3.74325 21.1729 4.43328C22.9184 5.4083 24.3141 5.2529 25.2552 5.14805ZM25.627 9.81187C25.4005 9.7974 25.1902 9.76863 24.9684 9.72507L22.1832 18.0195V18.1769H29.0828V18.045L25.627 9.81187ZM5.23096 9.72134C5.01132 9.76536 4.80397 9.79445 4.58199 9.81L1.82511 18.0195V18.1769H8.7247V18.045L5.23096 9.72134ZM14.1856 2.00338C14.1856 2.30671 13.9396 2.55248 13.6365 2.55248C13.3331 2.55248 13.0874 2.30671 13.0874 2.00338C13.0874 1.45163 13.3117 0.951523 13.674 0.588927V0.586905C14.0364 0.224464 14.5373 0 15.0904 0C15.6433 0 16.1446 0.224464 16.5069 0.586905C16.8693 0.94919 17.0938 1.45038 17.0938 2.00338C17.0938 2.30671 16.8479 2.55248 16.5445 2.55248C16.2414 2.55248 15.9954 2.30671 15.9954 2.00338C15.9954 1.75325 15.8942 1.52676 15.7305 1.36327C15.567 1.19963 15.3404 1.09837 15.0904 1.09837C14.8403 1.09837 14.6138 1.19963 14.4503 1.36327C14.2865 1.52567 14.1856 1.75247 14.1856 2.00338ZM21.4562 19.2751V19.352C21.7716 20.1098 22.3028 20.7025 22.9728 21.1147C23.7182 21.5735 24.6389 21.8122 25.6329 21.8122C26.6271 21.8122 27.5478 21.5735 28.2932 21.1147C28.9632 20.7025 29.4944 20.11 29.81 19.352V19.2751H29.6319H21.6341H21.4562ZM1.09821 19.2751V19.352C1.41367 20.1098 1.94473 20.7023 2.6147 21.1147C3.36012 21.5735 4.28084 21.8122 5.27498 21.8122C6.26913 21.8122 7.1897 21.5735 7.93527 21.1147C8.60508 20.7025 9.13645 20.11 9.45192 19.352V19.2751H9.27396H1.27601H1.09821Z" fill="#1253C0"/>
</svg>
