<svg width="25" height="25" viewBox="0 0 25 25" fill="none" xmlns="http://www.w3.org/2000/svg">
<path d="M15.4231 0.16394C18.0149 0.16394 20.3708 1.22373 22.0781 2.93102C23.7854 4.63832 24.8452 6.99415 24.8452 9.58581C24.8452 12.1775 23.7854 14.5335 22.0781 16.2408C20.3708 17.9481 18.0149 19.0079 15.4233 19.0079C13.0139 19.0079 10.8087 18.0921 9.13849 16.5916L1.04682 24.6833C0.843487 24.8866 0.513487 24.8866 0.310154 24.6833C0.10682 24.48 0.10682 24.15 0.310154 23.9466L8.40265 15.8541C6.91099 14.186 6.0012 11.9871 6.0012 9.58581C6.0012 6.99415 7.06099 4.63832 8.76828 2.93102C10.4756 1.22373 12.8314 0.16394 15.4231 0.16394ZM15.4233 1.20561C13.1191 1.20561 11.0239 2.14873 9.50495 3.66769C7.98599 5.18665 7.04286 7.28186 7.04286 9.58581C7.04286 11.8898 7.98599 13.9852 9.50495 15.5041C11.0239 17.0231 13.1191 17.9662 15.4231 17.9662C17.7272 17.9662 19.8224 17.0231 21.3414 15.5041C22.8604 13.9852 23.8035 11.8898 23.8035 9.58581C23.8035 7.28186 22.8604 5.18665 21.3414 3.66769C19.8224 2.14873 17.7272 1.20561 15.4233 1.20561Z" fill="#1253C0"/>
</svg>
