<svg width="25" height="25" viewBox="0 0 25 25" fill="none" xmlns="http://www.w3.org/2000/svg">
<path d="M15.4217 0.163971C18.0135 0.163971 20.3694 1.22376 22.0767 2.93105C23.784 4.63835 24.8438 6.99418 24.8438 9.58584C24.8438 12.1775 23.784 14.5336 22.0767 16.2408C20.3694 17.9481 18.0135 19.0079 15.4219 19.0079C13.0125 19.0079 10.8073 18.0921 9.13708 16.5917L1.04542 24.6833C0.842083 24.8867 0.512083 24.8867 0.30875 24.6833C0.105417 24.48 0.105417 24.15 0.30875 23.9467L8.40125 15.8542C6.90958 14.1861 5.99979 11.9871 5.99979 9.58584C5.99979 6.99418 7.05958 4.63835 8.76688 2.93105C10.4742 1.22376 12.83 0.163971 15.4217 0.163971ZM15.4219 1.20564C13.1177 1.20564 11.0225 2.14876 9.50354 3.66772C7.98458 5.18668 7.04146 7.28189 7.04146 9.58584C7.04146 11.8898 7.98458 13.9852 9.50354 15.5042C11.0225 17.0231 13.1177 17.9663 15.4217 17.9663C17.7258 17.9663 19.821 17.0231 21.34 15.5042C22.859 13.9852 23.8021 11.8898 23.8021 9.58584C23.8021 7.28189 22.859 5.18668 21.34 3.66772C19.821 2.14876 17.7258 1.20564 15.4219 1.20564Z" fill="white"/>
</svg>
