<svg width="27" height="25" viewBox="0 0 27 25" fill="none" xmlns="http://www.w3.org/2000/svg">
<path d="M22.3125 15.572C23.4822 15.572 24.5416 16.0464 25.3083 16.8131C26.0749 17.5797 26.5494 18.6391 26.5494 19.8088C26.5494 20.9786 26.075 22.038 25.3083 22.8048C24.5416 23.5713 23.4823 24.0459 22.3125 24.0459C21.1427 24.0459 20.0834 23.5713 19.3167 22.8048C18.5499 22.038 18.0755 20.9786 18.0755 19.8088C18.0755 19.7369 18.0773 19.6653 18.0809 19.5942L13.9255 18.8063L10.208 21.1697L10.1812 21.1889C9.94021 21.3573 9.65488 21.4171 9.38557 21.3766C9.12393 21.3374 8.87584 21.2026 8.69703 20.9813C8.68101 20.9633 8.66595 20.9442 8.65226 20.9235C8.60023 20.8476 8.5582 20.7694 8.52726 20.69V20.6881C8.49713 20.6103 8.47577 20.5305 8.464 20.4506L6.81309 12.1609L0.431638 11.1391C0.15247 11.0949 -0.0378416 10.8325 0.00638178 10.5534C0.0506052 10.2742 0.312933 10.0839 0.592102 10.1281L7.3272 11.206C7.54476 11.2405 7.70823 11.4073 7.74903 11.6114L7.7504 11.6112L9.47142 20.2524C9.47566 20.2831 9.47443 20.3106 9.49236 20.3362C9.50304 20.3499 9.51975 20.3588 9.53809 20.3615C9.5522 20.3637 9.56698 20.3619 9.58013 20.3562L9.62024 20.328L13.5459 17.8319C13.6684 17.7541 13.8116 17.7349 13.9424 17.7668L18.2553 18.5848C18.4596 17.907 18.829 17.3008 19.3167 16.8131C20.0834 16.0464 21.1428 15.572 22.3125 15.572ZM9.77318 6.4458C9.79645 6.36666 9.83917 6.29218 9.90133 6.22961C10.3859 5.7411 15.7098 0.373913 15.708 0.372134L15.7444 0.339C15.9877 0.113091 16.2984 0 16.6077 0V0.00205374C16.9326 0.00219065 17.258 0.125961 17.5053 0.372818L17.5064 0.371723L17.534 0.401707L23.314 6.22961C23.3762 6.29218 23.4189 6.36666 23.4422 6.4458H24.299C24.4948 6.4458 24.6619 6.5044 24.7964 6.60284C24.9054 6.68307 24.9877 6.78672 25.0416 6.90542C25.0901 7.01208 25.1147 7.12845 25.1147 7.24771C25.1147 7.44336 25.0472 7.65421 24.9118 7.83836L18.8161 16.1702C18.7843 16.2146 18.7505 16.2761 18.7178 16.3357C18.5168 16.7018 18.3302 17.0415 17.7497 16.9532L10.4019 15.8299C10.1359 15.7895 9.90639 15.673 9.73005 15.4969L9.72799 15.4949C9.55384 15.3205 9.4376 15.0915 9.39598 14.8244L8.27328 7.61368H8.27122C8.26397 7.56603 8.26 7.51743 8.26 7.46978C8.26 7.19773 8.37706 6.95608 8.56011 6.77508L8.56915 6.76631C8.73208 6.60832 8.95237 6.49755 9.18554 6.461C9.24975 6.45114 9.30698 6.4458 9.3549 6.4458H9.77318ZM22.086 6.4458L16.7802 1.09586C16.7332 1.0489 16.6702 1.02508 16.6077 1.02508V1.02713C16.5506 1.02713 16.494 1.04562 16.449 1.08286C14.7258 2.88807 12.9036 4.66851 11.1307 6.4458H22.086ZM23.9096 7.47293L9.3419 7.47197C9.32328 7.47485 9.30493 7.48293 9.29 7.49443L10.407 14.6681C10.4138 14.712 10.4297 14.7472 10.4521 14.7707L10.4542 14.7728C10.476 14.7933 10.51 14.8083 10.5544 14.8148L17.8934 15.9367L17.8904 15.9073C17.8529 15.8866 17.809 15.8606 17.8191 15.8422C17.8681 15.7528 17.919 15.6606 17.986 15.5685L23.9096 7.47293ZM19.272 18.7775L22.272 19.3464C22.5499 19.3985 22.7331 19.6663 22.6811 19.9442C22.629 20.2221 22.3612 20.4053 22.0833 20.3533L19.1028 19.7881L19.1027 19.8088C19.1027 20.695 19.4621 21.4978 20.0429 22.0786C20.6236 22.6592 21.4262 23.0188 22.3125 23.0188C23.1987 23.0188 24.0013 22.6592 24.5821 22.0786C25.1629 21.4978 25.5223 20.695 25.5223 19.8088C25.5223 18.9227 25.1628 18.12 24.5821 17.5393C24.0013 16.9585 23.1986 16.5991 22.3125 16.5991C21.4264 16.5991 20.6236 16.9585 20.0429 17.5393C19.6985 17.8836 19.4319 18.306 19.272 18.7775Z" fill="#1253C0"/>
</svg>
