<svg width="26" height="25" viewBox="0 0 26 25" fill="none" xmlns="http://www.w3.org/2000/svg">
<path d="M23.7492 8.47924V23.6288H24.654C24.9397 23.6288 25.1714 23.8605 25.1714 24.1462C25.1714 24.4318 24.9397 24.6635 24.654 24.6635H23.2551L23.2318 24.6641L23.2085 24.6635H15.5406L15.5173 24.6641L15.4939 24.6635H10.1239L10.1006 24.6641L10.0773 24.6635H2.40991L2.3866 24.6641L2.36329 24.6635H0.96413C0.678477 24.6635 0.446755 24.4318 0.446755 24.1462C0.446755 23.8605 0.678477 23.6288 0.96413 23.6288H1.86923V8.48021H0.517375C0.231722 8.48021 0 8.24849 0 7.96283C0 7.85097 0.0354481 7.74739 0.0958614 7.6627L4.72686 0.24455C4.82451 0.0874476 4.99306 0.00110342 5.16534 0.000413773L20.4532 0C20.6498 0 20.8209 0.109792 20.9084 0.271308L25.5397 7.69001C25.6903 7.93208 25.6161 8.25069 25.374 8.40131C25.289 8.45428 25.1946 8.47938 25.1012 8.47924H23.7492ZM18.7959 13.9556H19.9907V11.0189H18.7959V13.9556ZM20.5081 14.9904H18.2785C17.9928 14.9904 17.7611 14.7586 17.7611 14.473V10.5016C17.7611 10.2159 17.9928 9.9842 18.2785 9.9842H20.5081C20.7938 9.9842 21.0255 10.2159 21.0255 10.5016V14.473C21.0255 14.7586 20.7938 14.9904 20.5081 14.9904ZM5.62768 13.9556H6.82229V11.0189H5.62768V13.9556ZM7.33967 14.9904H5.1103C4.82465 14.9904 4.59293 14.7586 4.59293 14.473V10.5016C4.59293 10.2159 4.82465 9.9842 5.1103 9.9842H7.33967C7.62532 9.9842 7.85704 10.2159 7.85704 10.5016V14.473C7.85704 14.7586 7.62532 14.9904 7.33967 14.9904ZM22.7144 23.6288V8.47938L2.90398 8.48007V23.6288H9.58323V18.2789C9.58323 17.4233 9.94999 16.6458 10.5407 16.083C11.1246 15.5269 11.9276 15.1815 12.809 15.1815C13.6906 15.1815 14.4937 15.527 15.0773 16.083C15.6679 16.6458 16.0346 17.4233 16.0346 18.2789V23.6288H22.7144ZM10.618 23.6288H14.9999V18.2789C14.9999 17.716 14.7571 17.2032 14.3661 16.8306C13.9684 16.4517 13.4174 16.2163 12.8094 16.2163C12.2009 16.2163 11.6497 16.4517 11.2519 16.8306C10.8609 17.203 10.618 17.716 10.618 18.2789V23.6288ZM18.7959 20.6633H19.9907V17.7268H18.7959V20.6633ZM20.5081 21.698H18.2785C17.9928 21.698 17.7611 21.4663 17.7611 21.1807V17.2094C17.7611 16.9237 17.9928 16.692 18.2785 16.692H20.5081C20.7938 16.692 21.0255 16.9237 21.0255 17.2094V21.1807C21.0255 21.4663 20.7938 21.698 20.5081 21.698ZM5.62768 20.6633H6.82229V17.7268H5.62768V20.6633ZM7.33967 21.698H5.1103C4.82465 21.698 4.59293 21.4663 4.59293 21.1807V17.2094C4.59293 16.9237 4.82465 16.692 5.1103 16.692H7.33967C7.62532 16.692 7.85704 16.9237 7.85704 17.2094V21.1807C7.85704 21.4663 7.62532 21.698 7.33967 21.698ZM20.1674 1.03475H5.45113L1.44909 7.44546H24.1695L20.1674 1.03475Z" fill="#1253C0"/>
</svg>
