<svg width="25" height="26" viewBox="0 0 25 26" fill="none" xmlns="http://www.w3.org/2000/svg">
<path d="M16.2537 12.7754L14.5803 11.8732C14.3539 11.7518 14.2606 11.4775 14.3584 11.2442L14.9786 9.77099C14.9223 9.7091 14.8682 9.64628 14.8165 9.58253C14.7653 9.51958 14.715 9.4541 14.6657 9.38625L13.109 9.7087C12.8576 9.76025 12.6118 9.60903 12.5394 9.3665L12.5381 9.3669L11.9885 7.53836C11.9121 7.28336 12.0491 7.01446 12.2958 6.92646L13.7501 6.33404C13.7539 6.25147 13.7598 6.16943 13.7679 6.08806C13.776 6.00483 13.7863 5.92239 13.7985 5.84076L12.4721 4.96114C12.2579 4.81946 12.1897 4.53797 12.3083 4.31465L13.2042 2.6307C13.3248 2.40288 13.5974 2.30891 13.8291 2.40738L15.2943 3.03187C15.3551 2.97581 15.4172 2.92187 15.48 2.86992V2.86793C15.5425 2.81638 15.6074 2.76588 15.6748 2.71632L15.3546 1.14952C15.3034 0.896521 15.4536 0.649084 15.6946 0.576192L15.6942 0.574866L17.5112 0.0212809C17.7646 -0.0555876 18.0317 0.0822456 18.1191 0.33061L18.7078 1.79456C18.7901 1.7984 18.872 1.80436 18.9531 1.81245C19.0352 1.82067 19.1167 1.831 19.1977 1.84333L20.0714 0.508335C20.2122 0.292706 20.4918 0.224055 20.7137 0.343466L22.3871 1.24548C22.6134 1.36688 22.7068 1.64122 22.6089 1.87447L21.989 3.34704C22.0455 3.40906 22.0998 3.47215 22.1518 3.53603C22.2022 3.59805 22.2525 3.66365 22.3022 3.73244L23.8584 3.41012C24.1097 3.35857 24.3555 3.50978 24.428 3.75232L24.4293 3.75192L24.9789 5.5802C25.0552 5.83519 24.9183 6.1041 24.6717 6.1921L23.2183 6.78478C23.2145 6.86748 23.2084 6.94938 23.2004 7.03089C23.1922 7.11399 23.182 7.19629 23.1697 7.27793L24.4951 8.15741C24.7093 8.29909 24.7775 8.58059 24.6589 8.8039L23.763 10.4881C23.6424 10.7159 23.3699 10.8099 23.1381 10.7114L21.6745 10.0872C21.6146 10.1419 21.5528 10.1956 21.4892 10.2481C21.4248 10.3012 21.3593 10.3527 21.2925 10.4021L21.6127 11.9693C21.6639 12.2223 21.5137 12.4697 21.2728 12.5426L21.2732 12.544L19.4563 13.0967C19.2029 13.1736 18.9359 13.0359 18.8483 12.7875L18.2599 11.3243C18.1776 11.3204 18.0958 11.3145 18.0147 11.3064C17.9326 11.2982 17.8508 11.2878 17.7697 11.2754L16.8961 12.6103C16.7553 12.826 16.4756 12.8946 16.2537 12.7754ZM8.33835 14.1359C9.2711 14.1359 10.1187 14.5197 10.7325 15.1376C11.3463 15.7555 11.7277 16.6086 11.7277 17.547V17.5893C11.7277 18.5264 11.3463 19.3789 10.7325 19.9969V19.9987C10.1187 20.6166 9.2711 21.0004 8.33875 21.0004C7.40613 21.0004 6.55858 20.6166 5.94473 19.9987L5.9184 19.97C5.31996 19.3542 4.94958 18.5129 4.94958 17.5893V17.547C4.94958 16.6086 5.33089 15.7555 5.94473 15.1376C6.55858 14.5197 7.40613 14.1359 8.33835 14.1359ZM8.33875 15.1299C7.67856 15.1299 7.07814 15.4021 6.64284 15.8403C6.20754 16.2784 5.9371 16.8828 5.9371 17.547V17.5893C5.9371 18.2428 6.19806 18.8382 6.61993 19.2745L6.64284 19.2961C7.07814 19.7342 7.67856 20.0064 8.33835 20.0064C8.99867 20.0064 9.59908 19.7342 10.0344 19.2961C10.4701 18.8588 10.7401 18.2541 10.7401 17.5893V17.547C10.7401 16.8828 10.4697 16.2784 10.0344 15.8403C9.59908 15.4021 8.99867 15.1299 8.33875 15.1299ZM5.51049 25.571L3.32833 24.3946C3.10199 24.2732 3.00864 23.9988 3.10647 23.7656L3.9531 21.7541C3.85856 21.6533 3.76824 21.5502 3.68252 21.4448C3.59759 21.3404 3.51477 21.2309 3.43446 21.1166L1.30879 21.5565C1.05743 21.6081 0.811603 21.4569 0.739184 21.2143L0.737868 21.2147L0.0211913 18.8293C-0.0553086 18.5743 0.0817592 18.3054 0.328508 18.2174L2.32067 17.4059C2.32488 17.2686 2.33357 17.1322 2.34687 16.997C2.36056 16.8589 2.37873 16.7223 2.40125 16.5875L0.590266 15.3861C0.37604 15.2444 0.307836 14.9629 0.42647 14.7396L1.59517 12.543C1.71578 12.3152 1.98833 12.2212 2.22007 12.3197L4.21842 13.1718C4.31848 13.0766 4.42105 12.9858 4.52573 12.8995C4.62949 12.8141 4.73811 12.7307 4.85175 12.6498L4.41434 10.5104C4.36312 10.2574 4.51336 10.0099 4.75431 9.93705L4.75392 9.93572L7.12344 9.21435C7.37677 9.13735 7.64393 9.27532 7.73135 9.52368L8.53757 11.5286C8.67463 11.5327 8.81078 11.5417 8.94561 11.5553C9.08255 11.5689 9.21817 11.5871 9.35181 11.6097L10.5445 9.78742C10.6852 9.57179 10.9649 9.50314 11.1868 9.62255L13.369 10.7988C13.5954 10.9202 13.6887 11.1945 13.5909 11.4278L12.7444 13.4388C12.837 13.5381 12.9268 13.6412 13.0139 13.7481H13.0159C13.1008 13.8527 13.1837 13.9619 13.264 14.0762L15.3887 13.6364C15.6401 13.5849 15.8859 13.7361 15.9583 13.9786L15.9596 13.9782L16.6762 16.3635C16.7527 16.6185 16.6156 16.8874 16.3689 16.9754L14.378 17.7864C14.3738 17.9242 14.365 18.0613 14.3517 18.1968C14.338 18.3351 14.3197 18.4718 14.2972 18.6068L16.1072 19.8068C16.3215 19.9485 16.3897 20.23 16.271 20.4533L15.1025 22.6499C14.9819 22.8777 14.7093 22.9717 14.4776 22.8732L12.4799 22.0216C12.3795 22.117 12.2767 22.2083 12.1716 22.2949C12.0695 22.379 11.9608 22.462 11.846 22.5433L12.2829 24.6824C12.3341 24.9354 12.1839 25.1829 11.9429 25.2557L11.9433 25.2571L9.57367 25.9787C9.32034 26.0556 9.05332 25.9179 8.96576 25.6695L8.15954 23.6648C8.02248 23.6606 7.88646 23.6516 7.75163 23.6381C7.6147 23.6244 7.47921 23.6061 7.34569 23.5835L6.1529 25.406C6.01215 25.6217 5.73248 25.6903 5.51049 25.571ZM4.18787 23.7347L5.57843 24.4844L6.68853 22.7879C6.79308 22.6019 7.01007 22.4987 7.22746 22.5488C7.43365 22.5965 7.64103 22.6311 7.84801 22.6518C8.04657 22.6716 8.24658 22.6799 8.44658 22.676C8.65791 22.6559 8.86621 22.7758 8.94995 22.984L9.71904 24.8962L11.2277 24.4367L10.8149 22.4159C10.7759 22.2193 10.8581 22.0099 11.0368 21.8975C11.2057 21.791 11.3764 21.6664 11.5467 21.5259C11.7141 21.3881 11.8685 21.2435 12.0094 21.0938C12.1466 20.9493 12.3634 20.8972 12.5572 20.9792L14.4469 21.7847L15.1916 20.3851L13.507 19.2681C13.3223 19.1629 13.2197 18.9446 13.2695 18.7258C13.3169 18.5178 13.3511 18.3086 13.3718 18.0998C13.3913 17.9002 13.3995 17.6989 13.3955 17.4975C13.3755 17.2847 13.4947 17.0751 13.7015 16.9908L15.6008 16.2172L15.1446 14.6985L13.1528 15.1108C12.9535 15.1587 12.7373 15.0769 12.622 14.8927C12.5125 14.7175 12.3886 14.5452 12.252 14.3771L12.2531 14.3762C12.1209 14.2139 11.9772 14.0588 11.8228 13.9115C11.6792 13.7735 11.6275 13.5553 11.709 13.3602L12.5095 11.4586L11.1189 10.709L10.0088 12.4051C9.90443 12.591 9.68744 12.6942 9.47005 12.6441C9.26412 12.5967 9.05661 12.5622 8.84923 12.5416C8.6508 12.5218 8.45053 12.5137 8.25053 12.5176C8.0392 12.5377 7.8309 12.4178 7.74716 12.2096L6.97807 10.2969L5.46967 10.7561L5.87969 12.7616C5.92722 12.9622 5.84611 13.18 5.66296 13.2961C5.48863 13.4063 5.31746 13.531 5.15063 13.6685C4.98368 13.8062 4.8291 13.9504 4.68874 14.0995C4.55154 14.2441 4.33481 14.2962 4.14099 14.2141L2.25075 13.4082L1.5059 14.8079L3.19153 15.9262C3.37613 16.0314 3.4787 16.2497 3.42893 16.4685C3.38166 16.6762 3.34742 16.8853 3.32675 17.094C3.30726 17.2931 3.2991 17.4938 3.30305 17.6948C3.32306 17.9075 3.2039 18.1172 2.99705 18.2015L1.09667 18.9756L1.5529 20.4944L3.54572 20.082C3.74506 20.0341 3.96127 20.1159 4.07648 20.3001C4.18603 20.4756 4.30993 20.6479 4.44647 20.8158C4.58314 20.9837 4.72653 21.1393 4.87492 21.2807C5.01857 21.4188 5.07032 21.637 4.98881 21.8321L4.18787 23.7347ZM18.4681 4.41074C19.0507 4.41074 19.5816 4.65141 19.967 5.03907C20.3525 5.42527 20.5912 5.95964 20.5912 6.54768V6.57154C20.5912 7.15719 20.3525 7.6913 19.9679 8.07909L19.9642 8.0828C19.5791 8.46886 19.0495 8.70835 18.4683 8.70835C17.8862 8.70835 17.3556 8.46807 16.9703 8.08094L16.9666 8.07723C16.5831 7.68957 16.3452 7.15627 16.3452 6.57154V6.54768C16.3452 5.95964 16.5839 5.42527 16.9685 5.03814L16.9992 5.00991C17.3819 4.63949 17.9004 4.41074 18.4681 4.41074ZM18.4683 5.40473C18.1651 5.40473 17.8896 5.5248 17.6866 5.71936L17.6666 5.74083C17.4607 5.94811 17.3327 6.23385 17.3327 6.54768V6.57154C17.3327 6.88656 17.46 7.17217 17.6648 7.37826L17.6666 7.38011C17.8713 7.5862 18.1551 7.71436 18.4681 7.71436C18.7813 7.71436 19.0651 7.5862 19.2698 7.38011L19.2717 7.37826C19.4764 7.17217 19.6037 6.88656 19.6037 6.57154V6.54768C19.6037 6.23385 19.4757 5.94811 19.2698 5.74083V5.73897C19.0651 5.53288 18.7812 5.40473 18.4683 5.40473ZM15.4398 11.2133L16.3216 11.6887L17.1145 10.4771C17.2198 10.2958 17.4331 10.1955 17.6475 10.2439C17.8002 10.2788 17.9552 10.3044 18.1111 10.3201C18.2569 10.3346 18.4033 10.3406 18.5494 10.3384C18.7604 10.3189 18.9679 10.4387 19.0515 10.6465L19.6016 12.0144L20.5574 11.7236L20.2654 10.2938C20.2178 10.0932 20.2989 9.87556 20.4821 9.75946C20.6177 9.67371 20.7456 9.58107 20.8643 9.48313C20.9827 9.38532 21.0967 9.2781 21.2053 9.16253C21.3425 9.01675 21.5605 8.9636 21.7551 9.04604L23.1074 9.62295L23.5796 8.73552L22.3819 7.94099C22.1973 7.83576 22.0948 7.61748 22.1445 7.39867C22.1797 7.24374 22.2054 7.08828 22.2205 6.93388C22.2349 6.78769 22.2411 6.64072 22.2387 6.49427C22.2189 6.28169 22.338 6.07229 22.5447 5.98813L23.9034 5.43401L23.6144 4.47236L22.1779 4.76977C21.9826 4.80899 21.7746 4.72629 21.6629 4.54645C21.5857 4.4224 21.4933 4.29464 21.3878 4.16502C21.2851 4.03859 21.1781 3.92275 21.0683 3.81792C20.9246 3.67982 20.8729 3.46168 20.9544 3.26659L21.5275 1.90522L20.6459 1.42996L19.8528 2.64157C19.7475 2.82287 19.5342 2.9232 19.3198 2.87482C19.1674 2.83984 19.0125 2.81439 18.8568 2.79875C18.7107 2.78404 18.5641 2.77794 18.4182 2.7802C18.2072 2.79968 17.9997 2.67987 17.9161 2.47206L17.3659 1.1038L16.4099 1.39511L16.7023 2.82552C16.7498 3.02631 16.6687 3.24379 16.4855 3.35989C16.3574 3.44087 16.2301 3.53364 16.1049 3.63688L16.1039 3.63569C15.9861 3.73297 15.8771 3.83422 15.7777 3.93839C15.6422 4.0977 15.4152 4.15826 15.2131 4.07265L13.8598 3.49587L13.3877 4.3829L14.5862 5.1777C14.7709 5.2828 14.8735 5.50121 14.8237 5.72002C14.7886 5.87482 14.7629 6.03041 14.7478 6.18507C14.7334 6.33112 14.7273 6.4781 14.7297 6.62455C14.7495 6.83713 14.6304 7.04653 14.4237 7.13069L13.064 7.68467L13.353 8.64645L14.7742 8.3521C14.9736 8.30426 15.1899 8.3859 15.3052 8.57025C15.3858 8.69947 15.478 8.82763 15.5804 8.95353C15.6831 9.0797 15.7899 9.19567 15.8993 9.3001C16.043 9.4382 16.0947 9.65635 16.0132 9.85143L15.4398 11.2133Z" fill="#1253C0"/>
</svg>
