<svg width="22" height="26" viewBox="0 0 22 26" fill="none" xmlns="http://www.w3.org/2000/svg">
<path d="M20.1724 23.0895C20.1724 23.848 19.5551 24.4654 18.7966 24.4654H3.20371C2.44516 24.4654 1.82792 23.848 1.82792 23.0895V6.12097C1.82792 5.36242 2.44516 4.74505 3.20371 4.74505H6.87257C6.87257 5.5036 7.48994 6.12097 8.24849 6.12097H14.2104C14.969 6.12097 15.5862 5.5036 15.5862 4.74505H18.7966C19.5551 4.74505 20.1724 5.36242 20.1724 6.12097V23.0895ZM16.5035 18.962H13.7518C13.4982 18.962 13.2931 19.167 13.2931 19.4206C13.2931 19.6742 13.4982 19.8793 13.7518 19.8793H16.5035C16.7571 19.8793 16.962 19.6742 16.962 19.4206C16.962 19.167 16.7571 18.962 16.5035 18.962ZM9.62428 21.255H5.95542V17.5862H9.62428V21.255ZM10.0829 16.6689H5.49678C5.24315 16.6689 5.03814 16.8739 5.03814 17.1276V21.7137C5.03814 21.9673 5.24315 22.1723 5.49678 22.1723H10.0829C10.3366 22.1723 10.5416 21.9673 10.5416 21.7137V17.1276C10.5416 16.8739 10.3366 16.6689 10.0829 16.6689ZM16.5035 11.6243H13.7518C13.4982 11.6243 13.2931 11.8293 13.2931 12.0829C13.2931 12.3365 13.4982 12.5414 13.7518 12.5414H16.5035C16.7571 12.5414 16.962 12.3365 16.962 12.0829C16.962 11.8293 16.7571 11.6243 16.5035 11.6243ZM11.112 8.57589L8.4535 11.6468L7.19679 10.3971C7.01752 10.2182 6.72775 10.2324 6.54835 10.4112C6.36908 10.5905 6.36908 10.9093 6.54835 11.0885L8.15346 12.7511C8.23926 12.8373 8.35626 13.0001 8.47781 13.0001C8.48327 13.0001 8.48834 13.0001 8.49432 12.5414C8.62133 12.5414 8.74107 12.5942 8.82452 12.4984L11.8054 9.17389C11.971 8.98214 11.9504 8.69367 11.7591 8.52766C11.5674 8.36217 11.2789 8.38466 11.112 8.57589ZM10.0829 12.0829C9.82929 12.0829 9.62428 12.2879 9.62428 12.5414V13.4587H5.95542V9.78983H8.707C8.96063 9.78983 9.16564 9.58482 9.16564 9.33119C9.16564 9.07756 8.96063 8.87255 8.707 8.87255H5.49678C5.24315 8.87255 5.03814 9.07756 5.03814 9.33119V13.9173C5.03814 14.171 5.24315 14.376 5.49678 14.376H10.0829C10.3366 14.376 10.5416 14.171 10.5416 13.9173V12.5414C10.5416 12.2879 10.3366 12.0829 10.0829 12.0829ZM7.78985 4.28641C7.78985 4.00665 7.94026 3.8279 8.01917 3.8279C8.58779 3.8279 9.21335 3.33806 9.47387 2.6878L9.70956 2.09838C9.82695 1.80354 10.2241 1.53483 10.5416 1.53483H11.9174C12.2347 1.53483 12.6318 1.80354 12.7492 2.09838L12.985 2.68819C13.0161 2.76476 13.0529 2.83912 13.0928 2.91062H12.376C12.1224 2.91062 11.9174 3.11563 11.9174 3.36926C11.9174 3.62289 12.1224 3.8279 12.376 3.8279H14.2104C14.2384 3.8279 14.2618 3.81685 14.2884 3.8123C14.3389 3.81919 14.3897 3.8279 14.4397 3.8279C14.5185 3.8279 14.6691 4.00665 14.6691 4.28641V4.74505C14.6691 4.99829 14.4635 5.20369 14.2104 5.20369H8.24849C7.99525 5.20369 7.78985 4.99829 7.78985 4.74505V4.28641ZM18.7966 3.8279H15.5862C15.5624 3.8279 15.5418 3.83752 15.5193 3.84116C15.3643 3.30179 14.9414 2.91062 14.4397 2.91062C14.2879 2.91062 13.9678 2.6735 13.8371 2.34694L13.6014 1.75726C13.345 1.11844 12.6053 0.617554 11.9174 0.617554H10.5416C9.8536 0.617554 9.1139 1.11844 8.85754 1.75765L8.62172 2.34694C8.49107 2.6735 8.17088 2.91062 8.01917 2.91062C7.51737 2.91062 7.09461 3.30179 6.93952 3.84116C6.91716 3.83752 6.89649 3.8279 6.87257 3.8279H3.20371C1.93933 3.8279 0.910645 4.85646 0.910645 6.12097V23.0895C0.910645 24.3539 1.93933 25.3825 3.20371 25.3825H18.7966C20.0609 25.3825 21.0895 24.3539 21.0895 23.0895V6.12097C21.0895 4.85646 20.0609 3.8279 18.7966 3.8279Z" fill="#1253C0"/>
</svg>
