<svg width="25" height="27" viewBox="0 0 25 27" fill="none" xmlns="http://www.w3.org/2000/svg">
<path d="M23.9639 1.90389L1.76848 25.7971H23.9639V23.2182H21.815C21.5289 23.2182 21.297 22.9685 21.297 22.6605C21.297 22.3525 21.5289 22.1028 21.815 22.1028H23.9639V19.4793H22.8287C22.5455 19.4793 22.3158 19.2296 22.3158 18.9217C22.3158 18.6139 22.5455 18.3642 22.8287 18.3642H23.9639V15.7414H21.815C21.5289 15.7414 21.297 15.4917 21.297 15.1837C21.297 14.8757 21.5289 14.626 21.815 14.626H23.9639V12.0033H22.8287C22.5455 12.0033 22.3158 11.7536 22.3158 11.4458C22.3158 11.138 22.5455 10.8883 22.8287 10.8883H23.9639V8.26531H21.815C21.5289 8.26531 21.297 8.01561 21.297 7.70762C21.297 7.39962 21.5289 7.14993 21.815 7.14993H23.9639V1.90389ZM13.1261 3.19566L14.735 4.92748L15.9161 3.65609L14.3072 1.92412L13.1261 3.19566ZM15.2041 5.99974C15.181 6.04495 15.1516 6.08763 15.1159 6.126C15.0803 6.16437 15.0406 6.1959 14.9986 6.22073L4.86406 17.1308L4.86254 17.1292C4.80603 17.1903 4.7353 17.2381 4.65365 17.2659L1.26603 18.4237C1.1573 18.4721 1.03282 18.4814 0.911942 18.4403C0.639368 18.3478 0.488091 18.0345 0.574022 17.741L1.65824 14.0634C1.68159 13.975 1.72552 13.8915 1.79017 13.8219L13.9409 0.74136C14.1432 0.523637 14.4712 0.523637 14.6734 0.74136L17.0148 3.26184C17.2171 3.47956 17.2171 3.83262 17.0148 4.05034L15.2041 5.99974ZM14.0025 5.71598L12.3936 3.98416L2.61163 14.5146L1.86284 17.0546L4.21751 16.2498L14.0025 5.71598ZM18.5435 15.3094L14.2214 19.9623H18.5435V15.3094ZM12.6046 20.1257L18.6895 13.5751C18.7837 13.4705 18.9155 13.4055 19.0615 13.4055C19.3476 13.4055 19.5796 13.6552 19.5796 13.9632V20.52C19.5796 20.828 19.3476 21.0777 19.0615 21.0777H12.9708C12.8383 21.0775 12.7057 21.0231 12.6046 20.9142C12.4023 20.6965 12.4023 20.3435 12.6046 20.1257ZM0.151691 25.9606L24.1099 0.169687C24.2041 0.0649898 24.3359 0 24.4819 0C24.768 0 25 0.249698 25 0.557693V26.3548C25 26.6628 24.768 26.9125 24.4819 26.9125H0.517932C0.385444 26.9123 0.252818 26.8579 0.151691 26.7491C-0.0505637 26.5313 -0.0505637 26.1783 0.151691 25.9606Z" fill="#1253C0"/>
</svg>
