<svg width="24" height="24" viewBox="0 0 24 24" fill="none" xmlns="http://www.w3.org/2000/svg">
<path d="M8.10088 15.0769L2.11663 21.061V16.0693C2.11663 15.7479 1.85623 15.4881 1.53523 15.4881C1.21438 15.4881 0.953979 15.7479 0.953979 16.0693V22.4646C0.953979 22.7859 1.21438 23.046 1.53523 23.046H7.93048C8.25133 23.046 8.51188 22.7859 8.51188 22.4646C8.51188 22.143 8.25133 21.8832 7.93048 21.8832H2.93878L8.92288 15.8991C9.15013 15.6717 9.15013 15.3043 8.92288 15.0769C8.69563 14.8497 8.32813 14.8497 8.10088 15.0769Z" fill="#1253C0"/>
<path d="M21.0613 21.8832H16.0696C15.7488 21.8832 15.4882 22.143 15.4882 22.4646C15.4882 22.7859 15.7488 23.046 16.0696 23.046H22.4647C22.7857 23.046 23.0461 22.7859 23.0461 22.4646V16.0693C23.0461 15.7479 22.7857 15.4881 22.4647 15.4881C22.1439 15.4881 21.8835 15.7479 21.8835 16.0693V21.061L15.8992 15.0769C15.672 14.8497 15.3045 14.8497 15.0772 15.0769C14.85 15.3043 14.85 15.6717 15.0772 15.8991L21.0613 21.8832Z" fill="#1253C0"/>
<path d="M2.93878 2.11666H7.93048C8.25133 2.11666 8.51188 1.85686 8.51188 1.53526C8.51188 1.21381 8.25133 0.953857 7.93048 0.953857H1.53523C1.21438 0.953857 0.953979 1.21381 0.953979 1.53526V7.93036C0.953979 8.25166 1.21438 8.51176 1.53523 8.51176C1.85623 8.51176 2.11663 8.25166 2.11663 7.93036V2.93866L8.10088 8.92276C8.21428 9.03616 8.36308 9.09316 8.51188 9.09316C8.66068 9.09316 8.80948 9.03616 8.92288 8.92276C9.15013 8.69551 9.15013 8.32801 8.92288 8.10076L2.93878 2.11666Z" fill="#1253C0"/>
<path d="M15.4882 9.09316C15.637 9.09316 15.786 9.03616 15.8992 8.92276L21.8835 2.93866V7.93036C21.8835 8.25166 22.1439 8.51176 22.4647 8.51176C22.7857 8.51176 23.0461 8.25166 23.0461 7.93036V1.53526C23.0461 1.21381 22.7857 0.953857 22.4647 0.953857H16.0696C15.7488 0.953857 15.4882 1.21381 15.4882 1.53526C15.4882 1.85686 15.7488 2.11666 16.0696 2.11666H21.0613L15.0772 8.10076C14.85 8.32801 14.85 8.69551 15.0772 8.92276C15.1906 9.03616 15.3394 9.09316 15.4882 9.09316Z" fill="#1253C0"/>
</svg>
