<svg width="20" height="20" viewBox="0 0 20 20" fill="none" xmlns="http://www.w3.org/2000/svg">
<path d="M6.6208 12.6668L1.43445 17.853V13.5268C1.43445 13.2482 1.20877 13.0231 0.930569 13.0231C0.652499 13.0231 0.426819 13.2482 0.426819 13.5268V19.0694C0.426819 19.3478 0.652499 19.5733 0.930569 19.5733H6.47312C6.75119 19.5733 6.977 19.3478 6.977 19.0694C6.977 18.7907 6.75119 18.5655 6.47312 18.5655H2.14698L7.3332 13.3793C7.53015 13.1822 7.53015 12.8638 7.3332 12.6668C7.13625 12.4698 6.81775 12.4698 6.6208 12.6668Z" fill="white"/>
<path d="M17.8532 18.5655H13.5271C13.249 18.5655 13.0232 18.7907 13.0232 19.0694C13.0232 19.3478 13.249 19.5733 13.5271 19.5733H19.0695C19.3477 19.5733 19.5734 19.3478 19.5734 19.0694V13.5268C19.5734 13.2482 19.3477 13.0231 19.0695 13.0231C18.7914 13.0231 18.5657 13.2482 18.5657 13.5268V17.853L13.3794 12.6668C13.1824 12.4698 12.8639 12.4698 12.667 12.6668C12.47 12.8638 12.47 13.1822 12.667 13.3793L17.8532 18.5655Z" fill="white"/>
<path d="M2.14698 1.43452H6.47312C6.75119 1.43452 6.977 1.20936 6.977 0.930638C6.977 0.652048 6.75119 0.426758 6.47312 0.426758H0.930569C0.652499 0.426758 0.426819 0.652048 0.426819 0.930638V6.47306C0.426819 6.75152 0.652499 6.97694 0.930569 6.97694C1.20877 6.97694 1.43445 6.75152 1.43445 6.47306V2.14692L6.6208 7.33314C6.71908 7.43142 6.84804 7.48082 6.977 7.48082C7.10596 7.48082 7.23492 7.43142 7.3332 7.33314C7.53015 7.13619 7.53015 6.81769 7.3332 6.62074L2.14698 1.43452Z" fill="white"/>
<path d="M13.0232 7.48082C13.1522 7.48082 13.2812 7.43142 13.3794 7.33314L18.5657 2.14692V6.47306C18.5657 6.75152 18.7914 6.97694 19.0695 6.97694C19.3477 6.97694 19.5734 6.75152 19.5734 6.47306V0.930638C19.5734 0.652048 19.3477 0.426758 19.0695 0.426758H13.5271C13.249 0.426758 13.0232 0.652048 13.0232 0.930638C13.0232 1.20936 13.249 1.43452 13.5271 1.43452H17.8532L12.667 6.62074C12.47 6.81769 12.47 7.13619 12.667 7.33314C12.7653 7.43142 12.8942 7.48082 13.0232 7.48082Z" fill="white"/>
</svg>
